<ttFont>
    <TTGlyph name=".notdef" xMin="84" yMin="0" xMax="456" yMax="700">
      <contour>
        <pt x="84" y="0" on="1"/>
        <pt x="84" y="700" on="1"/>
        <pt x="456" y="700" on="1"/>
        <pt x="456" y="0" on="1"/>
      </contour>
      <contour>
        <pt x="159" y="72" on="1"/>
        <pt x="381" y="72" on="1"/>
        <pt x="381" y="628" on="1"/>
        <pt x="159" y="628" on="1"/>
      </contour>
    </TTGlyph>
    <TTGlyph name="A" xMin="45" yMin="0" xMax="495" yMax="700">
      <contour>
        <pt x="352" y="252" on="1"/>
        <pt x="270" y="634" on="1"/>
        <pt x="189" y="252" on="1"/>
      </contour>
      <contour>
        <pt x="495" y="0" on="1"/>
        <pt x="406" y="0" on="1"/>
        <pt x="368" y="177" on="1"/>
        <pt x="173" y="177" on="1"/>
        <pt x="134" y="0" on="1"/>
        <pt x="45" y="0" on="1"/>
        <pt x="214" y="700" on="1"/>
        <pt x="329" y="700" on="1"/>
      </contour>
    </TTGlyph>
    <TTGlyph name="AE" xMin="15" yMin="0" xMax="518" yMax="700">
      <contour>
        <pt x="518" y="0" on="1"/>
        <pt x="307" y="0" on="1"/>
        <pt x="292" y="177" on="1"/>
        <pt x="141" y="177" on="1"/>
        <pt x="99" y="0" on="1"/>
        <pt x="15" y="0" on="1"/>
        <pt x="191" y="700" on="1"/>
        <pt x="498" y="700" on="1"/>
        <pt x="498" y="627" on="1"/>
        <pt x="325" y="627" on="1"/>
        <pt x="348" y="398" on="1"/>
        <pt x="493" y="398" on="1"/>
        <pt x="493" y="325" on="1"/>
        <pt x="356" y="325" on="1"/>
        <pt x="381" y="73" on="1"/>
        <pt x="518" y="73" on="1"/>
      </contour>
      <contour>
        <pt x="247" y="627" on="1"/>
        <pt x="159" y="252" on="1"/>
        <pt x="283" y="252" on="1"/>
      </contour>
    </TTGlyph>
    <TTGlyph name="Aacute" xMin="45" yMin="0" xMax="495" yMax="841">
      <contour>
        <pt x="264" y="726" on="1"/>
        <pt x="181" y="726" on="1"/>
        <pt x="285" y="841" on="1"/>
        <pt x="396" y="841" on="1"/>
      </contour>
      <contour>
        <pt x="352" y="252" on="1"/>
        <pt x="270" y="634" on="1"/>
        <pt x="181" y="252" on="1"/>
      </contour>
      <contour>
        <pt x="495" y="0" on="1"/>
        <pt x="406" y="0" on="1"/>
        <pt x="368" y="177" on="1"/>
        <pt x="173" y="177" on="1"/>
        <pt x="134" y="0" on="1"/>
        <pt x="45" y="0" on="1"/>
        <pt x="214" y="700" on="1"/>
        <pt x="329" y="700" on="1"/>
      </contour>
    </TTGlyph>
    <TTGlyph name="Acircumflex" xMin="45" yMin="0" xMax="495" yMax="845">
      <contour>
        <pt x="426" y="730" on="1"/>
        <pt x="329" y="730" on="1"/>
        <pt x="269" y="794" on="1"/>
        <pt x="209" y="730" on="1"/>
        <pt x="113" y="730" on="1"/>
        <pt x="223" y="845" on="1"/>
        <pt x="315" y="845" on="1"/>
      </contour>
      <contour>
        <pt x="352" y="252" on="1"/>
        <pt x="270" y="634" on="1"/>
        <pt x="189" y="252" on="1"/>
      </contour>
      <contour>
        <pt x="495" y="0" on="1"/>
        <pt x="406" y="0" on="1"/>
        <pt x="368" y="177" on="1"/>
        <pt x="173" y="177" on="1"/>
        <pt x="134" y="0" on="1"/>
        <pt x="45" y="0" on="1"/>
        <pt x="214" y="700" on="1"/>
        <pt x="329" y="700" on="1"/>
      </contour>
    </TTGlyph>
    <TTGlyph name="Adieresis" xMin="45" yMin="0" xMax="495" yMax="815">
      <contour>
        <pt x="352" y="252" on="1"/>
        <pt x="270" y="634" on="1"/>
        <pt x="189" y="252" on="1"/>
      </contour>
      <contour>
        <pt x="495" y="0" on="1"/>
        <pt x="406" y="0" on="1"/>
        <pt x="368" y="177" on="1"/>
        <pt x="173" y="177" on="1"/>
        <pt x="134" y="0" on="1"/>
        <pt x="45" y="0" on="1"/>
        <pt x="214" y="700" on="1"/>
        <pt x="329" y="700" on="1"/>
      </contour>
      <contour>
        <pt x="332" y="735" on="1"/>
        <pt x="332" y="815" on="1"/>
        <pt x="406" y="815" on="1"/>
        <pt x="417" y="735" on="1"/>
      </contour>
      <contour>
        <pt x="217" y="735" on="1"/>
        <pt x="132" y="735" on="1"/>
        <pt x="132" y="815" on="1"/>
        <pt x="217" y="815" on="1"/>
      </contour>
    </TTGlyph>
    <TTGlyph name="Agrave" xMin="45" yMin="0" xMax="495" yMax="841">
      <contour>
        <pt x="357" y="726" on="1"/>
        <pt x="274" y="726" on="1"/>
        <pt x="142" y="841" on="1"/>
        <pt x="253" y="841" on="1"/>
      </contour>
      <contour>
        <pt x="352" y="252" on="1"/>
        <pt x="270" y="634" on="1"/>
        <pt x="189" y="252" on="1"/>
      </contour>
      <contour>
        <pt x="495" y="0" on="1"/>
        <pt x="406" y="0" on="1"/>
        <pt x="368" y="177" on="1"/>
        <pt x="173" y="177" on="1"/>
        <pt x="134" y="0" on="1"/>
        <pt x="45" y="0" on="1"/>
        <pt x="214" y="700" on="1"/>
        <pt x="329" y="700" on="1"/>
      </contour>
    </TTGlyph>
    <TTGlyph name="Aring" xMin="45" yMin="0" xMax="495" yMax="855">
      <contour>
        <pt x="179" y="741" on="1"/>
        <pt x="179" y="770" on="1"/>
        <pt x="179" y="812" on="0"/>
        <pt x="228" y="855" on="0"/>
        <pt x="268" y="855" on="1"/>
        <pt x="274" y="855" on="1"/>
        <pt x="314" y="855" on="0"/>
        <pt x="363" y="812" on="0"/>
        <pt x="363" y="770" on="1"/>
        <pt x="363" y="741" on="1"/>
        <pt x="361" y="696" on="0"/>
        <pt x="335" y="675" on="1"/>
        <pt x="495" y="0" on="1"/>
        <pt x="406" y="0" on="1"/>
        <pt x="368" y="177" on="1"/>
        <pt x="173" y="177" on="1"/>
        <pt x="134" y="0" on="1"/>
        <pt x="45" y="0" on="1"/>
        <pt x="208" y="674" on="1"/>
        <pt x="179" y="697" on="0"/>
      </contour>
      <contour>
        <pt x="352" y="252" on="1"/>
        <pt x="270" y="634" on="1"/>
        <pt x="189" y="252" on="1"/>
      </contour>
      <contour>
        <pt x="306" y="740" on="1"/>
        <pt x="306" y="771" on="1"/>
        <pt x="306" y="809" on="0"/>
        <pt x="274" y="809" on="1"/>
        <pt x="268" y="809" on="1"/>
        <pt x="234" y="809" on="0"/>
        <pt x="234" y="771" on="1"/>
        <pt x="234" y="740" on="1"/>
        <pt x="234" y="702" on="0"/>
        <pt x="268" y="702" on="1"/>
        <pt x="274" y="702" on="1"/>
        <pt x="306" y="702" on="0"/>
      </contour>
    </TTGlyph>
    <TTGlyph name="Atilde" xMin="45" yMin="0" xMax="495" yMax="840">
      <contour>
        <pt x="352" y="252" on="1"/>
        <pt x="270" y="634" on="1"/>
        <pt x="189" y="252" on="1"/>
      </contour>
      <contour>
        <pt x="495" y="0" on="1"/>
        <pt x="406" y="0" on="1"/>
        <pt x="368" y="177" on="1"/>
        <pt x="173" y="177" on="1"/>
        <pt x="134" y="0" on="1"/>
        <pt x="45" y="0" on="1"/>
        <pt x="214" y="700" on="1"/>
        <pt x="329" y="700" on="1"/>
      </contour>
      <contour>
        <pt x="212" y="840" on="1"/>
        <pt x="227" y="840" on="1"/>
        <pt x="239" y="840" on="0"/>
        <pt x="327" y="800" on="0"/>
        <pt x="338" y="800" on="1"/>
        <pt x="348" y="800" on="1"/>
        <pt x="359" y="800" on="0"/>
        <pt x="401" y="827" on="1"/>
        <pt x="415" y="836" on="1"/>
        <pt x="415" y="764" on="1"/>
        <pt x="364" y="731" on="0"/>
        <pt x="347" y="731" on="1"/>
        <pt x="332" y="731" on="1"/>
        <pt x="326" y="731" on="0"/>
        <pt x="233" y="771" on="0"/>
        <pt x="222" y="771" on="1"/>
        <pt x="212" y="771" on="1"/>
        <pt x="199" y="771" on="0"/>
        <pt x="151" y="744" on="1"/>
        <pt x="135" y="735" on="1"/>
        <pt x="135" y="807" on="1"/>
        <pt x="193" y="840" on="0"/>
      </contour>
    </TTGlyph>
    <TTGlyph name="B" xMin="85" yMin="0" xMax="455" yMax="700">
      <contour>
        <pt x="455" y="158" on="1"/>
        <pt x="455" y="72" on="0"/>
        <pt x="376" y="0" on="0"/>
        <pt x="285" y="0" on="1"/>
        <pt x="85" y="0" on="1"/>
        <pt x="85" y="700" on="1"/>
        <pt x="273" y="700" on="1"/>
        <pt x="362" y="700" on="0"/>
        <pt x="445" y="628" on="0"/>
        <pt x="445" y="544" on="1"/>
        <pt x="445" y="487" on="1"/>
        <pt x="445" y="410" on="0"/>
        <pt x="390" y="371" on="1"/>
        <pt x="455" y="335" on="0"/>
        <pt x="455" y="248" on="1"/>
      </contour>
      <contour>
        <pt x="358" y="477" on="1"/>
        <pt x="358" y="553" on="1"/>
        <pt x="358" y="591" on="0"/>
        <pt x="323" y="625" on="0"/>
        <pt x="285" y="625" on="1"/>
        <pt x="172" y="625" on="1"/>
        <pt x="172" y="404" on="1"/>
        <pt x="285" y="404" on="1"/>
        <pt x="316" y="404" on="0"/>
        <pt x="358" y="444" on="0"/>
      </contour>
      <contour>
        <pt x="368" y="148" on="1"/>
        <pt x="368" y="257" on="1"/>
        <pt x="368" y="290" on="0"/>
        <pt x="328" y="329" on="0"/>
        <pt x="295" y="329" on="1"/>
        <pt x="172" y="329" on="1"/>
        <pt x="172" y="75" on="1"/>
        <pt x="294" y="75" on="1"/>
        <pt x="332" y="75" on="0"/>
        <pt x="368" y="110" on="0"/>
      </contour>
    </TTGlyph>
    <TTGlyph name="C" xMin="109" yMin="0" xMax="431" yMax="700">
      <contour>
        <pt x="431" y="0" on="1"/>
        <pt x="289" y="0" on="1"/>
        <pt x="202" y="0" on="0"/>
        <pt x="109" y="85" on="0"/>
        <pt x="109" y="170" on="1"/>
        <pt x="109" y="530" on="1"/>
        <pt x="109" y="615" on="0"/>
        <pt x="202" y="700" on="0"/>
        <pt x="289" y="700" on="1"/>
        <pt x="431" y="700" on="1"/>
        <pt x="431" y="624" on="1"/>
        <pt x="279" y="624" on="1"/>
        <pt x="242" y="624" on="0"/>
        <pt x="196" y="580" on="0"/>
        <pt x="196" y="549" on="1"/>
        <pt x="196" y="151" on="1"/>
        <pt x="196" y="120" on="0"/>
        <pt x="242" y="76" on="0"/>
        <pt x="279" y="76" on="1"/>
        <pt x="431" y="76" on="1"/>
      </contour>
    </TTGlyph>
    <TTGlyph name="Ccedilla" xMin="109" yMin="-200" xMax="431" yMax="700">
      <contour>
        <pt x="321" y="-200" on="1"/>
        <pt x="236" y="-200" on="1"/>
        <pt x="236" y="-136" on="1"/>
        <pt x="303" y="-136" on="1"/>
        <pt x="336" y="-136" on="0"/>
        <pt x="336" y="-105" on="1"/>
        <pt x="336" y="-88" on="0"/>
        <pt x="319" y="-76" on="0"/>
        <pt x="301" y="-76" on="1"/>
        <pt x="252" y="-76" on="1"/>
        <pt x="252" y="2" on="1"/>
        <pt x="109" y="19" on="0"/>
        <pt x="109" y="170" on="1"/>
        <pt x="109" y="530" on="1"/>
        <pt x="109" y="615" on="0"/>
        <pt x="202" y="700" on="0"/>
        <pt x="289" y="700" on="1"/>
        <pt x="431" y="700" on="1"/>
        <pt x="431" y="624" on="1"/>
        <pt x="279" y="624" on="1"/>
        <pt x="242" y="624" on="0"/>
        <pt x="196" y="580" on="0"/>
        <pt x="196" y="549" on="1"/>
        <pt x="196" y="151" on="1"/>
        <pt x="196" y="120" on="0"/>
        <pt x="242" y="76" on="0"/>
        <pt x="279" y="76" on="1"/>
        <pt x="431" y="76" on="1"/>
        <pt x="431" y="0" on="1"/>
        <pt x="322" y="0" on="1"/>
        <pt x="322" y="-21" on="1"/>
        <pt x="368" y="-21" on="0"/>
        <pt x="409" y="-56" on="0"/>
        <pt x="409" y="-136" on="0"/>
        <pt x="392" y="-177" on="0"/>
        <pt x="378" y="-186" on="1"/>
        <pt x="353" y="-200" on="0"/>
      </contour>
    </TTGlyph>
    <TTGlyph name="D" xMin="82" yMin="0" xMax="458" yMax="700">
      <contour>
        <pt x="458" y="158" on="1"/>
        <pt x="458" y="72" on="0"/>
        <pt x="379" y="0" on="0"/>
        <pt x="288" y="0" on="1"/>
        <pt x="82" y="0" on="1"/>
        <pt x="82" y="700" on="1"/>
        <pt x="276" y="700" on="1"/>
        <pt x="366" y="700" on="0"/>
        <pt x="458" y="627" on="0"/>
        <pt x="458" y="544" on="1"/>
      </contour>
      <contour>
        <pt x="371" y="148" on="1"/>
        <pt x="371" y="553" on="1"/>
        <pt x="371" y="586" on="0"/>
        <pt x="331" y="625" on="0"/>
        <pt x="298" y="625" on="1"/>
        <pt x="169" y="625" on="1"/>
        <pt x="169" y="75" on="1"/>
        <pt x="297" y="75" on="1"/>
        <pt x="335" y="75" on="0"/>
        <pt x="371" y="110" on="0"/>
      </contour>
    </TTGlyph>
    <TTGlyph name="Delta" xMin="50" yMin="0" xMax="490" yMax="700">
      <contour>
        <pt x="490" y="0" on="1"/>
        <pt x="50" y="0" on="1"/>
        <pt x="218" y="700" on="1"/>
        <pt x="329" y="700" on="1"/>
      </contour>
      <contour>
        <pt x="382" y="75" on="1"/>
        <pt x="273" y="625" on="1"/>
        <pt x="158" y="75" on="1"/>
      </contour>
    </TTGlyph>
    <TTGlyph name="E" xMin="103" yMin="0" xMax="437" yMax="700">
      <contour>
        <pt x="437" y="0" on="1"/>
        <pt x="103" y="0" on="1"/>
        <pt x="103" y="700" on="1"/>
        <pt x="437" y="700" on="1"/>
        <pt x="437" y="627" on="1"/>
        <pt x="190" y="627" on="1"/>
        <pt x="190" y="398" on="1"/>
        <pt x="412" y="398" on="1"/>
        <pt x="412" y="325" on="1"/>
        <pt x="190" y="325" on="1"/>
        <pt x="190" y="73" on="1"/>
        <pt x="437" y="73" on="1"/>
      </contour>
    </TTGlyph>
    <TTGlyph name="Eacute" xMin="103" yMin="0" xMax="437" yMax="841">
      <contour>
        <pt x="265" y="726" on="1"/>
        <pt x="182" y="726" on="1"/>
        <pt x="286" y="841" on="1"/>
        <pt x="397" y="841" on="1"/>
      </contour>
      <contour>
        <pt x="437" y="0" on="1"/>
        <pt x="103" y="0" on="1"/>
        <pt x="103" y="700" on="1"/>
        <pt x="437" y="700" on="1"/>
        <pt x="437" y="627" on="1"/>
        <pt x="190" y="627" on="1"/>
        <pt x="190" y="398" on="1"/>
        <pt x="412" y="398" on="1"/>
        <pt x="412" y="325" on="1"/>
        <pt x="190" y="325" on="1"/>
        <pt x="190" y="73" on="1"/>
        <pt x="437" y="73" on="1"/>
      </contour>
    </TTGlyph>
    <TTGlyph name="Ecircumflex" xMin="103" yMin="0" xMax="437" yMax="845">
      <contour>
        <pt x="427" y="730" on="1"/>
        <pt x="330" y="730" on="1"/>
        <pt x="270" y="794" on="1"/>
        <pt x="210" y="730" on="1"/>
        <pt x="114" y="730" on="1"/>
        <pt x="224" y="845" on="1"/>
        <pt x="316" y="845" on="1"/>
      </contour>
      <contour>
        <pt x="437" y="0" on="1"/>
        <pt x="103" y="0" on="1"/>
        <pt x="103" y="700" on="1"/>
        <pt x="437" y="700" on="1"/>
        <pt x="437" y="627" on="1"/>
        <pt x="190" y="627" on="1"/>
        <pt x="190" y="398" on="1"/>
        <pt x="412" y="398" on="1"/>
        <pt x="412" y="325" on="1"/>
        <pt x="190" y="325" on="1"/>
        <pt x="190" y="73" on="1"/>
        <pt x="437" y="73" on="1"/>
      </contour>
    </TTGlyph>
    <TTGlyph name="Edieresis" xMin="103" yMin="0" xMax="437" yMax="815">
      <contour>
        <pt x="437" y="0" on="1"/>
        <pt x="103" y="0" on="1"/>
        <pt x="103" y="700" on="1"/>
        <pt x="437" y="700" on="1"/>
        <pt x="437" y="627" on="1"/>
        <pt x="190" y="627" on="1"/>
        <pt x="190" y="398" on="1"/>
        <pt x="412" y="398" on="1"/>
        <pt x="412" y="325" on="1"/>
        <pt x="190" y="325" on="1"/>
        <pt x="190" y="73" on="1"/>
        <pt x="437" y="73" on="1"/>
      </contour>
      <contour>
        <pt x="412" y="735" on="1"/>
        <pt x="327" y="735" on="1"/>
        <pt x="327" y="815" on="1"/>
        <pt x="412" y="815" on="1"/>
      </contour>
      <contour>
        <pt x="212" y="735" on="1"/>
        <pt x="127" y="735" on="1"/>
        <pt x="127" y="815" on="1"/>
        <pt x="212" y="815" on="1"/>
      </contour>
    </TTGlyph>
    <TTGlyph name="Egrave" xMin="103" yMin="0" xMax="437" yMax="841">
      <contour>
        <pt x="352" y="726" on="1"/>
        <pt x="269" y="726" on="1"/>
        <pt x="137" y="841" on="1"/>
        <pt x="248" y="841" on="1"/>
      </contour>
      <contour>
        <pt x="437" y="0" on="1"/>
        <pt x="103" y="0" on="1"/>
        <pt x="103" y="700" on="1"/>
        <pt x="437" y="700" on="1"/>
        <pt x="437" y="627" on="1"/>
        <pt x="190" y="627" on="1"/>
        <pt x="190" y="398" on="1"/>
        <pt x="412" y="398" on="1"/>
        <pt x="412" y="325" on="1"/>
        <pt x="190" y="325" on="1"/>
        <pt x="190" y="73" on="1"/>
        <pt x="437" y="73" on="1"/>
      </contour>
    </TTGlyph>
    <TTGlyph name="Eth" xMin="34" yMin="0" xMax="467" yMax="700">
      <contour>
        <pt x="467" y="158" on="1"/>
        <pt x="467" y="72" on="0"/>
        <pt x="388" y="0" on="0"/>
        <pt x="297" y="0" on="1"/>
        <pt x="91" y="0" on="1"/>
        <pt x="91" y="325" on="1"/>
        <pt x="34" y="325" on="1"/>
        <pt x="34" y="400" on="1"/>
        <pt x="91" y="400" on="1"/>
        <pt x="91" y="700" on="1"/>
        <pt x="285" y="700" on="1"/>
        <pt x="375" y="700" on="0"/>
        <pt x="467" y="627" on="0"/>
        <pt x="467" y="544" on="1"/>
      </contour>
      <contour>
        <pt x="380" y="148" on="1"/>
        <pt x="380" y="553" on="1"/>
        <pt x="380" y="586" on="0"/>
        <pt x="340" y="625" on="0"/>
        <pt x="307" y="625" on="1"/>
        <pt x="178" y="625" on="1"/>
        <pt x="178" y="400" on="1"/>
        <pt x="294" y="400" on="1"/>
        <pt x="294" y="325" on="1"/>
        <pt x="178" y="325" on="1"/>
        <pt x="178" y="75" on="1"/>
        <pt x="306" y="75" on="1"/>
        <pt x="344" y="75" on="0"/>
        <pt x="380" y="110" on="0"/>
      </contour>
    </TTGlyph>
    <TTGlyph name="Euro" xMin="89" yMin="0" xMax="451" yMax="700">
      <contour>
        <pt x="415" y="480" on="1"/>
        <pt x="415" y="407" on="1"/>
        <pt x="246" y="407" on="1"/>
        <pt x="246" y="310" on="1"/>
        <pt x="415" y="310" on="1"/>
        <pt x="415" y="237" on="1"/>
        <pt x="246" y="237" on="1"/>
        <pt x="246" y="151" on="1"/>
        <pt x="246" y="120" on="0"/>
        <pt x="292" y="76" on="0"/>
        <pt x="329" y="76" on="1"/>
        <pt x="451" y="76" on="1"/>
        <pt x="451" y="0" on="1"/>
        <pt x="339" y="0" on="1"/>
        <pt x="252" y="0" on="0"/>
        <pt x="159" y="85" on="0"/>
        <pt x="159" y="170" on="1"/>
        <pt x="159" y="237" on="1"/>
        <pt x="89" y="237" on="1"/>
        <pt x="89" y="310" on="1"/>
        <pt x="159" y="310" on="1"/>
        <pt x="159" y="407" on="1"/>
        <pt x="89" y="407" on="1"/>
        <pt x="89" y="480" on="1"/>
        <pt x="159" y="480" on="1"/>
        <pt x="159" y="530" on="1"/>
        <pt x="159" y="615" on="0"/>
        <pt x="252" y="700" on="0"/>
        <pt x="339" y="700" on="1"/>
        <pt x="451" y="700" on="1"/>
        <pt x="451" y="624" on="1"/>
        <pt x="329" y="624" on="1"/>
        <pt x="292" y="624" on="0"/>
        <pt x="246" y="580" on="0"/>
        <pt x="246" y="549" on="1"/>
        <pt x="246" y="480" on="1"/>
      </contour>
    </TTGlyph>
    <TTGlyph name="F" xMin="106" yMin="0" xMax="440" yMax="700">
      <contour>
        <pt x="440" y="627" on="1"/>
        <pt x="193" y="627" on="1"/>
        <pt x="193" y="388" on="1"/>
        <pt x="415" y="388" on="1"/>
        <pt x="415" y="315" on="1"/>
        <pt x="193" y="315" on="1"/>
        <pt x="193" y="0" on="1"/>
        <pt x="106" y="0" on="1"/>
        <pt x="106" y="700" on="1"/>
        <pt x="440" y="700" on="1"/>
      </contour>
    </TTGlyph>
    <TTGlyph name="G" xMin="94" yMin="0" xMax="445" yMax="700">
      <contour>
        <pt x="445" y="0" on="1"/>
        <pt x="274" y="0" on="1"/>
        <pt x="187" y="0" on="0"/>
        <pt x="94" y="85" on="0"/>
        <pt x="94" y="170" on="1"/>
        <pt x="94" y="530" on="1"/>
        <pt x="94" y="615" on="0"/>
        <pt x="187" y="700" on="0"/>
        <pt x="274" y="700" on="1"/>
        <pt x="415" y="700" on="1"/>
        <pt x="415" y="624" on="1"/>
        <pt x="264" y="624" on="1"/>
        <pt x="227" y="624" on="0"/>
        <pt x="181" y="580" on="0"/>
        <pt x="181" y="549" on="1"/>
        <pt x="181" y="151" on="1"/>
        <pt x="181" y="120" on="0"/>
        <pt x="227" y="76" on="0"/>
        <pt x="264" y="76" on="1"/>
        <pt x="362" y="76" on="1"/>
        <pt x="362" y="293" on="1"/>
        <pt x="275" y="293" on="1"/>
        <pt x="275" y="368" on="1"/>
        <pt x="445" y="368" on="1"/>
      </contour>
    </TTGlyph>
    <TTGlyph name="H" xMin="80" yMin="0" xMax="460" yMax="700">
      <contour>
        <pt x="460" y="0" on="1"/>
        <pt x="373" y="0" on="1"/>
        <pt x="373" y="322" on="1"/>
        <pt x="167" y="322" on="1"/>
        <pt x="167" y="0" on="1"/>
        <pt x="80" y="0" on="1"/>
        <pt x="80" y="700" on="1"/>
        <pt x="167" y="700" on="1"/>
        <pt x="167" y="396" on="1"/>
        <pt x="373" y="396" on="1"/>
        <pt x="373" y="700" on="1"/>
        <pt x="460" y="700" on="1"/>
      </contour>
    </TTGlyph>
    <TTGlyph name="I" xMin="136" yMin="0" xMax="403" yMax="700">
      <contour>
        <pt x="403" y="0" on="1"/>
        <pt x="136" y="0" on="1"/>
        <pt x="136" y="73" on="1"/>
        <pt x="226" y="73" on="1"/>
        <pt x="226" y="627" on="1"/>
        <pt x="136" y="627" on="1"/>
        <pt x="136" y="700" on="1"/>
        <pt x="403" y="700" on="1"/>
        <pt x="403" y="627" on="1"/>
        <pt x="313" y="627" on="1"/>
        <pt x="313" y="73" on="1"/>
        <pt x="403" y="73" on="1"/>
      </contour>
    </TTGlyph>
    <TTGlyph name="Iacute" xMin="136" yMin="0" xMax="403" yMax="841">
      <contour>
        <pt x="260" y="726" on="1"/>
        <pt x="177" y="726" on="1"/>
        <pt x="281" y="841" on="1"/>
        <pt x="392" y="841" on="1"/>
      </contour>
      <contour>
        <pt x="403" y="0" on="1"/>
        <pt x="136" y="0" on="1"/>
        <pt x="136" y="73" on="1"/>
        <pt x="226" y="73" on="1"/>
        <pt x="226" y="627" on="1"/>
        <pt x="136" y="627" on="1"/>
        <pt x="136" y="700" on="1"/>
        <pt x="403" y="700" on="1"/>
        <pt x="403" y="627" on="1"/>
        <pt x="313" y="627" on="1"/>
        <pt x="313" y="73" on="1"/>
        <pt x="403" y="73" on="1"/>
      </contour>
    </TTGlyph>
    <TTGlyph name="Icircumflex" xMin="114" yMin="0" xMax="427" yMax="845">
      <contour>
        <pt x="427" y="730" on="1"/>
        <pt x="330" y="730" on="1"/>
        <pt x="270" y="794" on="1"/>
        <pt x="210" y="730" on="1"/>
        <pt x="114" y="730" on="1"/>
        <pt x="224" y="845" on="1"/>
        <pt x="316" y="845" on="1"/>
      </contour>
      <contour>
        <pt x="404" y="0" on="1"/>
        <pt x="137" y="0" on="1"/>
        <pt x="137" y="73" on="1"/>
        <pt x="227" y="73" on="1"/>
        <pt x="227" y="627" on="1"/>
        <pt x="137" y="627" on="1"/>
        <pt x="137" y="700" on="1"/>
        <pt x="404" y="700" on="1"/>
        <pt x="404" y="627" on="1"/>
        <pt x="314" y="627" on="1"/>
        <pt x="314" y="73" on="1"/>
        <pt x="404" y="73" on="1"/>
      </contour>
    </TTGlyph>
    <TTGlyph name="Idieresis" xMin="128" yMin="0" xMax="413" yMax="815">
      <contour>
        <pt x="403" y="0" on="1"/>
        <pt x="136" y="0" on="1"/>
        <pt x="136" y="73" on="1"/>
        <pt x="226" y="73" on="1"/>
        <pt x="226" y="627" on="1"/>
        <pt x="136" y="627" on="1"/>
        <pt x="136" y="700" on="1"/>
        <pt x="403" y="700" on="1"/>
        <pt x="403" y="627" on="1"/>
        <pt x="313" y="627" on="1"/>
        <pt x="313" y="73" on="1"/>
        <pt x="403" y="73" on="1"/>
      </contour>
      <contour>
        <pt x="413" y="735" on="1"/>
        <pt x="328" y="735" on="1"/>
        <pt x="328" y="815" on="1"/>
        <pt x="413" y="815" on="1"/>
      </contour>
      <contour>
        <pt x="213" y="735" on="1"/>
        <pt x="128" y="735" on="1"/>
        <pt x="128" y="815" on="1"/>
        <pt x="213" y="815" on="1"/>
      </contour>
    </TTGlyph>
    <TTGlyph name="Igrave" xMin="136" yMin="0" xMax="406" yMax="841">
      <contour>
        <pt x="351" y="726" on="1"/>
        <pt x="268" y="726" on="1"/>
        <pt x="136" y="841" on="1"/>
        <pt x="247" y="841" on="1"/>
      </contour>
      <contour>
        <pt x="406" y="0" on="1"/>
        <pt x="139" y="0" on="1"/>
        <pt x="139" y="73" on="1"/>
        <pt x="229" y="73" on="1"/>
        <pt x="229" y="627" on="1"/>
        <pt x="139" y="627" on="1"/>
        <pt x="139" y="700" on="1"/>
        <pt x="406" y="700" on="1"/>
        <pt x="406" y="627" on="1"/>
        <pt x="316" y="627" on="1"/>
        <pt x="316" y="73" on="1"/>
        <pt x="406" y="73" on="1"/>
      </contour>
    </TTGlyph>
    <TTGlyph name="J" xMin="125" yMin="0" xMax="410" yMax="700">
      <contour>
        <pt x="410" y="170" on="1"/>
        <pt x="410" y="85" on="0"/>
        <pt x="317" y="0" on="0"/>
        <pt x="230" y="0" on="1"/>
        <pt x="125" y="0" on="1"/>
        <pt x="125" y="76" on="1"/>
        <pt x="240" y="76" on="1"/>
        <pt x="277" y="76" on="0"/>
        <pt x="323" y="120" on="0"/>
        <pt x="323" y="151" on="1"/>
        <pt x="323" y="625" on="1"/>
        <pt x="162" y="625" on="1"/>
        <pt x="162" y="700" on="1"/>
        <pt x="410" y="700" on="1"/>
      </contour>
    </TTGlyph>
    <TTGlyph name="K" xMin="81" yMin="0" xMax="465" yMax="700">
      <contour>
        <pt x="168" y="0" on="1"/>
        <pt x="81" y="0" on="1"/>
        <pt x="81" y="700" on="1"/>
        <pt x="168" y="700" on="1"/>
        <pt x="168" y="398" on="1"/>
        <pt x="358" y="700" on="1"/>
        <pt x="453" y="700" on="1"/>
        <pt x="260" y="391" on="1"/>
        <pt x="465" y="0" on="1"/>
        <pt x="365" y="0" on="1"/>
        <pt x="206" y="315" on="1"/>
        <pt x="168" y="258" on="1"/>
      </contour>
    </TTGlyph>
    <TTGlyph name="L" xMin="115" yMin="0" xMax="425" yMax="700">
      <contour>
        <pt x="425" y="0" on="1"/>
        <pt x="115" y="0" on="1"/>
        <pt x="115" y="700" on="1"/>
        <pt x="202" y="700" on="1"/>
        <pt x="202" y="76" on="1"/>
        <pt x="425" y="76" on="1"/>
      </contour>
    </TTGlyph>
    <TTGlyph name="Lslash" xMin="75" yMin="0" xMax="475" yMax="700">
      <contour>
        <pt x="475" y="0" on="1"/>
        <pt x="165" y="0" on="1"/>
        <pt x="165" y="343" on="1"/>
        <pt x="75" y="300" on="1"/>
        <pt x="75" y="380" on="1"/>
        <pt x="165" y="423" on="1"/>
        <pt x="165" y="700" on="1"/>
        <pt x="252" y="700" on="1"/>
        <pt x="252" y="465" on="1"/>
        <pt x="365" y="520" on="1"/>
        <pt x="365" y="440" on="1"/>
        <pt x="252" y="385" on="1"/>
        <pt x="252" y="76" on="1"/>
        <pt x="475" y="76" on="1"/>
      </contour>
    </TTGlyph>
    <TTGlyph name="M" xMin="53" yMin="0" xMax="488" yMax="700">
      <contour>
        <pt x="488" y="0" on="1"/>
        <pt x="410" y="0" on="1"/>
        <pt x="410" y="628" on="1"/>
        <pt x="310" y="235" on="1"/>
        <pt x="227" y="235" on="1"/>
        <pt x="129" y="628" on="1"/>
        <pt x="129" y="0" on="1"/>
        <pt x="53" y="0" on="1"/>
        <pt x="53" y="700" on="1"/>
        <pt x="192" y="700" on="1"/>
        <pt x="272" y="342" on="1"/>
        <pt x="353" y="700" on="1"/>
        <pt x="488" y="700" on="1"/>
      </contour>
    </TTGlyph>
    <TTGlyph name="N" xMin="79" yMin="0" xMax="460" yMax="700">
      <contour>
        <pt x="460" y="0" on="1"/>
        <pt x="317" y="0" on="1"/>
        <pt x="160" y="626" on="1"/>
        <pt x="160" y="0" on="1"/>
        <pt x="79" y="0" on="1"/>
        <pt x="79" y="700" on="1"/>
        <pt x="221" y="700" on="1"/>
        <pt x="379" y="74" on="1"/>
        <pt x="379" y="700" on="1"/>
        <pt x="460" y="700" on="1"/>
      </contour>
    </TTGlyph>
    <TTGlyph name="Ntilde" xMin="79" yMin="0" xMax="460" yMax="840">
      <contour>
        <pt x="460" y="0" on="1"/>
        <pt x="317" y="0" on="1"/>
        <pt x="160" y="626" on="1"/>
        <pt x="160" y="0" on="1"/>
        <pt x="79" y="0" on="1"/>
        <pt x="79" y="700" on="1"/>
        <pt x="221" y="700" on="1"/>
        <pt x="379" y="74" on="1"/>
        <pt x="379" y="700" on="1"/>
        <pt x="460" y="700" on="1"/>
      </contour>
      <contour>
        <pt x="210" y="840" on="1"/>
        <pt x="225" y="840" on="1"/>
        <pt x="237" y="840" on="0"/>
        <pt x="325" y="800" on="0"/>
        <pt x="336" y="800" on="1"/>
        <pt x="346" y="800" on="1"/>
        <pt x="357" y="800" on="0"/>
        <pt x="399" y="827" on="1"/>
        <pt x="413" y="836" on="1"/>
        <pt x="413" y="764" on="1"/>
        <pt x="362" y="731" on="0"/>
        <pt x="345" y="731" on="1"/>
        <pt x="330" y="731" on="1"/>
        <pt x="324" y="731" on="0"/>
        <pt x="231" y="771" on="0"/>
        <pt x="220" y="771" on="1"/>
        <pt x="210" y="771" on="1"/>
        <pt x="197" y="771" on="0"/>
        <pt x="149" y="744" on="1"/>
        <pt x="133" y="735" on="1"/>
        <pt x="133" y="807" on="1"/>
        <pt x="191" y="840" on="0"/>
      </contour>
    </TTGlyph>
    <TTGlyph name="O" xMin="70" yMin="0" xMax="470" yMax="700">
      <contour>
        <pt x="470" y="170" on="1"/>
        <pt x="470" y="85" on="0"/>
        <pt x="377" y="0" on="0"/>
        <pt x="290" y="0" on="1"/>
        <pt x="250" y="0" on="1"/>
        <pt x="163" y="0" on="0"/>
        <pt x="70" y="85" on="0"/>
        <pt x="70" y="170" on="1"/>
        <pt x="70" y="530" on="1"/>
        <pt x="70" y="615" on="0"/>
        <pt x="163" y="700" on="0"/>
        <pt x="250" y="700" on="1"/>
        <pt x="290" y="700" on="1"/>
        <pt x="377" y="700" on="0"/>
        <pt x="470" y="615" on="0"/>
        <pt x="470" y="530" on="1"/>
      </contour>
      <contour>
        <pt x="383" y="151" on="1"/>
        <pt x="383" y="549" on="1"/>
        <pt x="383" y="580" on="0"/>
        <pt x="337" y="624" on="0"/>
        <pt x="300" y="624" on="1"/>
        <pt x="240" y="624" on="1"/>
        <pt x="203" y="624" on="0"/>
        <pt x="157" y="580" on="0"/>
        <pt x="157" y="549" on="1"/>
        <pt x="157" y="151" on="1"/>
        <pt x="157" y="120" on="0"/>
        <pt x="203" y="76" on="0"/>
        <pt x="240" y="76" on="1"/>
        <pt x="300" y="76" on="1"/>
        <pt x="337" y="76" on="0"/>
        <pt x="383" y="120" on="0"/>
      </contour>
    </TTGlyph>
    <TTGlyph name="OE" xMin="26" yMin="0" xMax="523" yMax="700">
      <contour>
        <pt x="523" y="0" on="1"/>
        <pt x="206" y="0" on="1"/>
        <pt x="119" y="0" on="0"/>
        <pt x="26" y="85" on="0"/>
        <pt x="26" y="170" on="1"/>
        <pt x="26" y="530" on="1"/>
        <pt x="26" y="615" on="0"/>
        <pt x="119" y="700" on="0"/>
        <pt x="206" y="700" on="1"/>
        <pt x="523" y="700" on="1"/>
        <pt x="523" y="627" on="1"/>
        <pt x="347" y="627" on="1"/>
        <pt x="371" y="582" on="0"/>
        <pt x="371" y="530" on="1"/>
        <pt x="371" y="398" on="1"/>
        <pt x="508" y="398" on="1"/>
        <pt x="508" y="325" on="1"/>
        <pt x="371" y="325" on="1"/>
        <pt x="371" y="170" on="1"/>
        <pt x="371" y="116" on="0"/>
        <pt x="347" y="73" on="1"/>
        <pt x="523" y="73" on="1"/>
      </contour>
      <contour>
        <pt x="284" y="151" on="1"/>
        <pt x="284" y="549" on="1"/>
        <pt x="284" y="580" on="0"/>
        <pt x="238" y="624" on="0"/>
        <pt x="201" y="624" on="1"/>
        <pt x="196" y="624" on="1"/>
        <pt x="159" y="624" on="0"/>
        <pt x="113" y="580" on="0"/>
        <pt x="113" y="549" on="1"/>
        <pt x="113" y="151" on="1"/>
        <pt x="113" y="120" on="0"/>
        <pt x="159" y="76" on="0"/>
        <pt x="196" y="76" on="1"/>
        <pt x="201" y="76" on="1"/>
        <pt x="238" y="76" on="0"/>
        <pt x="284" y="120" on="0"/>
      </contour>
    </TTGlyph>
    <TTGlyph name="Oacute" xMin="70" yMin="0" xMax="470" yMax="841">
      <contour>
        <pt x="267" y="726" on="1"/>
        <pt x="184" y="726" on="1"/>
        <pt x="288" y="841" on="1"/>
        <pt x="399" y="841" on="1"/>
      </contour>
      <contour>
        <pt x="470" y="170" on="1"/>
        <pt x="470" y="85" on="0"/>
        <pt x="377" y="0" on="0"/>
        <pt x="290" y="0" on="1"/>
        <pt x="250" y="0" on="1"/>
        <pt x="163" y="0" on="0"/>
        <pt x="70" y="85" on="0"/>
        <pt x="70" y="170" on="1"/>
        <pt x="70" y="530" on="1"/>
        <pt x="70" y="615" on="0"/>
        <pt x="163" y="700" on="0"/>
        <pt x="250" y="700" on="1"/>
        <pt x="290" y="700" on="1"/>
        <pt x="377" y="700" on="0"/>
        <pt x="470" y="615" on="0"/>
        <pt x="470" y="530" on="1"/>
      </contour>
      <contour>
        <pt x="383" y="151" on="1"/>
        <pt x="383" y="549" on="1"/>
        <pt x="383" y="580" on="0"/>
        <pt x="337" y="624" on="0"/>
        <pt x="300" y="624" on="1"/>
        <pt x="240" y="624" on="1"/>
        <pt x="203" y="624" on="0"/>
        <pt x="157" y="580" on="0"/>
        <pt x="157" y="549" on="1"/>
        <pt x="157" y="151" on="1"/>
        <pt x="157" y="120" on="0"/>
        <pt x="203" y="76" on="0"/>
        <pt x="240" y="76" on="1"/>
        <pt x="300" y="76" on="1"/>
        <pt x="337" y="76" on="0"/>
        <pt x="383" y="120" on="0"/>
      </contour>
    </TTGlyph>
    <TTGlyph name="Ocircumflex" xMin="70" yMin="0" xMax="470" yMax="845">
      <contour>
        <pt x="426" y="730" on="1"/>
        <pt x="329" y="730" on="1"/>
        <pt x="269" y="794" on="1"/>
        <pt x="209" y="730" on="1"/>
        <pt x="113" y="730" on="1"/>
        <pt x="223" y="845" on="1"/>
        <pt x="315" y="845" on="1"/>
      </contour>
      <contour>
        <pt x="470" y="170" on="1"/>
        <pt x="470" y="85" on="0"/>
        <pt x="377" y="0" on="0"/>
        <pt x="290" y="0" on="1"/>
        <pt x="250" y="0" on="1"/>
        <pt x="163" y="0" on="0"/>
        <pt x="70" y="85" on="0"/>
        <pt x="70" y="170" on="1"/>
        <pt x="70" y="530" on="1"/>
        <pt x="70" y="615" on="0"/>
        <pt x="163" y="700" on="0"/>
        <pt x="250" y="700" on="1"/>
        <pt x="290" y="700" on="1"/>
        <pt x="377" y="700" on="0"/>
        <pt x="470" y="615" on="0"/>
        <pt x="470" y="530" on="1"/>
      </contour>
      <contour>
        <pt x="383" y="151" on="1"/>
        <pt x="383" y="549" on="1"/>
        <pt x="383" y="580" on="0"/>
        <pt x="337" y="624" on="0"/>
        <pt x="300" y="624" on="1"/>
        <pt x="240" y="624" on="1"/>
        <pt x="203" y="624" on="0"/>
        <pt x="157" y="580" on="0"/>
        <pt x="157" y="549" on="1"/>
        <pt x="157" y="151" on="1"/>
        <pt x="157" y="120" on="0"/>
        <pt x="203" y="76" on="0"/>
        <pt x="240" y="76" on="1"/>
        <pt x="300" y="76" on="1"/>
        <pt x="337" y="76" on="0"/>
        <pt x="383" y="120" on="0"/>
      </contour>
    </TTGlyph>
    <TTGlyph name="Odieresis" xMin="70" yMin="0" xMax="470" yMax="815">
      <contour>
        <pt x="416" y="735" on="1"/>
        <pt x="331" y="735" on="1"/>
        <pt x="331" y="815" on="1"/>
        <pt x="416" y="815" on="1"/>
      </contour>
      <contour>
        <pt x="216" y="735" on="1"/>
        <pt x="131" y="735" on="1"/>
        <pt x="131" y="815" on="1"/>
        <pt x="216" y="815" on="1"/>
      </contour>
      <contour>
        <pt x="470" y="170" on="1"/>
        <pt x="470" y="85" on="0"/>
        <pt x="377" y="0" on="0"/>
        <pt x="290" y="0" on="1"/>
        <pt x="250" y="0" on="1"/>
        <pt x="163" y="0" on="0"/>
        <pt x="70" y="85" on="0"/>
        <pt x="70" y="170" on="1"/>
        <pt x="70" y="530" on="1"/>
        <pt x="70" y="615" on="0"/>
        <pt x="163" y="700" on="0"/>
        <pt x="250" y="700" on="1"/>
        <pt x="290" y="700" on="1"/>
        <pt x="377" y="700" on="0"/>
        <pt x="470" y="615" on="0"/>
        <pt x="470" y="530" on="1"/>
      </contour>
      <contour>
        <pt x="383" y="151" on="1"/>
        <pt x="383" y="549" on="1"/>
        <pt x="383" y="580" on="0"/>
        <pt x="337" y="624" on="0"/>
        <pt x="300" y="624" on="1"/>
        <pt x="240" y="624" on="1"/>
        <pt x="203" y="624" on="0"/>
        <pt x="157" y="580" on="0"/>
        <pt x="157" y="549" on="1"/>
        <pt x="157" y="151" on="1"/>
        <pt x="157" y="120" on="0"/>
        <pt x="203" y="76" on="0"/>
        <pt x="240" y="76" on="1"/>
        <pt x="300" y="76" on="1"/>
        <pt x="337" y="76" on="0"/>
        <pt x="383" y="120" on="0"/>
      </contour>
    </TTGlyph>
    <TTGlyph name="Ograve" xMin="70" yMin="0" xMax="470" yMax="841">
      <contour>
        <pt x="351" y="726" on="1"/>
        <pt x="268" y="726" on="1"/>
        <pt x="136" y="841" on="1"/>
        <pt x="247" y="841" on="1"/>
      </contour>
      <contour>
        <pt x="470" y="170" on="1"/>
        <pt x="470" y="85" on="0"/>
        <pt x="377" y="0" on="0"/>
        <pt x="290" y="0" on="1"/>
        <pt x="250" y="0" on="1"/>
        <pt x="163" y="0" on="0"/>
        <pt x="70" y="85" on="0"/>
        <pt x="70" y="170" on="1"/>
        <pt x="70" y="530" on="1"/>
        <pt x="70" y="615" on="0"/>
        <pt x="163" y="700" on="0"/>
        <pt x="250" y="700" on="1"/>
        <pt x="290" y="700" on="1"/>
        <pt x="377" y="700" on="0"/>
        <pt x="470" y="615" on="0"/>
        <pt x="470" y="530" on="1"/>
      </contour>
      <contour>
        <pt x="383" y="151" on="1"/>
        <pt x="383" y="549" on="1"/>
        <pt x="383" y="580" on="0"/>
        <pt x="337" y="624" on="0"/>
        <pt x="300" y="624" on="1"/>
        <pt x="240" y="624" on="1"/>
        <pt x="203" y="624" on="0"/>
        <pt x="157" y="580" on="0"/>
        <pt x="157" y="549" on="1"/>
        <pt x="157" y="151" on="1"/>
        <pt x="157" y="120" on="0"/>
        <pt x="203" y="76" on="0"/>
        <pt x="240" y="76" on="1"/>
        <pt x="300" y="76" on="1"/>
        <pt x="337" y="76" on="0"/>
        <pt x="383" y="120" on="0"/>
      </contour>
    </TTGlyph>
    <TTGlyph name="Omega" xMin="45" yMin="0" xMax="495" yMax="700">
      <contour>
        <pt x="495" y="0" on="1"/>
        <pt x="312" y="0" on="1"/>
        <pt x="312" y="76" on="1"/>
        <pt x="339" y="76" on="0"/>
        <pt x="377" y="121" on="0"/>
        <pt x="377" y="151" on="1"/>
        <pt x="377" y="549" on="1"/>
        <pt x="377" y="580" on="0"/>
        <pt x="331" y="624" on="0"/>
        <pt x="294" y="624" on="1"/>
        <pt x="240" y="624" on="1"/>
        <pt x="203" y="624" on="0"/>
        <pt x="157" y="580" on="0"/>
        <pt x="157" y="549" on="1"/>
        <pt x="157" y="151" on="1"/>
        <pt x="157" y="121" on="0"/>
        <pt x="198" y="76" on="0"/>
        <pt x="228" y="76" on="1"/>
        <pt x="228" y="0" on="1"/>
        <pt x="45" y="0" on="1"/>
        <pt x="45" y="76" on="1"/>
        <pt x="94" y="76" on="1"/>
        <pt x="70" y="119" on="0"/>
        <pt x="70" y="170" on="1"/>
        <pt x="70" y="530" on="1"/>
        <pt x="70" y="615" on="0"/>
        <pt x="163" y="700" on="0"/>
        <pt x="250" y="700" on="1"/>
        <pt x="284" y="700" on="1"/>
        <pt x="371" y="700" on="0"/>
        <pt x="464" y="615" on="0"/>
        <pt x="464" y="530" on="1"/>
        <pt x="464" y="170" on="1"/>
        <pt x="464" y="117" on="0"/>
        <pt x="441" y="76" on="1"/>
        <pt x="495" y="76" on="1"/>
      </contour>
    </TTGlyph>
    <TTGlyph name="Oslash" xMin="70" yMin="-91" xMax="470" yMax="791">
      <contour>
        <pt x="470" y="170" on="1"/>
        <pt x="470" y="85" on="0"/>
        <pt x="377" y="0" on="0"/>
        <pt x="290" y="0" on="1"/>
        <pt x="250" y="0" on="1"/>
        <pt x="223" y="0" on="0"/>
        <pt x="211" y="2" on="1"/>
        <pt x="185" y="-91" on="1"/>
        <pt x="109" y="-91" on="1"/>
        <pt x="141" y="24" on="1"/>
        <pt x="70" y="66" on="0"/>
        <pt x="70" y="170" on="1"/>
        <pt x="70" y="530" on="1"/>
        <pt x="70" y="615" on="0"/>
        <pt x="163" y="700" on="0"/>
        <pt x="250" y="700" on="1"/>
        <pt x="290" y="700" on="1"/>
        <pt x="303" y="700" on="0"/>
        <pt x="327" y="698" on="1"/>
        <pt x="353" y="791" on="1"/>
        <pt x="429" y="791" on="1"/>
        <pt x="397" y="676" on="1"/>
        <pt x="470" y="636" on="0"/>
        <pt x="470" y="530" on="1"/>
      </contour>
      <contour>
        <pt x="383" y="151" on="1"/>
        <pt x="383" y="549" on="1"/>
        <pt x="383" y="569" on="0"/>
        <pt x="372" y="586" on="1"/>
        <pt x="231" y="76" on="1"/>
        <pt x="300" y="76" on="1"/>
        <pt x="337" y="76" on="0"/>
        <pt x="383" y="120" on="0"/>
      </contour>
      <contour>
        <pt x="157" y="151" on="1"/>
        <pt x="157" y="131" on="0"/>
        <pt x="166" y="116" on="1"/>
        <pt x="306" y="624" on="1"/>
        <pt x="240" y="624" on="1"/>
        <pt x="203" y="624" on="0"/>
        <pt x="157" y="580" on="0"/>
        <pt x="157" y="549" on="1"/>
      </contour>
    </TTGlyph>
    <TTGlyph name="Otilde" xMin="70" yMin="0" xMax="470" yMax="840">
      <contour>
        <pt x="470" y="170" on="1"/>
        <pt x="470" y="85" on="0"/>
        <pt x="377" y="0" on="0"/>
        <pt x="290" y="0" on="1"/>
        <pt x="250" y="0" on="1"/>
        <pt x="163" y="0" on="0"/>
        <pt x="70" y="85" on="0"/>
        <pt x="70" y="170" on="1"/>
        <pt x="70" y="530" on="1"/>
        <pt x="70" y="615" on="0"/>
        <pt x="163" y="700" on="0"/>
        <pt x="250" y="700" on="1"/>
        <pt x="290" y="700" on="1"/>
        <pt x="377" y="700" on="0"/>
        <pt x="470" y="615" on="0"/>
        <pt x="470" y="530" on="1"/>
      </contour>
      <contour>
        <pt x="383" y="151" on="1"/>
        <pt x="383" y="549" on="1"/>
        <pt x="383" y="580" on="0"/>
        <pt x="337" y="624" on="0"/>
        <pt x="300" y="624" on="1"/>
        <pt x="240" y="624" on="1"/>
        <pt x="203" y="624" on="0"/>
        <pt x="157" y="580" on="0"/>
        <pt x="157" y="549" on="1"/>
        <pt x="157" y="151" on="1"/>
        <pt x="157" y="120" on="0"/>
        <pt x="203" y="76" on="0"/>
        <pt x="240" y="76" on="1"/>
        <pt x="300" y="76" on="1"/>
        <pt x="337" y="76" on="0"/>
        <pt x="383" y="120" on="0"/>
      </contour>
      <contour>
        <pt x="209" y="840" on="1"/>
        <pt x="224" y="840" on="1"/>
        <pt x="236" y="840" on="0"/>
        <pt x="324" y="800" on="0"/>
        <pt x="335" y="800" on="1"/>
        <pt x="345" y="800" on="1"/>
        <pt x="356" y="800" on="0"/>
        <pt x="398" y="827" on="1"/>
        <pt x="412" y="836" on="1"/>
        <pt x="412" y="764" on="1"/>
        <pt x="361" y="731" on="0"/>
        <pt x="344" y="731" on="1"/>
        <pt x="329" y="731" on="1"/>
        <pt x="323" y="731" on="0"/>
        <pt x="230" y="771" on="0"/>
        <pt x="219" y="771" on="1"/>
        <pt x="209" y="771" on="1"/>
        <pt x="196" y="771" on="0"/>
        <pt x="148" y="744" on="1"/>
        <pt x="132" y="735" on="1"/>
        <pt x="132" y="807" on="1"/>
        <pt x="190" y="840" on="0"/>
      </contour>
    </TTGlyph>
    <TTGlyph name="P" xMin="90" yMin="0" xMax="451" yMax="700">
      <contour>
        <pt x="451" y="430" on="1"/>
        <pt x="451" y="272" on="0"/>
        <pt x="281" y="272" on="1"/>
        <pt x="177" y="272" on="1"/>
        <pt x="177" y="0" on="1"/>
        <pt x="90" y="0" on="1"/>
        <pt x="90" y="700" on="1"/>
        <pt x="279" y="700" on="1"/>
        <pt x="451" y="700" on="0"/>
        <pt x="451" y="544" on="1"/>
      </contour>
      <contour>
        <pt x="364" y="420" on="1"/>
        <pt x="364" y="553" on="1"/>
        <pt x="364" y="591" on="0"/>
        <pt x="329" y="625" on="0"/>
        <pt x="291" y="625" on="1"/>
        <pt x="177" y="625" on="1"/>
        <pt x="177" y="347" on="1"/>
        <pt x="291" y="347" on="1"/>
        <pt x="329" y="347" on="0"/>
        <pt x="364" y="382" on="0"/>
      </contour>
    </TTGlyph>
    <TTGlyph name="Q" xMin="70" yMin="-59" xMax="520" yMax="700">
      <contour>
        <pt x="290" y="0" on="1"/>
        <pt x="250" y="0" on="1"/>
        <pt x="163" y="0" on="0"/>
        <pt x="70" y="85" on="0"/>
        <pt x="70" y="170" on="1"/>
        <pt x="70" y="530" on="1"/>
        <pt x="70" y="615" on="0"/>
        <pt x="163" y="700" on="0"/>
        <pt x="250" y="700" on="1"/>
        <pt x="290" y="700" on="1"/>
        <pt x="377" y="700" on="0"/>
        <pt x="470" y="615" on="0"/>
        <pt x="470" y="530" on="1"/>
        <pt x="470" y="170" on="1"/>
        <pt x="470" y="111" on="0"/>
        <pt x="447" y="71" on="1"/>
        <pt x="520" y="-2" on="1"/>
        <pt x="463" y="-59" on="1"/>
        <pt x="386" y="18" on="1"/>
        <pt x="347" y="0" on="0"/>
      </contour>
      <contour>
        <pt x="383" y="151" on="1"/>
        <pt x="383" y="549" on="1"/>
        <pt x="383" y="580" on="0"/>
        <pt x="337" y="624" on="0"/>
        <pt x="300" y="624" on="1"/>
        <pt x="240" y="624" on="1"/>
        <pt x="203" y="624" on="0"/>
        <pt x="157" y="580" on="0"/>
        <pt x="157" y="549" on="1"/>
        <pt x="157" y="151" on="1"/>
        <pt x="157" y="120" on="0"/>
        <pt x="203" y="76" on="0"/>
        <pt x="240" y="76" on="1"/>
        <pt x="300" y="76" on="1"/>
        <pt x="337" y="76" on="0"/>
        <pt x="383" y="120" on="0"/>
      </contour>
    </TTGlyph>
    <TTGlyph name="R" xMin="70" yMin="0" xMax="479" yMax="700">
      <contour>
        <pt x="157" y="290" on="1"/>
        <pt x="157" y="0" on="1"/>
        <pt x="70" y="0" on="1"/>
        <pt x="70" y="700" on="1"/>
        <pt x="258" y="700" on="1"/>
        <pt x="430" y="700" on="0"/>
        <pt x="430" y="544" on="1"/>
        <pt x="430" y="448" on="1"/>
        <pt x="430" y="335" on="0"/>
        <pt x="340" y="307" on="1"/>
        <pt x="479" y="0" on="1"/>
        <pt x="384" y="0" on="1"/>
        <pt x="255" y="290" on="1"/>
      </contour>
      <contour>
        <pt x="343" y="438" on="1"/>
        <pt x="343" y="553" on="1"/>
        <pt x="343" y="591" on="0"/>
        <pt x="308" y="625" on="0"/>
        <pt x="270" y="625" on="1"/>
        <pt x="157" y="625" on="1"/>
        <pt x="157" y="365" on="1"/>
        <pt x="270" y="365" on="1"/>
        <pt x="308" y="365" on="0"/>
        <pt x="343" y="400" on="0"/>
      </contour>
    </TTGlyph>
    <TTGlyph name="S" xMin="100" yMin="0" xMax="439" yMax="700">
      <contour>
        <pt x="439" y="170" on="1"/>
        <pt x="439" y="85" on="0"/>
        <pt x="346" y="0" on="0"/>
        <pt x="259" y="0" on="1"/>
        <pt x="117" y="0" on="1"/>
        <pt x="117" y="76" on="1"/>
        <pt x="269" y="76" on="1"/>
        <pt x="306" y="76" on="0"/>
        <pt x="352" y="120" on="0"/>
        <pt x="352" y="151" on="1"/>
        <pt x="352" y="255" on="1"/>
        <pt x="352" y="285" on="0"/>
        <pt x="321" y="322" on="0"/>
        <pt x="290" y="322" on="1"/>
        <pt x="260" y="322" on="1"/>
        <pt x="186" y="322" on="0"/>
        <pt x="100" y="409" on="0"/>
        <pt x="100" y="492" on="1"/>
        <pt x="100" y="530" on="1"/>
        <pt x="100" y="615" on="0"/>
        <pt x="193" y="700" on="0"/>
        <pt x="280" y="700" on="1"/>
        <pt x="423" y="700" on="1"/>
        <pt x="423" y="624" on="1"/>
        <pt x="270" y="624" on="1"/>
        <pt x="233" y="624" on="0"/>
        <pt x="187" y="580" on="0"/>
        <pt x="187" y="549" on="1"/>
        <pt x="187" y="473" on="1"/>
        <pt x="187" y="442" on="0"/>
        <pt x="227" y="401" on="0"/>
        <pt x="259" y="401" on="1"/>
        <pt x="289" y="401" on="1"/>
        <pt x="360" y="401" on="0"/>
        <pt x="439" y="319" on="0"/>
        <pt x="439" y="236" on="1"/>
      </contour>
    </TTGlyph>
    <TTGlyph name="Scaron" xMin="100" yMin="0" xMax="439" yMax="845">
      <contour>
        <pt x="126" y="845" on="1"/>
        <pt x="223" y="845" on="1"/>
        <pt x="283" y="778" on="1"/>
        <pt x="343" y="845" on="1"/>
        <pt x="439" y="845" on="1"/>
        <pt x="327" y="730" on="1"/>
        <pt x="239" y="730" on="1"/>
      </contour>
      <contour>
        <pt x="439" y="170" on="1"/>
        <pt x="439" y="85" on="0"/>
        <pt x="346" y="0" on="0"/>
        <pt x="259" y="0" on="1"/>
        <pt x="117" y="0" on="1"/>
        <pt x="117" y="76" on="1"/>
        <pt x="269" y="76" on="1"/>
        <pt x="306" y="76" on="0"/>
        <pt x="352" y="120" on="0"/>
        <pt x="352" y="151" on="1"/>
        <pt x="352" y="255" on="1"/>
        <pt x="352" y="285" on="0"/>
        <pt x="321" y="322" on="0"/>
        <pt x="290" y="322" on="1"/>
        <pt x="260" y="322" on="1"/>
        <pt x="186" y="322" on="0"/>
        <pt x="100" y="409" on="0"/>
        <pt x="100" y="492" on="1"/>
        <pt x="100" y="530" on="1"/>
        <pt x="100" y="615" on="0"/>
        <pt x="193" y="700" on="0"/>
        <pt x="280" y="700" on="1"/>
        <pt x="423" y="700" on="1"/>
        <pt x="423" y="624" on="1"/>
        <pt x="270" y="624" on="1"/>
        <pt x="233" y="624" on="0"/>
        <pt x="187" y="580" on="0"/>
        <pt x="187" y="549" on="1"/>
        <pt x="187" y="473" on="1"/>
        <pt x="187" y="442" on="0"/>
        <pt x="227" y="401" on="0"/>
        <pt x="259" y="401" on="1"/>
        <pt x="289" y="401" on="1"/>
        <pt x="360" y="401" on="0"/>
        <pt x="439" y="319" on="0"/>
        <pt x="439" y="236" on="1"/>
      </contour>
    </TTGlyph>
    <TTGlyph name="T" xMin="67" yMin="0" xMax="472" yMax="700">
      <contour>
        <pt x="472" y="624" on="1"/>
        <pt x="313" y="624" on="1"/>
        <pt x="313" y="0" on="1"/>
        <pt x="226" y="0" on="1"/>
        <pt x="226" y="624" on="1"/>
        <pt x="67" y="624" on="1"/>
        <pt x="67" y="700" on="1"/>
        <pt x="472" y="700" on="1"/>
      </contour>
    </TTGlyph>
    <TTGlyph name="Thorn" xMin="94" yMin="0" xMax="455" yMax="700">
      <contour>
        <pt x="455" y="300" on="1"/>
        <pt x="455" y="142" on="0"/>
        <pt x="285" y="142" on="1"/>
        <pt x="181" y="142" on="1"/>
        <pt x="181" y="0" on="1"/>
        <pt x="94" y="0" on="1"/>
        <pt x="94" y="700" on="1"/>
        <pt x="181" y="700" on="1"/>
        <pt x="181" y="570" on="1"/>
        <pt x="283" y="570" on="1"/>
        <pt x="455" y="570" on="0"/>
        <pt x="455" y="414" on="1"/>
      </contour>
      <contour>
        <pt x="368" y="290" on="1"/>
        <pt x="368" y="423" on="1"/>
        <pt x="368" y="461" on="0"/>
        <pt x="333" y="495" on="0"/>
        <pt x="295" y="495" on="1"/>
        <pt x="181" y="495" on="1"/>
        <pt x="181" y="217" on="1"/>
        <pt x="295" y="217" on="1"/>
        <pt x="333" y="217" on="0"/>
        <pt x="368" y="252" on="0"/>
      </contour>
    </TTGlyph>
    <TTGlyph name="U" xMin="77" yMin="0" xMax="462" yMax="700">
      <contour>
        <pt x="462" y="170" on="1"/>
        <pt x="462" y="85" on="0"/>
        <pt x="369" y="0" on="0"/>
        <pt x="282" y="0" on="1"/>
        <pt x="257" y="0" on="1"/>
        <pt x="170" y="0" on="0"/>
        <pt x="77" y="85" on="0"/>
        <pt x="77" y="170" on="1"/>
        <pt x="77" y="700" on="1"/>
        <pt x="164" y="700" on="1"/>
        <pt x="164" y="151" on="1"/>
        <pt x="164" y="120" on="0"/>
        <pt x="210" y="76" on="0"/>
        <pt x="247" y="76" on="1"/>
        <pt x="292" y="76" on="1"/>
        <pt x="329" y="76" on="0"/>
        <pt x="375" y="120" on="0"/>
        <pt x="375" y="151" on="1"/>
        <pt x="375" y="700" on="1"/>
        <pt x="462" y="700" on="1"/>
      </contour>
    </TTGlyph>
    <TTGlyph name="Uacute" xMin="77" yMin="0" xMax="462" yMax="841">
      <contour>
        <pt x="294" y="726" on="1"/>
        <pt x="211" y="726" on="1"/>
        <pt x="315" y="841" on="1"/>
        <pt x="426" y="841" on="1"/>
      </contour>
      <contour>
        <pt x="462" y="170" on="1"/>
        <pt x="462" y="85" on="0"/>
        <pt x="369" y="0" on="0"/>
        <pt x="282" y="0" on="1"/>
        <pt x="257" y="0" on="1"/>
        <pt x="170" y="0" on="0"/>
        <pt x="77" y="85" on="0"/>
        <pt x="77" y="170" on="1"/>
        <pt x="77" y="700" on="1"/>
        <pt x="164" y="700" on="1"/>
        <pt x="164" y="151" on="1"/>
        <pt x="164" y="120" on="0"/>
        <pt x="210" y="76" on="0"/>
        <pt x="247" y="76" on="1"/>
        <pt x="292" y="76" on="1"/>
        <pt x="329" y="76" on="0"/>
        <pt x="375" y="120" on="0"/>
        <pt x="375" y="151" on="1"/>
        <pt x="375" y="700" on="1"/>
        <pt x="462" y="700" on="1"/>
      </contour>
    </TTGlyph>
    <TTGlyph name="Ucircumflex" xMin="77" yMin="0" xMax="462" yMax="845">
      <contour>
        <pt x="431" y="730" on="1"/>
        <pt x="334" y="730" on="1"/>
        <pt x="274" y="794" on="1"/>
        <pt x="214" y="730" on="1"/>
        <pt x="118" y="730" on="1"/>
        <pt x="228" y="845" on="1"/>
        <pt x="320" y="845" on="1"/>
      </contour>
      <contour>
        <pt x="462" y="170" on="1"/>
        <pt x="462" y="85" on="0"/>
        <pt x="369" y="0" on="0"/>
        <pt x="282" y="0" on="1"/>
        <pt x="257" y="0" on="1"/>
        <pt x="170" y="0" on="0"/>
        <pt x="77" y="85" on="0"/>
        <pt x="77" y="170" on="1"/>
        <pt x="77" y="700" on="1"/>
        <pt x="164" y="700" on="1"/>
        <pt x="164" y="151" on="1"/>
        <pt x="164" y="120" on="0"/>
        <pt x="210" y="76" on="0"/>
        <pt x="247" y="76" on="1"/>
        <pt x="292" y="76" on="1"/>
        <pt x="329" y="76" on="0"/>
        <pt x="375" y="120" on="0"/>
        <pt x="375" y="151" on="1"/>
        <pt x="375" y="700" on="1"/>
        <pt x="462" y="700" on="1"/>
      </contour>
    </TTGlyph>
    <TTGlyph name="Udieresis" xMin="77" yMin="0" xMax="462" yMax="815">
      <contour>
        <pt x="414" y="735" on="1"/>
        <pt x="329" y="735" on="1"/>
        <pt x="329" y="815" on="1"/>
        <pt x="414" y="815" on="1"/>
      </contour>
      <contour>
        <pt x="214" y="735" on="1"/>
        <pt x="129" y="735" on="1"/>
        <pt x="129" y="815" on="1"/>
        <pt x="214" y="815" on="1"/>
      </contour>
      <contour>
        <pt x="462" y="170" on="1"/>
        <pt x="462" y="85" on="0"/>
        <pt x="369" y="0" on="0"/>
        <pt x="282" y="0" on="1"/>
        <pt x="257" y="0" on="1"/>
        <pt x="170" y="0" on="0"/>
        <pt x="77" y="85" on="0"/>
        <pt x="77" y="170" on="1"/>
        <pt x="77" y="700" on="1"/>
        <pt x="164" y="700" on="1"/>
        <pt x="164" y="151" on="1"/>
        <pt x="164" y="120" on="0"/>
        <pt x="210" y="76" on="0"/>
        <pt x="247" y="76" on="1"/>
        <pt x="292" y="76" on="1"/>
        <pt x="329" y="76" on="0"/>
        <pt x="375" y="120" on="0"/>
        <pt x="375" y="151" on="1"/>
        <pt x="375" y="700" on="1"/>
        <pt x="462" y="700" on="1"/>
      </contour>
    </TTGlyph>
    <TTGlyph name="Ugrave" xMin="77" yMin="0" xMax="462" yMax="841">
      <contour>
        <pt x="331" y="726" on="1"/>
        <pt x="248" y="726" on="1"/>
        <pt x="116" y="841" on="1"/>
        <pt x="227" y="841" on="1"/>
      </contour>
      <contour>
        <pt x="462" y="170" on="1"/>
        <pt x="462" y="85" on="0"/>
        <pt x="369" y="0" on="0"/>
        <pt x="282" y="0" on="1"/>
        <pt x="257" y="0" on="1"/>
        <pt x="170" y="0" on="0"/>
        <pt x="77" y="85" on="0"/>
        <pt x="77" y="170" on="1"/>
        <pt x="77" y="700" on="1"/>
        <pt x="164" y="700" on="1"/>
        <pt x="164" y="151" on="1"/>
        <pt x="164" y="120" on="0"/>
        <pt x="210" y="76" on="0"/>
        <pt x="247" y="76" on="1"/>
        <pt x="292" y="76" on="1"/>
        <pt x="329" y="76" on="0"/>
        <pt x="375" y="120" on="0"/>
        <pt x="375" y="151" on="1"/>
        <pt x="375" y="700" on="1"/>
        <pt x="462" y="700" on="1"/>
      </contour>
    </TTGlyph>
    <TTGlyph name="V" xMin="56" yMin="0" xMax="479" yMax="700">
      <contour>
        <pt x="479" y="700" on="1"/>
        <pt x="322" y="0" on="1"/>
        <pt x="203" y="0" on="1"/>
        <pt x="56" y="700" on="1"/>
        <pt x="144" y="700" on="1"/>
        <pt x="264" y="88" on="1"/>
        <pt x="393" y="700" on="1"/>
      </contour>
    </TTGlyph>
    <TTGlyph name="W" xMin="51" yMin="0" xMax="485" yMax="700">
      <contour>
        <pt x="485" y="700" on="1"/>
        <pt x="451" y="0" on="1"/>
        <pt x="325" y="0" on="1"/>
        <pt x="268" y="284" on="1"/>
        <pt x="205" y="0" on="1"/>
        <pt x="85" y="0" on="1"/>
        <pt x="51" y="700" on="1"/>
        <pt x="125" y="700" on="1"/>
        <pt x="155" y="75" on="1"/>
        <pt x="238" y="405" on="1"/>
        <pt x="300" y="405" on="1"/>
        <pt x="385" y="75" on="1"/>
        <pt x="416" y="700" on="1"/>
      </contour>
    </TTGlyph>
    <TTGlyph name="X" xMin="51" yMin="0" xMax="489" yMax="700">
      <contour>
        <pt x="489" y="0" on="1"/>
        <pt x="391" y="0" on="1"/>
        <pt x="271" y="263" on="1"/>
        <pt x="145" y="0" on="1"/>
        <pt x="51" y="0" on="1"/>
        <pt x="225" y="362" on="1"/>
        <pt x="67" y="700" on="1"/>
        <pt x="162" y="700" on="1"/>
        <pt x="272" y="463" on="1"/>
        <pt x="386" y="700" on="1"/>
        <pt x="479" y="700" on="1"/>
        <pt x="317" y="363" on="1"/>
      </contour>
    </TTGlyph>
    <TTGlyph name="Y" xMin="44" yMin="0" xMax="495" yMax="700">
      <contour>
        <pt x="313" y="0" on="1"/>
        <pt x="223" y="0" on="1"/>
        <pt x="223" y="325" on="1"/>
        <pt x="44" y="700" on="1"/>
        <pt x="140" y="700" on="1"/>
        <pt x="272" y="409" on="1"/>
        <pt x="404" y="700" on="1"/>
        <pt x="495" y="700" on="1"/>
        <pt x="313" y="325" on="1"/>
      </contour>
    </TTGlyph>
    <TTGlyph name="Yacute" xMin="44" yMin="0" xMax="495" yMax="841">
      <contour>
        <pt x="269" y="726" on="1"/>
        <pt x="186" y="726" on="1"/>
        <pt x="290" y="841" on="1"/>
        <pt x="401" y="841" on="1"/>
      </contour>
      <contour>
        <pt x="313" y="0" on="1"/>
        <pt x="223" y="0" on="1"/>
        <pt x="223" y="325" on="1"/>
        <pt x="44" y="700" on="1"/>
        <pt x="140" y="700" on="1"/>
        <pt x="272" y="409" on="1"/>
        <pt x="404" y="700" on="1"/>
        <pt x="495" y="700" on="1"/>
        <pt x="313" y="325" on="1"/>
      </contour>
    </TTGlyph>
    <TTGlyph name="Ydieresis" xMin="44" yMin="0" xMax="495" yMax="815">
      <contour>
        <pt x="313" y="0" on="1"/>
        <pt x="223" y="0" on="1"/>
        <pt x="223" y="325" on="1"/>
        <pt x="44" y="700" on="1"/>
        <pt x="140" y="700" on="1"/>
        <pt x="272" y="409" on="1"/>
        <pt x="404" y="700" on="1"/>
        <pt x="495" y="700" on="1"/>
        <pt x="313" y="325" on="1"/>
      </contour>
      <contour>
        <pt x="413" y="735" on="1"/>
        <pt x="328" y="735" on="1"/>
        <pt x="328" y="815" on="1"/>
        <pt x="413" y="815" on="1"/>
      </contour>
      <contour>
        <pt x="213" y="735" on="1"/>
        <pt x="128" y="735" on="1"/>
        <pt x="128" y="815" on="1"/>
        <pt x="213" y="815" on="1"/>
      </contour>
    </TTGlyph>
    <TTGlyph name="Z" xMin="87" yMin="0" xMax="451" yMax="700">
      <contour>
        <pt x="441" y="74" on="1"/>
        <pt x="441" y="0" on="1"/>
        <pt x="87" y="0" on="1"/>
        <pt x="87" y="88" on="1"/>
        <pt x="361" y="626" on="1"/>
        <pt x="110" y="626" on="1"/>
        <pt x="110" y="700" on="1"/>
        <pt x="451" y="700" on="1"/>
        <pt x="451" y="612" on="1"/>
        <pt x="178" y="74" on="1"/>
      </contour>
    </TTGlyph>
    <TTGlyph name="Zcaron" xMin="87" yMin="0" xMax="451" yMax="845">
      <contour>
        <pt x="129" y="845" on="1"/>
        <pt x="226" y="845" on="1"/>
        <pt x="286" y="778" on="1"/>
        <pt x="346" y="845" on="1"/>
        <pt x="442" y="845" on="1"/>
        <pt x="330" y="730" on="1"/>
        <pt x="242" y="730" on="1"/>
      </contour>
      <contour>
        <pt x="441" y="74" on="1"/>
        <pt x="441" y="0" on="1"/>
        <pt x="87" y="0" on="1"/>
        <pt x="87" y="88" on="1"/>
        <pt x="361" y="626" on="1"/>
        <pt x="110" y="626" on="1"/>
        <pt x="110" y="700" on="1"/>
        <pt x="451" y="700" on="1"/>
        <pt x="451" y="612" on="1"/>
        <pt x="178" y="74" on="1"/>
      </contour>
    </TTGlyph>
    <TTGlyph name="a" xMin="67" yMin="0" xMax="472" yMax="500">
      <contour>
        <pt x="472" y="0" on="1"/>
        <pt x="417" y="0" on="1"/>
        <pt x="387" y="0" on="0"/>
        <pt x="362" y="30" on="1"/>
        <pt x="339" y="0" on="0"/>
        <pt x="301" y="0" on="1"/>
        <pt x="212" y="0" on="1"/>
        <pt x="136" y="0" on="0"/>
        <pt x="67" y="61" on="0"/>
        <pt x="67" y="135" on="1"/>
        <pt x="67" y="155" on="1"/>
        <pt x="67" y="310" on="0"/>
        <pt x="213" y="310" on="1"/>
        <pt x="337" y="310" on="1"/>
        <pt x="337" y="360" on="1"/>
        <pt x="337" y="425" on="0"/>
        <pt x="262" y="425" on="1"/>
        <pt x="107" y="425" on="1"/>
        <pt x="107" y="500" on="1"/>
        <pt x="252" y="500" on="1"/>
        <pt x="339" y="500" on="0"/>
        <pt x="422" y="424" on="0"/>
        <pt x="422" y="340" on="1"/>
        <pt x="422" y="100" on="1"/>
        <pt x="422" y="70" on="0"/>
        <pt x="472" y="70" on="1"/>
      </contour>
      <contour>
        <pt x="291" y="75" on="1"/>
        <pt x="324" y="75" on="0"/>
        <pt x="332" y="93" on="1"/>
        <pt x="337" y="107" on="0"/>
        <pt x="337" y="125" on="1"/>
        <pt x="337" y="235" on="1"/>
        <pt x="212" y="235" on="1"/>
        <pt x="186" y="235" on="0"/>
        <pt x="152" y="201" on="0"/>
        <pt x="152" y="175" on="1"/>
        <pt x="152" y="125" on="1"/>
        <pt x="152" y="99" on="0"/>
        <pt x="176" y="75" on="0"/>
        <pt x="202" y="75" on="1"/>
      </contour>
    </TTGlyph>
    <TTGlyph name="aacute" xMin="67" yMin="0" xMax="472" yMax="715">
      <contour>
        <pt x="472" y="0" on="1"/>
        <pt x="417" y="0" on="1"/>
        <pt x="387" y="0" on="0"/>
        <pt x="362" y="30" on="1"/>
        <pt x="339" y="0" on="0"/>
        <pt x="301" y="0" on="1"/>
        <pt x="212" y="0" on="1"/>
        <pt x="136" y="0" on="0"/>
        <pt x="67" y="61" on="0"/>
        <pt x="67" y="135" on="1"/>
        <pt x="67" y="155" on="1"/>
        <pt x="67" y="310" on="0"/>
        <pt x="213" y="310" on="1"/>
        <pt x="337" y="310" on="1"/>
        <pt x="337" y="360" on="1"/>
        <pt x="337" y="425" on="0"/>
        <pt x="262" y="425" on="1"/>
        <pt x="107" y="425" on="1"/>
        <pt x="107" y="500" on="1"/>
        <pt x="252" y="500" on="1"/>
        <pt x="339" y="500" on="0"/>
        <pt x="422" y="424" on="0"/>
        <pt x="422" y="340" on="1"/>
        <pt x="422" y="100" on="1"/>
        <pt x="422" y="70" on="0"/>
        <pt x="472" y="70" on="1"/>
      </contour>
      <contour>
        <pt x="291" y="75" on="1"/>
        <pt x="324" y="75" on="0"/>
        <pt x="332" y="93" on="1"/>
        <pt x="337" y="107" on="0"/>
        <pt x="337" y="125" on="1"/>
        <pt x="337" y="235" on="1"/>
        <pt x="212" y="235" on="1"/>
        <pt x="186" y="235" on="0"/>
        <pt x="152" y="201" on="0"/>
        <pt x="152" y="175" on="1"/>
        <pt x="152" y="125" on="1"/>
        <pt x="152" y="99" on="0"/>
        <pt x="176" y="75" on="0"/>
        <pt x="202" y="75" on="1"/>
      </contour>
      <contour>
        <pt x="288" y="580" on="1"/>
        <pt x="202" y="580" on="1"/>
        <pt x="306" y="715" on="1"/>
        <pt x="410" y="715" on="1"/>
      </contour>
    </TTGlyph>
    <TTGlyph name="acircumflex" xMin="67" yMin="0" xMax="472" yMax="715">
      <contour>
        <pt x="472" y="0" on="1"/>
        <pt x="417" y="0" on="1"/>
        <pt x="387" y="0" on="0"/>
        <pt x="362" y="30" on="1"/>
        <pt x="339" y="0" on="0"/>
        <pt x="301" y="0" on="1"/>
        <pt x="212" y="0" on="1"/>
        <pt x="136" y="0" on="0"/>
        <pt x="67" y="61" on="0"/>
        <pt x="67" y="135" on="1"/>
        <pt x="67" y="155" on="1"/>
        <pt x="67" y="310" on="0"/>
        <pt x="213" y="310" on="1"/>
        <pt x="337" y="310" on="1"/>
        <pt x="337" y="360" on="1"/>
        <pt x="337" y="425" on="0"/>
        <pt x="262" y="425" on="1"/>
        <pt x="107" y="425" on="1"/>
        <pt x="107" y="500" on="1"/>
        <pt x="252" y="500" on="1"/>
        <pt x="339" y="500" on="0"/>
        <pt x="422" y="424" on="0"/>
        <pt x="422" y="340" on="1"/>
        <pt x="422" y="100" on="1"/>
        <pt x="422" y="70" on="0"/>
        <pt x="472" y="70" on="1"/>
      </contour>
      <contour>
        <pt x="291" y="75" on="1"/>
        <pt x="324" y="75" on="0"/>
        <pt x="332" y="93" on="1"/>
        <pt x="337" y="107" on="0"/>
        <pt x="337" y="125" on="1"/>
        <pt x="337" y="235" on="1"/>
        <pt x="212" y="235" on="1"/>
        <pt x="186" y="235" on="0"/>
        <pt x="152" y="201" on="0"/>
        <pt x="152" y="175" on="1"/>
        <pt x="152" y="125" on="1"/>
        <pt x="152" y="99" on="0"/>
        <pt x="176" y="75" on="0"/>
        <pt x="202" y="75" on="1"/>
      </contour>
      <contour>
        <pt x="411" y="580" on="1"/>
        <pt x="314" y="580" on="1"/>
        <pt x="254" y="655" on="1"/>
        <pt x="194" y="580" on="1"/>
        <pt x="98" y="580" on="1"/>
        <pt x="210" y="715" on="1"/>
        <pt x="298" y="715" on="1"/>
      </contour>
    </TTGlyph>
    <TTGlyph name="acute" xMin="168" yMin="580" xMax="376" yMax="715">
      <contour>
        <pt x="254" y="580" on="1"/>
        <pt x="168" y="580" on="1"/>
        <pt x="272" y="715" on="1"/>
        <pt x="376" y="715" on="1"/>
      </contour>
    </TTGlyph>
    <TTGlyph name="adieresis" xMin="67" yMin="0" xMax="472" yMax="675">
      <contour>
        <pt x="472" y="0" on="1"/>
        <pt x="417" y="0" on="1"/>
        <pt x="387" y="0" on="0"/>
        <pt x="362" y="30" on="1"/>
        <pt x="339" y="0" on="0"/>
        <pt x="301" y="0" on="1"/>
        <pt x="212" y="0" on="1"/>
        <pt x="136" y="0" on="0"/>
        <pt x="67" y="61" on="0"/>
        <pt x="67" y="135" on="1"/>
        <pt x="67" y="155" on="1"/>
        <pt x="67" y="310" on="0"/>
        <pt x="213" y="310" on="1"/>
        <pt x="337" y="310" on="1"/>
        <pt x="337" y="360" on="1"/>
        <pt x="337" y="425" on="0"/>
        <pt x="262" y="425" on="1"/>
        <pt x="107" y="425" on="1"/>
        <pt x="107" y="500" on="1"/>
        <pt x="252" y="500" on="1"/>
        <pt x="339" y="500" on="0"/>
        <pt x="422" y="424" on="0"/>
        <pt x="422" y="340" on="1"/>
        <pt x="422" y="100" on="1"/>
        <pt x="422" y="70" on="0"/>
        <pt x="472" y="70" on="1"/>
      </contour>
      <contour>
        <pt x="291" y="75" on="1"/>
        <pt x="324" y="75" on="0"/>
        <pt x="332" y="93" on="1"/>
        <pt x="337" y="107" on="0"/>
        <pt x="337" y="125" on="1"/>
        <pt x="337" y="235" on="1"/>
        <pt x="212" y="235" on="1"/>
        <pt x="186" y="235" on="0"/>
        <pt x="152" y="201" on="0"/>
        <pt x="152" y="175" on="1"/>
        <pt x="152" y="125" on="1"/>
        <pt x="152" y="99" on="0"/>
        <pt x="176" y="75" on="0"/>
        <pt x="202" y="75" on="1"/>
      </contour>
      <contour>
        <pt x="391" y="595" on="1"/>
        <pt x="306" y="595" on="1"/>
        <pt x="306" y="675" on="1"/>
        <pt x="391" y="675" on="1"/>
      </contour>
      <contour>
        <pt x="191" y="595" on="1"/>
        <pt x="106" y="595" on="1"/>
        <pt x="106" y="675" on="1"/>
        <pt x="191" y="675" on="1"/>
      </contour>
    </TTGlyph>
    <TTGlyph name="ae" xMin="25" yMin="0" xMax="516" yMax="500">
      <contour>
        <pt x="484" y="0" on="1"/>
        <pt x="395" y="0" on="1"/>
        <pt x="299" y="0" on="0"/>
        <pt x="273" y="47" on="1"/>
        <pt x="248" y="0" on="0"/>
        <pt x="174" y="0" on="1"/>
        <pt x="160" y="0" on="1"/>
        <pt x="93" y="0" on="0"/>
        <pt x="25" y="63" on="0"/>
        <pt x="25" y="135" on="1"/>
        <pt x="25" y="147" on="1"/>
        <pt x="25" y="302" on="0"/>
        <pt x="166" y="302" on="1"/>
        <pt x="232" y="302" on="1"/>
        <pt x="232" y="360" on="1"/>
        <pt x="232" y="425" on="0"/>
        <pt x="165" y="425" on="1"/>
        <pt x="60" y="425" on="1"/>
        <pt x="60" y="500" on="1"/>
        <pt x="155" y="500" on="1"/>
        <pt x="232" y="500" on="0"/>
        <pt x="275" y="463" on="1"/>
        <pt x="296" y="483" on="0"/>
        <pt x="337" y="500" on="0"/>
        <pt x="375" y="500" on="1"/>
        <pt x="382" y="500" on="1"/>
        <pt x="452" y="500" on="0"/>
        <pt x="516" y="422" on="0"/>
        <pt x="516" y="345" on="1"/>
        <pt x="516" y="229" on="1"/>
        <pt x="315" y="229" on="1"/>
        <pt x="315" y="132" on="1"/>
        <pt x="318" y="73" on="0"/>
        <pt x="385" y="73" on="1"/>
        <pt x="484" y="73" on="1"/>
      </contour>
      <contour>
        <pt x="232" y="123" on="1"/>
        <pt x="232" y="229" on="1"/>
        <pt x="163" y="229" on="1"/>
        <pt x="137" y="229" on="0"/>
        <pt x="108" y="194" on="0"/>
        <pt x="108" y="167" on="1"/>
        <pt x="108" y="123" on="1"/>
        <pt x="108" y="97" on="0"/>
        <pt x="132" y="73" on="0"/>
        <pt x="158" y="73" on="1"/>
        <pt x="184" y="73" on="1"/>
        <pt x="232" y="73" on="0"/>
      </contour>
      <contour>
        <pt x="315" y="362" on="1"/>
        <pt x="315" y="302" on="1"/>
        <pt x="435" y="302" on="1"/>
        <pt x="435" y="367" on="1"/>
        <pt x="435" y="394" on="0"/>
        <pt x="408" y="427" on="0"/>
        <pt x="383" y="427" on="1"/>
        <pt x="375" y="427" on="1"/>
        <pt x="340" y="427" on="0"/>
        <pt x="315" y="395" on="0"/>
      </contour>
    </TTGlyph>
    <TTGlyph name="agrave" xMin="67" yMin="0" xMax="472" yMax="715">
      <contour>
        <pt x="472" y="0" on="1"/>
        <pt x="417" y="0" on="1"/>
        <pt x="387" y="0" on="0"/>
        <pt x="362" y="30" on="1"/>
        <pt x="339" y="0" on="0"/>
        <pt x="301" y="0" on="1"/>
        <pt x="212" y="0" on="1"/>
        <pt x="136" y="0" on="0"/>
        <pt x="67" y="61" on="0"/>
        <pt x="67" y="135" on="1"/>
        <pt x="67" y="155" on="1"/>
        <pt x="67" y="310" on="0"/>
        <pt x="213" y="310" on="1"/>
        <pt x="337" y="310" on="1"/>
        <pt x="337" y="360" on="1"/>
        <pt x="337" y="425" on="0"/>
        <pt x="262" y="425" on="1"/>
        <pt x="107" y="425" on="1"/>
        <pt x="107" y="500" on="1"/>
        <pt x="252" y="500" on="1"/>
        <pt x="339" y="500" on="0"/>
        <pt x="422" y="424" on="0"/>
        <pt x="422" y="340" on="1"/>
        <pt x="422" y="100" on="1"/>
        <pt x="422" y="70" on="0"/>
        <pt x="472" y="70" on="1"/>
      </contour>
      <contour>
        <pt x="291" y="75" on="1"/>
        <pt x="324" y="75" on="0"/>
        <pt x="332" y="93" on="1"/>
        <pt x="337" y="107" on="0"/>
        <pt x="337" y="125" on="1"/>
        <pt x="337" y="235" on="1"/>
        <pt x="212" y="235" on="1"/>
        <pt x="186" y="235" on="0"/>
        <pt x="152" y="201" on="0"/>
        <pt x="152" y="175" on="1"/>
        <pt x="152" y="125" on="1"/>
        <pt x="152" y="99" on="0"/>
        <pt x="176" y="75" on="0"/>
        <pt x="202" y="75" on="1"/>
      </contour>
      <contour>
        <pt x="342" y="580" on="1"/>
        <pt x="256" y="580" on="1"/>
        <pt x="134" y="715" on="1"/>
        <pt x="238" y="715" on="1"/>
      </contour>
    </TTGlyph>
    <TTGlyph name="ampersand" xMin="83" yMin="0" xMax="496" yMax="700">
      <contour>
        <pt x="417" y="0" on="1"/>
        <pt x="253" y="0" on="1"/>
        <pt x="163" y="0" on="0"/>
        <pt x="83" y="75" on="0"/>
        <pt x="83" y="158" on="1"/>
        <pt x="83" y="284" on="1"/>
        <pt x="83" y="371" on="0"/>
        <pt x="148" y="407" on="1"/>
        <pt x="93" y="446" on="0"/>
        <pt x="93" y="523" on="1"/>
        <pt x="93" y="544" on="1"/>
        <pt x="93" y="700" on="0"/>
        <pt x="265" y="700" on="1"/>
        <pt x="371" y="700" on="1"/>
        <pt x="371" y="625" on="1"/>
        <pt x="253" y="625" on="1"/>
        <pt x="215" y="625" on="0"/>
        <pt x="180" y="591" on="0"/>
        <pt x="180" y="553" on="1"/>
        <pt x="180" y="513" on="1"/>
        <pt x="180" y="480" on="0"/>
        <pt x="222" y="440" on="0"/>
        <pt x="253" y="440" on="1"/>
        <pt x="496" y="440" on="1"/>
        <pt x="496" y="365" on="1"/>
        <pt x="417" y="365" on="1"/>
      </contour>
      <contour>
        <pt x="243" y="365" on="1"/>
        <pt x="210" y="365" on="0"/>
        <pt x="170" y="326" on="0"/>
        <pt x="170" y="293" on="1"/>
        <pt x="170" y="148" on="1"/>
        <pt x="170" y="110" on="0"/>
        <pt x="206" y="75" on="0"/>
        <pt x="244" y="75" on="1"/>
        <pt x="336" y="75" on="1"/>
        <pt x="336" y="365" on="1"/>
      </contour>
    </TTGlyph>
    <TTGlyph name="approxequal" xMin="100" yMin="170" xMax="440" yMax="458">
      <contour>
        <pt x="197" y="458" on="1"/>
        <pt x="212" y="458" on="1"/>
        <pt x="224" y="458" on="0"/>
        <pt x="332" y="418" on="0"/>
        <pt x="343" y="418" on="1"/>
        <pt x="353" y="418" on="1"/>
        <pt x="364" y="418" on="0"/>
        <pt x="421" y="445" on="1"/>
        <pt x="440" y="454" on="1"/>
        <pt x="440" y="374" on="1"/>
        <pt x="369" y="339" on="0"/>
        <pt x="352" y="339" on="1"/>
        <pt x="337" y="339" on="1"/>
        <pt x="331" y="339" on="0"/>
        <pt x="218" y="379" on="0"/>
        <pt x="207" y="379" on="1"/>
        <pt x="197" y="379" on="1"/>
        <pt x="184" y="379" on="0"/>
        <pt x="121" y="352" on="1"/>
        <pt x="100" y="343" on="1"/>
        <pt x="100" y="423" on="1"/>
        <pt x="178" y="458" on="0"/>
      </contour>
      <contour>
        <pt x="197" y="289" on="1"/>
        <pt x="212" y="289" on="1"/>
        <pt x="224" y="289" on="0"/>
        <pt x="332" y="249" on="0"/>
        <pt x="343" y="249" on="1"/>
        <pt x="353" y="249" on="1"/>
        <pt x="364" y="249" on="0"/>
        <pt x="421" y="276" on="1"/>
        <pt x="440" y="285" on="1"/>
        <pt x="440" y="205" on="1"/>
        <pt x="369" y="170" on="0"/>
        <pt x="352" y="170" on="1"/>
        <pt x="337" y="170" on="1"/>
        <pt x="331" y="170" on="0"/>
        <pt x="218" y="210" on="0"/>
        <pt x="207" y="210" on="1"/>
        <pt x="197" y="210" on="1"/>
        <pt x="184" y="210" on="0"/>
        <pt x="121" y="183" on="1"/>
        <pt x="100" y="174" on="1"/>
        <pt x="100" y="254" on="1"/>
        <pt x="178" y="289" on="0"/>
      </contour>
    </TTGlyph>
    <TTGlyph name="aring" xMin="67" yMin="0" xMax="472" yMax="747">
      <contour>
        <pt x="344" y="633" on="1"/>
        <pt x="344" y="592" on="0"/>
        <pt x="294" y="548" on="0"/>
        <pt x="255" y="548" on="1"/>
        <pt x="249" y="548" on="1"/>
        <pt x="210" y="548" on="0"/>
        <pt x="160" y="592" on="0"/>
        <pt x="160" y="633" on="1"/>
        <pt x="160" y="662" on="1"/>
        <pt x="160" y="704" on="0"/>
        <pt x="209" y="747" on="0"/>
        <pt x="249" y="747" on="1"/>
        <pt x="255" y="747" on="1"/>
        <pt x="295" y="747" on="0"/>
        <pt x="344" y="704" on="0"/>
        <pt x="344" y="662" on="1"/>
      </contour>
      <contour>
        <pt x="287" y="632" on="1"/>
        <pt x="287" y="663" on="1"/>
        <pt x="287" y="701" on="0"/>
        <pt x="255" y="701" on="1"/>
        <pt x="249" y="701" on="1"/>
        <pt x="215" y="701" on="0"/>
        <pt x="215" y="663" on="1"/>
        <pt x="215" y="632" on="1"/>
        <pt x="215" y="594" on="0"/>
        <pt x="249" y="594" on="1"/>
        <pt x="255" y="594" on="1"/>
        <pt x="287" y="594" on="0"/>
      </contour>
      <contour>
        <pt x="472" y="0" on="1"/>
        <pt x="417" y="0" on="1"/>
        <pt x="387" y="0" on="0"/>
        <pt x="362" y="30" on="1"/>
        <pt x="339" y="0" on="0"/>
        <pt x="301" y="0" on="1"/>
        <pt x="212" y="0" on="1"/>
        <pt x="136" y="0" on="0"/>
        <pt x="67" y="61" on="0"/>
        <pt x="67" y="135" on="1"/>
        <pt x="67" y="155" on="1"/>
        <pt x="67" y="310" on="0"/>
        <pt x="213" y="310" on="1"/>
        <pt x="337" y="310" on="1"/>
        <pt x="337" y="360" on="1"/>
        <pt x="337" y="425" on="0"/>
        <pt x="262" y="425" on="1"/>
        <pt x="107" y="425" on="1"/>
        <pt x="107" y="500" on="1"/>
        <pt x="252" y="500" on="1"/>
        <pt x="339" y="500" on="0"/>
        <pt x="422" y="424" on="0"/>
        <pt x="422" y="340" on="1"/>
        <pt x="422" y="100" on="1"/>
        <pt x="422" y="70" on="0"/>
        <pt x="472" y="70" on="1"/>
      </contour>
      <contour>
        <pt x="291" y="75" on="1"/>
        <pt x="324" y="75" on="0"/>
        <pt x="332" y="93" on="1"/>
        <pt x="337" y="107" on="0"/>
        <pt x="337" y="125" on="1"/>
        <pt x="337" y="235" on="1"/>
        <pt x="212" y="235" on="1"/>
        <pt x="186" y="235" on="0"/>
        <pt x="152" y="201" on="0"/>
        <pt x="152" y="175" on="1"/>
        <pt x="152" y="125" on="1"/>
        <pt x="152" y="99" on="0"/>
        <pt x="176" y="75" on="0"/>
        <pt x="202" y="75" on="1"/>
      </contour>
    </TTGlyph>
    <TTGlyph name="asciicircum" xMin="71" yMin="420" xMax="468" yMax="760">
      <contour>
        <pt x="468" y="420" on="1"/>
        <pt x="377" y="420" on="1"/>
        <pt x="273" y="700" on="1"/>
        <pt x="159" y="420" on="1"/>
        <pt x="71" y="420" on="1"/>
        <pt x="215" y="760" on="1"/>
        <pt x="329" y="760" on="1"/>
      </contour>
    </TTGlyph>
    <TTGlyph name="asciitilde" xMin="100" yMin="262" xMax="440" yMax="381">
      <contour>
        <pt x="197" y="381" on="1"/>
        <pt x="212" y="381" on="1"/>
        <pt x="224" y="381" on="0"/>
        <pt x="332" y="341" on="0"/>
        <pt x="343" y="341" on="1"/>
        <pt x="353" y="341" on="1"/>
        <pt x="364" y="341" on="0"/>
        <pt x="421" y="368" on="1"/>
        <pt x="440" y="377" on="1"/>
        <pt x="440" y="297" on="1"/>
        <pt x="369" y="262" on="0"/>
        <pt x="352" y="262" on="1"/>
        <pt x="337" y="262" on="1"/>
        <pt x="331" y="262" on="0"/>
        <pt x="218" y="302" on="0"/>
        <pt x="207" y="302" on="1"/>
        <pt x="197" y="302" on="1"/>
        <pt x="184" y="302" on="0"/>
        <pt x="121" y="275" on="1"/>
        <pt x="100" y="266" on="1"/>
        <pt x="100" y="346" on="1"/>
        <pt x="178" y="381" on="0"/>
      </contour>
    </TTGlyph>
    <TTGlyph name="asterisk" xMin="70" yMin="340" xMax="470" yMax="722">
      <contour>
        <pt x="470" y="546" on="1"/>
        <pt x="323" y="515" on="1"/>
        <pt x="429" y="392" on="1"/>
        <pt x="357" y="340" on="1"/>
        <pt x="269" y="482" on="1"/>
        <pt x="178" y="340" on="1"/>
        <pt x="108" y="393" on="1"/>
        <pt x="215" y="515" on="1"/>
        <pt x="70" y="547" on="1"/>
        <pt x="97" y="627" on="1"/>
        <pt x="238" y="570" on="1"/>
        <pt x="225" y="722" on="1"/>
        <pt x="315" y="722" on="1"/>
        <pt x="302" y="570" on="1"/>
        <pt x="445" y="625" on="1"/>
      </contour>
    </TTGlyph>
    <TTGlyph name="at" xMin="29" yMin="0" xMax="511" yMax="700">
      <contour>
        <pt x="351" y="0" on="1"/>
        <pt x="166" y="0" on="1"/>
        <pt x="95" y="0" on="0"/>
        <pt x="29" y="65" on="0"/>
        <pt x="29" y="140" on="1"/>
        <pt x="29" y="550" on="1"/>
        <pt x="29" y="629" on="0"/>
        <pt x="104" y="700" on="0"/>
        <pt x="189" y="700" on="1"/>
        <pt x="354" y="700" on="1"/>
        <pt x="438" y="700" on="0"/>
        <pt x="511" y="631" on="0"/>
        <pt x="511" y="550" on="1"/>
        <pt x="511" y="223" on="1"/>
        <pt x="511" y="163" on="0"/>
        <pt x="462" y="115" on="0"/>
        <pt x="420" y="115" on="1"/>
        <pt x="338" y="115" on="0"/>
        <pt x="332" y="175" on="1"/>
        <pt x="304" y="144" on="0"/>
        <pt x="200" y="144" on="0"/>
        <pt x="154" y="195" on="0"/>
        <pt x="154" y="259" on="1"/>
        <pt x="154" y="403" on="1"/>
        <pt x="154" y="482" on="0"/>
        <pt x="221" y="539" on="0"/>
        <pt x="308" y="539" on="1"/>
        <pt x="380" y="539" on="1"/>
        <pt x="380" y="211" on="1"/>
        <pt x="380" y="170" on="0"/>
        <pt x="410" y="170" on="1"/>
        <pt x="429" y="170" on="0"/>
        <pt x="441" y="188" on="0"/>
        <pt x="441" y="216" on="1"/>
        <pt x="441" y="560" on="1"/>
        <pt x="441" y="637" on="0"/>
        <pt x="364" y="637" on="1"/>
        <pt x="179" y="637" on="1"/>
        <pt x="136" y="637" on="0"/>
        <pt x="99" y="599" on="0"/>
        <pt x="99" y="560" on="1"/>
        <pt x="99" y="130" on="1"/>
        <pt x="99" y="63" on="0"/>
        <pt x="166" y="63" on="1"/>
        <pt x="351" y="63" on="1"/>
      </contour>
      <contour>
        <pt x="222" y="229" on="0"/>
        <pt x="237" y="202" on="0"/>
        <pt x="286" y="202" on="0"/>
        <pt x="312" y="233" on="0"/>
        <pt x="312" y="254" on="1"/>
        <pt x="312" y="482" on="1"/>
        <pt x="297" y="482" on="1"/>
        <pt x="254" y="482" on="0"/>
        <pt x="222" y="453" on="0"/>
        <pt x="222" y="409" on="1"/>
        <pt x="222" y="253" on="1"/>
      </contour>
    </TTGlyph>
    <TTGlyph name="atilde" xMin="67" yMin="0" xMax="472" yMax="700">
      <contour>
        <pt x="472" y="0" on="1"/>
        <pt x="417" y="0" on="1"/>
        <pt x="387" y="0" on="0"/>
        <pt x="362" y="30" on="1"/>
        <pt x="339" y="0" on="0"/>
        <pt x="301" y="0" on="1"/>
        <pt x="212" y="0" on="1"/>
        <pt x="136" y="0" on="0"/>
        <pt x="67" y="61" on="0"/>
        <pt x="67" y="135" on="1"/>
        <pt x="67" y="155" on="1"/>
        <pt x="67" y="310" on="0"/>
        <pt x="213" y="310" on="1"/>
        <pt x="337" y="310" on="1"/>
        <pt x="337" y="360" on="1"/>
        <pt x="337" y="425" on="0"/>
        <pt x="262" y="425" on="1"/>
        <pt x="107" y="425" on="1"/>
        <pt x="107" y="500" on="1"/>
        <pt x="252" y="500" on="1"/>
        <pt x="339" y="500" on="0"/>
        <pt x="422" y="424" on="0"/>
        <pt x="422" y="340" on="1"/>
        <pt x="422" y="100" on="1"/>
        <pt x="422" y="70" on="0"/>
        <pt x="472" y="70" on="1"/>
      </contour>
      <contour>
        <pt x="291" y="75" on="1"/>
        <pt x="324" y="75" on="0"/>
        <pt x="332" y="93" on="1"/>
        <pt x="337" y="107" on="0"/>
        <pt x="337" y="125" on="1"/>
        <pt x="337" y="235" on="1"/>
        <pt x="212" y="235" on="1"/>
        <pt x="186" y="235" on="0"/>
        <pt x="152" y="201" on="0"/>
        <pt x="152" y="175" on="1"/>
        <pt x="152" y="125" on="1"/>
        <pt x="152" y="99" on="0"/>
        <pt x="176" y="75" on="0"/>
        <pt x="202" y="75" on="1"/>
      </contour>
      <contour>
        <pt x="183" y="700" on="1"/>
        <pt x="198" y="700" on="1"/>
        <pt x="210" y="700" on="0"/>
        <pt x="298" y="660" on="0"/>
        <pt x="309" y="660" on="1"/>
        <pt x="319" y="660" on="1"/>
        <pt x="330" y="660" on="0"/>
        <pt x="372" y="687" on="1"/>
        <pt x="386" y="696" on="1"/>
        <pt x="386" y="624" on="1"/>
        <pt x="335" y="591" on="0"/>
        <pt x="318" y="591" on="1"/>
        <pt x="303" y="591" on="1"/>
        <pt x="297" y="591" on="0"/>
        <pt x="204" y="631" on="0"/>
        <pt x="193" y="631" on="1"/>
        <pt x="183" y="631" on="1"/>
        <pt x="170" y="631" on="0"/>
        <pt x="122" y="604" on="1"/>
        <pt x="106" y="595" on="1"/>
        <pt x="106" y="667" on="1"/>
        <pt x="164" y="700" on="0"/>
      </contour>
    </TTGlyph>
    <TTGlyph name="b" xMin="87" yMin="0" xMax="453" yMax="700">
      <contour>
        <pt x="453" y="160" on="1"/>
        <pt x="453" y="76" on="0"/>
        <pt x="370" y="0" on="0"/>
        <pt x="283" y="0" on="1"/>
        <pt x="87" y="0" on="1"/>
        <pt x="87" y="700" on="1"/>
        <pt x="172" y="700" on="1"/>
        <pt x="172" y="480" on="1"/>
        <pt x="202" y="500" on="0"/>
        <pt x="247" y="500" on="1"/>
        <pt x="283" y="500" on="1"/>
        <pt x="371" y="500" on="0"/>
        <pt x="453" y="425" on="0"/>
        <pt x="453" y="340" on="1"/>
      </contour>
      <contour>
        <pt x="237" y="425" on="1"/>
        <pt x="204" y="425" on="0"/>
        <pt x="172" y="390" on="0"/>
        <pt x="172" y="370" on="1"/>
        <pt x="172" y="75" on="1"/>
        <pt x="293" y="75" on="1"/>
        <pt x="368" y="75" on="0"/>
        <pt x="368" y="140" on="1"/>
        <pt x="368" y="360" on="1"/>
        <pt x="368" y="425" on="0"/>
        <pt x="293" y="425" on="1"/>
      </contour>
    </TTGlyph>
    <TTGlyph name="backslash" xMin="50" yMin="-110" xMax="490" yMax="810">
      <contour>
        <pt x="406" y="-110" on="1"/>
        <pt x="50" y="810" on="1"/>
        <pt x="134" y="810" on="1"/>
        <pt x="490" y="-110" on="1"/>
      </contour>
    </TTGlyph>
    <TTGlyph name="bar" xMin="230" yMin="-110" xMax="310" yMax="810">
      <contour>
        <pt x="310" y="-110" on="1"/>
        <pt x="230" y="-110" on="1"/>
        <pt x="230" y="810" on="1"/>
        <pt x="310" y="810" on="1"/>
      </contour>
    </TTGlyph>
    <TTGlyph name="braceleft" xMin="147" yMin="-120" xMax="392" yMax="820">
      <contour>
        <pt x="147" y="295" on="1"/>
        <pt x="147" y="405" on="1"/>
        <pt x="187" y="405" on="0"/>
        <pt x="218" y="430" on="0"/>
        <pt x="218" y="469" on="1"/>
        <pt x="218" y="698" on="1"/>
        <pt x="218" y="765" on="0"/>
        <pt x="268" y="820" on="0"/>
        <pt x="327" y="820" on="1"/>
        <pt x="392" y="820" on="1"/>
        <pt x="392" y="750" on="1"/>
        <pt x="341" y="750" on="1"/>
        <pt x="317" y="750" on="0"/>
        <pt x="296" y="735" on="0"/>
        <pt x="296" y="713" on="1"/>
        <pt x="296" y="469" on="1"/>
        <pt x="296" y="419" on="0"/>
        <pt x="247" y="355" on="0"/>
        <pt x="211" y="349" on="1"/>
        <pt x="247" y="345" on="0"/>
        <pt x="296" y="281" on="0"/>
        <pt x="296" y="231" on="1"/>
        <pt x="296" y="-13" on="1"/>
        <pt x="296" y="-35" on="0"/>
        <pt x="317" y="-50" on="0"/>
        <pt x="341" y="-50" on="1"/>
        <pt x="392" y="-50" on="1"/>
        <pt x="392" y="-120" on="1"/>
        <pt x="327" y="-120" on="1"/>
        <pt x="268" y="-120" on="0"/>
        <pt x="218" y="-65" on="0"/>
        <pt x="218" y="2" on="1"/>
        <pt x="218" y="231" on="1"/>
        <pt x="218" y="270" on="0"/>
        <pt x="187" y="295" on="0"/>
      </contour>
    </TTGlyph>
    <TTGlyph name="braceright" xMin="147" yMin="-120" xMax="392" yMax="820">
      <contour>
        <pt x="392" y="405" on="1"/>
        <pt x="392" y="295" on="1"/>
        <pt x="352" y="295" on="0"/>
        <pt x="321" y="270" on="0"/>
        <pt x="321" y="231" on="1"/>
        <pt x="321" y="2" on="1"/>
        <pt x="321" y="-65" on="0"/>
        <pt x="271" y="-120" on="0"/>
        <pt x="212" y="-120" on="1"/>
        <pt x="147" y="-120" on="1"/>
        <pt x="147" y="-50" on="1"/>
        <pt x="198" y="-50" on="1"/>
        <pt x="222" y="-50" on="0"/>
        <pt x="243" y="-35" on="0"/>
        <pt x="243" y="-13" on="1"/>
        <pt x="243" y="231" on="1"/>
        <pt x="243" y="281" on="0"/>
        <pt x="292" y="345" on="0"/>
        <pt x="328" y="349" on="1"/>
        <pt x="292" y="355" on="0"/>
        <pt x="243" y="419" on="0"/>
        <pt x="243" y="469" on="1"/>
        <pt x="243" y="713" on="1"/>
        <pt x="243" y="735" on="0"/>
        <pt x="222" y="750" on="0"/>
        <pt x="198" y="750" on="1"/>
        <pt x="147" y="750" on="1"/>
        <pt x="147" y="820" on="1"/>
        <pt x="212" y="820" on="1"/>
        <pt x="271" y="820" on="0"/>
        <pt x="321" y="765" on="0"/>
        <pt x="321" y="698" on="1"/>
        <pt x="321" y="469" on="1"/>
        <pt x="321" y="430" on="0"/>
        <pt x="352" y="405" on="0"/>
      </contour>
    </TTGlyph>
    <TTGlyph name="bracketleft" xMin="165" yMin="-120" xMax="375" yMax="820">
      <contour>
        <pt x="375" y="-120" on="1"/>
        <pt x="165" y="-120" on="1"/>
        <pt x="165" y="820" on="1"/>
        <pt x="375" y="820" on="1"/>
        <pt x="375" y="745" on="1"/>
        <pt x="245" y="745" on="1"/>
        <pt x="245" y="-45" on="1"/>
        <pt x="375" y="-45" on="1"/>
      </contour>
    </TTGlyph>
    <TTGlyph name="bracketright" xMin="165" yMin="-120" xMax="375" yMax="820">
      <contour>
        <pt x="375" y="-120" on="1"/>
        <pt x="165" y="-120" on="1"/>
        <pt x="165" y="-45" on="1"/>
        <pt x="295" y="-45" on="1"/>
        <pt x="295" y="745" on="1"/>
        <pt x="165" y="745" on="1"/>
        <pt x="165" y="820" on="1"/>
        <pt x="375" y="820" on="1"/>
      </contour>
    </TTGlyph>
    <TTGlyph name="breve" xMin="128" yMin="585" xMax="412" yMax="715">
      <contour>
        <pt x="280" y="649" on="1"/>
        <pt x="310" y="649" on="0"/>
        <pt x="330" y="683" on="0"/>
        <pt x="330" y="715" on="1"/>
        <pt x="412" y="715" on="1"/>
        <pt x="412" y="664" on="0"/>
        <pt x="351" y="585" on="0"/>
        <pt x="280" y="585" on="1"/>
        <pt x="260" y="585" on="1"/>
        <pt x="189" y="585" on="0"/>
        <pt x="128" y="664" on="0"/>
        <pt x="128" y="715" on="1"/>
        <pt x="210" y="715" on="1"/>
        <pt x="210" y="683" on="0"/>
        <pt x="230" y="649" on="0"/>
        <pt x="260" y="649" on="1"/>
      </contour>
    </TTGlyph>
    <TTGlyph name="brokenbar" xMin="230" yMin="-110" xMax="310" yMax="810">
      <contour>
        <pt x="310" y="-110" on="1"/>
        <pt x="230" y="-110" on="1"/>
        <pt x="230" y="250" on="1"/>
        <pt x="310" y="250" on="1"/>
      </contour>
      <contour>
        <pt x="310" y="450" on="1"/>
        <pt x="230" y="450" on="1"/>
        <pt x="230" y="810" on="1"/>
        <pt x="310" y="810" on="1"/>
      </contour>
    </TTGlyph>
    <TTGlyph name="bullet" xMin="195" yMin="235" xMax="345" yMax="390">
      <contour>
        <pt x="345" y="235" on="1"/>
        <pt x="195" y="235" on="1"/>
        <pt x="195" y="390" on="1"/>
        <pt x="345" y="390" on="1"/>
      </contour>
    </TTGlyph>
    <TTGlyph name="c" xMin="120" yMin="0" xMax="419" yMax="500">
      <contour>
        <pt x="419" y="0" on="1"/>
        <pt x="290" y="0" on="1"/>
        <pt x="202" y="0" on="0"/>
        <pt x="120" y="75" on="0"/>
        <pt x="120" y="160" on="1"/>
        <pt x="120" y="340" on="1"/>
        <pt x="120" y="424" on="0"/>
        <pt x="203" y="500" on="0"/>
        <pt x="290" y="500" on="1"/>
        <pt x="419" y="500" on="1"/>
        <pt x="419" y="425" on="1"/>
        <pt x="280" y="425" on="1"/>
        <pt x="205" y="425" on="0"/>
        <pt x="205" y="360" on="1"/>
        <pt x="205" y="140" on="1"/>
        <pt x="205" y="75" on="0"/>
        <pt x="280" y="75" on="1"/>
        <pt x="419" y="75" on="1"/>
      </contour>
    </TTGlyph>
    <TTGlyph name="caron" xMin="113" yMin="579" xMax="426" yMax="714">
      <contour>
        <pt x="113" y="714" on="1"/>
        <pt x="210" y="714" on="1"/>
        <pt x="270" y="639" on="1"/>
        <pt x="330" y="714" on="1"/>
        <pt x="426" y="714" on="1"/>
        <pt x="314" y="579" on="1"/>
        <pt x="226" y="579" on="1"/>
      </contour>
    </TTGlyph>
    <TTGlyph name="ccedilla" xMin="120" yMin="-200" xMax="419" yMax="500">
      <contour>
        <pt x="311" y="-200" on="1"/>
        <pt x="226" y="-200" on="1"/>
        <pt x="226" y="-136" on="1"/>
        <pt x="293" y="-136" on="1"/>
        <pt x="326" y="-136" on="0"/>
        <pt x="326" y="-105" on="1"/>
        <pt x="326" y="-88" on="0"/>
        <pt x="309" y="-76" on="0"/>
        <pt x="291" y="-76" on="1"/>
        <pt x="242" y="-76" on="1"/>
        <pt x="242" y="3" on="1"/>
        <pt x="180" y="12" on="0"/>
        <pt x="120" y="87" on="0"/>
        <pt x="120" y="160" on="1"/>
        <pt x="120" y="340" on="1"/>
        <pt x="120" y="424" on="0"/>
        <pt x="203" y="500" on="0"/>
        <pt x="290" y="500" on="1"/>
        <pt x="419" y="500" on="1"/>
        <pt x="419" y="425" on="1"/>
        <pt x="280" y="425" on="1"/>
        <pt x="205" y="425" on="0"/>
        <pt x="205" y="360" on="1"/>
        <pt x="205" y="140" on="1"/>
        <pt x="205" y="75" on="0"/>
        <pt x="280" y="75" on="1"/>
        <pt x="419" y="75" on="1"/>
        <pt x="419" y="0" on="1"/>
        <pt x="312" y="0" on="1"/>
        <pt x="312" y="-21" on="1"/>
        <pt x="358" y="-21" on="0"/>
        <pt x="399" y="-56" on="0"/>
        <pt x="399" y="-136" on="0"/>
        <pt x="382" y="-177" on="0"/>
        <pt x="368" y="-186" on="1"/>
        <pt x="343" y="-200" on="0"/>
      </contour>
    </TTGlyph>
    <TTGlyph name="cedilla" xMin="183" yMin="-200" xMax="356" yMax="50">
      <contour>
        <pt x="268" y="-200" on="1"/>
        <pt x="183" y="-200" on="1"/>
        <pt x="183" y="-136" on="1"/>
        <pt x="250" y="-136" on="1"/>
        <pt x="283" y="-136" on="0"/>
        <pt x="283" y="-105" on="1"/>
        <pt x="283" y="-88" on="0"/>
        <pt x="266" y="-76" on="0"/>
        <pt x="248" y="-76" on="1"/>
        <pt x="199" y="-76" on="1"/>
        <pt x="199" y="50" on="1"/>
        <pt x="269" y="50" on="1"/>
        <pt x="269" y="-21" on="1"/>
        <pt x="315" y="-21" on="0"/>
        <pt x="356" y="-56" on="0"/>
        <pt x="356" y="-136" on="0"/>
        <pt x="339" y="-177" on="0"/>
        <pt x="324" y="-186" on="1"/>
        <pt x="300" y="-200" on="0"/>
      </contour>
    </TTGlyph>
    <TTGlyph name="cent" xMin="120" yMin="-110" xMax="419" yMax="600">
      <contour>
        <pt x="340" y="-110" on="1"/>
        <pt x="260" y="-110" on="1"/>
        <pt x="260" y="0" on="1"/>
        <pt x="188" y="6" on="0"/>
        <pt x="120" y="81" on="0"/>
        <pt x="120" y="159" on="1"/>
        <pt x="120" y="339" on="1"/>
        <pt x="120" y="416" on="0"/>
        <pt x="188" y="491" on="0"/>
        <pt x="260" y="497" on="1"/>
        <pt x="260" y="600" on="1"/>
        <pt x="340" y="600" on="1"/>
        <pt x="340" y="499" on="1"/>
        <pt x="419" y="499" on="1"/>
        <pt x="419" y="424" on="1"/>
        <pt x="280" y="424" on="1"/>
        <pt x="205" y="424" on="0"/>
        <pt x="205" y="359" on="1"/>
        <pt x="205" y="139" on="1"/>
        <pt x="205" y="74" on="0"/>
        <pt x="280" y="74" on="1"/>
        <pt x="419" y="74" on="1"/>
        <pt x="419" y="-1" on="1"/>
        <pt x="340" y="-1" on="1"/>
      </contour>
    </TTGlyph>
    <TTGlyph name="circumflex" xMin="113" yMin="580" xMax="426" yMax="715">
      <contour>
        <pt x="426" y="580" on="1"/>
        <pt x="329" y="580" on="1"/>
        <pt x="269" y="655" on="1"/>
        <pt x="209" y="580" on="1"/>
        <pt x="113" y="580" on="1"/>
        <pt x="225" y="715" on="1"/>
        <pt x="313" y="715" on="1"/>
      </contour>
    </TTGlyph>
    <TTGlyph name="colon" xMin="220" yMin="0" xMax="320" yMax="500">
      <contour>
        <pt x="320" y="0" on="1"/>
        <pt x="220" y="0" on="1"/>
        <pt x="220" y="100" on="1"/>
        <pt x="320" y="100" on="1"/>
      </contour>
      <contour>
        <pt x="320" y="400" on="1"/>
        <pt x="220" y="400" on="1"/>
        <pt x="220" y="500" on="1"/>
        <pt x="320" y="500" on="1"/>
      </contour>
    </TTGlyph>
    <TTGlyph name="comma" xMin="200" yMin="-140" xMax="340" yMax="100">
      <contour>
        <pt x="240" y="100" on="1"/>
        <pt x="340" y="100" on="1"/>
        <pt x="340" y="0" on="1"/>
        <pt x="278" y="-140" on="1"/>
        <pt x="200" y="-140" on="1"/>
        <pt x="240" y="0" on="1"/>
      </contour>
    </TTGlyph>
    <TTGlyph name="copyright" xMin="25" yMin="0" xMax="515" yMax="700">
      <contour>
        <pt x="357" y="157" on="1"/>
        <pt x="283" y="157" on="1"/>
        <pt x="175" y="157" on="0"/>
        <pt x="175" y="251" on="1"/>
        <pt x="175" y="449" on="1"/>
        <pt x="175" y="543" on="0"/>
        <pt x="283" y="543" on="1"/>
        <pt x="358" y="543" on="1"/>
        <pt x="358" y="492" on="1"/>
        <pt x="278" y="492" on="1"/>
        <pt x="256" y="492" on="0"/>
        <pt x="232" y="468" on="0"/>
        <pt x="232" y="450" on="1"/>
        <pt x="232" y="250" on="1"/>
        <pt x="232" y="232" on="0"/>
        <pt x="256" y="208" on="0"/>
        <pt x="278" y="208" on="1"/>
        <pt x="357" y="208" on="1"/>
      </contour>
      <contour>
        <pt x="515" y="170" on="1"/>
        <pt x="515" y="86" on="0"/>
        <pt x="429" y="0" on="0"/>
        <pt x="352" y="0" on="1"/>
        <pt x="188" y="0" on="1"/>
        <pt x="111" y="0" on="0"/>
        <pt x="25" y="86" on="0"/>
        <pt x="25" y="170" on="1"/>
        <pt x="25" y="530" on="1"/>
        <pt x="25" y="614" on="0"/>
        <pt x="111" y="700" on="0"/>
        <pt x="188" y="700" on="1"/>
        <pt x="352" y="700" on="1"/>
        <pt x="429" y="700" on="0"/>
        <pt x="515" y="614" on="0"/>
        <pt x="515" y="530" on="1"/>
      </contour>
      <contour>
        <pt x="443" y="147" on="1"/>
        <pt x="443" y="552" on="1"/>
        <pt x="443" y="585" on="0"/>
        <pt x="394" y="636" on="0"/>
        <pt x="352" y="636" on="1"/>
        <pt x="188" y="636" on="1"/>
        <pt x="145" y="636" on="0"/>
        <pt x="97" y="585" on="0"/>
        <pt x="97" y="552" on="1"/>
        <pt x="97" y="147" on="1"/>
        <pt x="97" y="114" on="0"/>
        <pt x="145" y="63" on="0"/>
        <pt x="188" y="63" on="1"/>
        <pt x="352" y="63" on="1"/>
        <pt x="395" y="63" on="0"/>
        <pt x="443" y="114" on="0"/>
      </contour>
    </TTGlyph>
    <TTGlyph name="currency" xMin="14" yMin="46" xMax="526" yMax="558">
      <contour>
        <pt x="73" y="252" on="1"/>
        <pt x="73" y="350" on="1"/>
        <pt x="73" y="398" on="0"/>
        <pt x="85" y="429" on="1"/>
        <pt x="14" y="501" on="1"/>
        <pt x="71" y="558" on="1"/>
        <pt x="139" y="490" on="1"/>
        <pt x="176" y="510" on="0"/>
        <pt x="243" y="510" on="1"/>
        <pt x="296" y="510" on="1"/>
        <pt x="361" y="510" on="0"/>
        <pt x="400" y="489" on="1"/>
        <pt x="469" y="558" on="1"/>
        <pt x="526" y="501" on="1"/>
        <pt x="453" y="428" on="1"/>
        <pt x="466" y="398" on="0"/>
        <pt x="466" y="350" on="1"/>
        <pt x="466" y="252" on="1"/>
        <pt x="466" y="206" on="0"/>
        <pt x="454" y="175" on="1"/>
        <pt x="526" y="103" on="1"/>
        <pt x="469" y="46" on="1"/>
        <pt x="402" y="113" on="1"/>
        <pt x="362" y="92" on="0"/>
        <pt x="296" y="92" on="1"/>
        <pt x="243" y="92" on="1"/>
        <pt x="174" y="92" on="0"/>
        <pt x="138" y="113" on="1"/>
        <pt x="71" y="46" on="1"/>
        <pt x="14" y="103" on="1"/>
        <pt x="85" y="174" on="1"/>
        <pt x="73" y="206" on="0"/>
      </contour>
      <contour>
        <pt x="381" y="232" on="1"/>
        <pt x="381" y="370" on="1"/>
        <pt x="381" y="435" on="0"/>
        <pt x="306" y="435" on="1"/>
        <pt x="233" y="435" on="1"/>
        <pt x="158" y="435" on="0"/>
        <pt x="158" y="370" on="1"/>
        <pt x="158" y="232" on="1"/>
        <pt x="158" y="167" on="0"/>
        <pt x="233" y="167" on="1"/>
        <pt x="306" y="167" on="1"/>
        <pt x="381" y="167" on="0"/>
      </contour>
    </TTGlyph>
    <TTGlyph name="d" xMin="84" yMin="0" xMax="455" yMax="700">
      <contour>
        <pt x="455" y="0" on="1"/>
        <pt x="375" y="0" on="1"/>
        <pt x="375" y="23" on="1"/>
        <pt x="342" y="0" on="0"/>
        <pt x="295" y="0" on="1"/>
        <pt x="254" y="0" on="1"/>
        <pt x="166" y="0" on="0"/>
        <pt x="84" y="75" on="0"/>
        <pt x="84" y="160" on="1"/>
        <pt x="84" y="340" on="1"/>
        <pt x="84" y="424" on="0"/>
        <pt x="167" y="500" on="0"/>
        <pt x="254" y="500" on="1"/>
        <pt x="370" y="500" on="1"/>
        <pt x="370" y="700" on="1"/>
        <pt x="455" y="700" on="1"/>
      </contour>
      <contour>
        <pt x="305" y="75" on="1"/>
        <pt x="338" y="75" on="0"/>
        <pt x="370" y="110" on="0"/>
        <pt x="370" y="130" on="1"/>
        <pt x="370" y="425" on="1"/>
        <pt x="244" y="425" on="1"/>
        <pt x="169" y="425" on="0"/>
        <pt x="169" y="360" on="1"/>
        <pt x="169" y="140" on="1"/>
        <pt x="169" y="75" on="0"/>
        <pt x="244" y="75" on="1"/>
      </contour>
    </TTGlyph>
    <TTGlyph name="dagger" xMin="89" yMin="0" xMax="450" yMax="700">
      <contour>
        <pt x="310" y="0" on="1"/>
        <pt x="230" y="0" on="1"/>
        <pt x="230" y="425" on="1"/>
        <pt x="89" y="425" on="1"/>
        <pt x="89" y="500" on="1"/>
        <pt x="230" y="500" on="1"/>
        <pt x="230" y="700" on="1"/>
        <pt x="310" y="700" on="1"/>
        <pt x="310" y="500" on="1"/>
        <pt x="450" y="500" on="1"/>
        <pt x="450" y="425" on="1"/>
        <pt x="310" y="425" on="1"/>
      </contour>
    </TTGlyph>
    <TTGlyph name="daggerdbl" xMin="89" yMin="0" xMax="450" yMax="700">
      <contour>
        <pt x="310" y="0" on="1"/>
        <pt x="230" y="0" on="1"/>
        <pt x="230" y="210" on="1"/>
        <pt x="89" y="210" on="1"/>
        <pt x="89" y="285" on="1"/>
        <pt x="230" y="285" on="1"/>
        <pt x="230" y="425" on="1"/>
        <pt x="89" y="425" on="1"/>
        <pt x="89" y="500" on="1"/>
        <pt x="230" y="500" on="1"/>
        <pt x="230" y="700" on="1"/>
        <pt x="310" y="700" on="1"/>
        <pt x="310" y="500" on="1"/>
        <pt x="450" y="500" on="1"/>
        <pt x="450" y="425" on="1"/>
        <pt x="310" y="425" on="1"/>
        <pt x="310" y="285" on="1"/>
        <pt x="450" y="285" on="1"/>
        <pt x="450" y="210" on="1"/>
        <pt x="310" y="210" on="1"/>
      </contour>
    </TTGlyph>
    <TTGlyph name="degree" xMin="129" yMin="397" xMax="411" yMax="701">
      <contour>
        <pt x="411" y="516" on="1"/>
        <pt x="411" y="458" on="0"/>
        <pt x="339" y="397" on="0"/>
        <pt x="284" y="397" on="1"/>
        <pt x="256" y="397" on="1"/>
        <pt x="201" y="397" on="0"/>
        <pt x="129" y="458" on="0"/>
        <pt x="129" y="516" on="1"/>
        <pt x="129" y="582" on="1"/>
        <pt x="129" y="640" on="0"/>
        <pt x="200" y="701" on="0"/>
        <pt x="256" y="701" on="1"/>
        <pt x="284" y="701" on="1"/>
        <pt x="340" y="701" on="0"/>
        <pt x="411" y="640" on="0"/>
        <pt x="411" y="582" on="1"/>
      </contour>
      <contour>
        <pt x="342" y="513" on="1"/>
        <pt x="342" y="585" on="1"/>
        <pt x="342" y="607" on="0"/>
        <pt x="309" y="639" on="0"/>
        <pt x="284" y="639" on="1"/>
        <pt x="256" y="639" on="1"/>
        <pt x="231" y="639" on="0"/>
        <pt x="198" y="607" on="0"/>
        <pt x="198" y="585" on="1"/>
        <pt x="198" y="513" on="1"/>
        <pt x="198" y="491" on="0"/>
        <pt x="231" y="459" on="0"/>
        <pt x="256" y="459" on="1"/>
        <pt x="284" y="459" on="1"/>
        <pt x="309" y="459" on="0"/>
        <pt x="342" y="491" on="0"/>
      </contour>
    </TTGlyph>
    <TTGlyph name="dieresis" xMin="127" yMin="595" xMax="412" yMax="675">
      <contour>
        <pt x="412" y="595" on="1"/>
        <pt x="327" y="595" on="1"/>
        <pt x="327" y="675" on="1"/>
        <pt x="412" y="675" on="1"/>
      </contour>
      <contour>
        <pt x="212" y="595" on="1"/>
        <pt x="127" y="595" on="1"/>
        <pt x="127" y="675" on="1"/>
        <pt x="212" y="675" on="1"/>
      </contour>
    </TTGlyph>
    <TTGlyph name="divide" xMin="80" yMin="65" xMax="460" yMax="560">
      <contour>
        <pt x="460" y="275" on="1"/>
        <pt x="80" y="275" on="1"/>
        <pt x="80" y="350" on="1"/>
        <pt x="460" y="350" on="1"/>
      </contour>
      <contour>
        <pt x="320" y="65" on="1"/>
        <pt x="220" y="65" on="1"/>
        <pt x="220" y="165" on="1"/>
        <pt x="320" y="165" on="1"/>
      </contour>
      <contour>
        <pt x="320" y="460" on="1"/>
        <pt x="220" y="460" on="1"/>
        <pt x="220" y="560" on="1"/>
        <pt x="320" y="560" on="1"/>
      </contour>
    </TTGlyph>
    <TTGlyph name="dollar" xMin="105" yMin="-110" xMax="434" yMax="780">
      <contour>
        <pt x="312" y="-110" on="1"/>
        <pt x="227" y="-110" on="1"/>
        <pt x="227" y="0" on="1"/>
        <pt x="122" y="0" on="1"/>
        <pt x="122" y="76" on="1"/>
        <pt x="264" y="76" on="1"/>
        <pt x="301" y="76" on="0"/>
        <pt x="347" y="120" on="0"/>
        <pt x="347" y="151" on="1"/>
        <pt x="347" y="235" on="1"/>
        <pt x="347" y="265" on="0"/>
        <pt x="316" y="302" on="0"/>
        <pt x="285" y="302" on="1"/>
        <pt x="265" y="302" on="1"/>
        <pt x="191" y="302" on="0"/>
        <pt x="105" y="389" on="0"/>
        <pt x="105" y="472" on="1"/>
        <pt x="105" y="500" on="1"/>
        <pt x="105" y="638" on="0"/>
        <pt x="227" y="664" on="1"/>
        <pt x="227" y="780" on="1"/>
        <pt x="312" y="780" on="1"/>
        <pt x="312" y="670" on="1"/>
        <pt x="418" y="670" on="1"/>
        <pt x="418" y="594" on="1"/>
        <pt x="275" y="594" on="1"/>
        <pt x="238" y="594" on="0"/>
        <pt x="192" y="550" on="0"/>
        <pt x="192" y="519" on="1"/>
        <pt x="192" y="453" on="1"/>
        <pt x="192" y="422" on="0"/>
        <pt x="232" y="381" on="0"/>
        <pt x="264" y="381" on="1"/>
        <pt x="284" y="381" on="1"/>
        <pt x="355" y="381" on="0"/>
        <pt x="434" y="299" on="0"/>
        <pt x="434" y="216" on="1"/>
        <pt x="434" y="170" on="1"/>
        <pt x="434" y="32" on="0"/>
        <pt x="312" y="5" on="1"/>
      </contour>
    </TTGlyph>
    <TTGlyph name="dotaccent" xMin="227" yMin="615" xMax="312" yMax="700">
      <contour>
        <pt x="312" y="615" on="1"/>
        <pt x="227" y="615" on="1"/>
        <pt x="227" y="700" on="1"/>
        <pt x="312" y="700" on="1"/>
      </contour>
    </TTGlyph>
    <TTGlyph name="dotlessi" xMin="80" yMin="0" xMax="460" yMax="500">
      <contour>
        <pt x="460" y="0" on="1"/>
        <pt x="227" y="0" on="1"/>
        <pt x="227" y="425" on="1"/>
        <pt x="80" y="425" on="1"/>
        <pt x="80" y="500" on="1"/>
        <pt x="312" y="500" on="1"/>
        <pt x="312" y="75" on="1"/>
        <pt x="460" y="75" on="1"/>
      </contour>
    </TTGlyph>
    <TTGlyph name="dotmath" xMin="220" yMin="260" xMax="320" yMax="360">
      <contour>
        <pt x="320" y="260" on="1"/>
        <pt x="220" y="260" on="1"/>
        <pt x="220" y="360" on="1"/>
        <pt x="320" y="360" on="1"/>
      </contour>
    </TTGlyph>
    <TTGlyph name="e" xMin="94" yMin="0" xMax="445" yMax="500">
      <contour>
        <pt x="413" y="0" on="1"/>
        <pt x="264" y="0" on="1"/>
        <pt x="176" y="0" on="0"/>
        <pt x="94" y="75" on="0"/>
        <pt x="94" y="160" on="1"/>
        <pt x="94" y="340" on="1"/>
        <pt x="94" y="426" on="0"/>
        <pt x="168" y="500" on="0"/>
        <pt x="254" y="500" on="1"/>
        <pt x="301" y="500" on="1"/>
        <pt x="445" y="500" on="0"/>
        <pt x="445" y="345" on="1"/>
        <pt x="445" y="215" on="1"/>
        <pt x="179" y="215" on="1"/>
        <pt x="179" y="140" on="1"/>
        <pt x="179" y="75" on="0"/>
        <pt x="254" y="75" on="1"/>
        <pt x="413" y="75" on="1"/>
      </contour>
      <contour>
        <pt x="179" y="360" on="1"/>
        <pt x="179" y="290" on="1"/>
        <pt x="362" y="290" on="1"/>
        <pt x="362" y="365" on="1"/>
        <pt x="362" y="391" on="0"/>
        <pt x="328" y="425" on="0"/>
        <pt x="302" y="425" on="1"/>
        <pt x="244" y="425" on="1"/>
        <pt x="208" y="425" on="0"/>
        <pt x="179" y="392" on="0"/>
      </contour>
    </TTGlyph>
    <TTGlyph name="eacute" xMin="94" yMin="0" xMax="445" yMax="715">
      <contour>
        <pt x="413" y="0" on="1"/>
        <pt x="264" y="0" on="1"/>
        <pt x="176" y="0" on="0"/>
        <pt x="94" y="75" on="0"/>
        <pt x="94" y="160" on="1"/>
        <pt x="94" y="340" on="1"/>
        <pt x="94" y="426" on="0"/>
        <pt x="168" y="500" on="0"/>
        <pt x="254" y="500" on="1"/>
        <pt x="301" y="500" on="1"/>
        <pt x="445" y="500" on="0"/>
        <pt x="445" y="345" on="1"/>
        <pt x="445" y="215" on="1"/>
        <pt x="179" y="215" on="1"/>
        <pt x="179" y="140" on="1"/>
        <pt x="179" y="75" on="0"/>
        <pt x="254" y="75" on="1"/>
        <pt x="413" y="75" on="1"/>
      </contour>
      <contour>
        <pt x="179" y="360" on="1"/>
        <pt x="179" y="290" on="1"/>
        <pt x="362" y="290" on="1"/>
        <pt x="362" y="365" on="1"/>
        <pt x="362" y="391" on="0"/>
        <pt x="328" y="425" on="0"/>
        <pt x="302" y="425" on="1"/>
        <pt x="244" y="425" on="1"/>
        <pt x="208" y="425" on="0"/>
        <pt x="179" y="392" on="0"/>
      </contour>
      <contour>
        <pt x="304" y="580" on="1"/>
        <pt x="218" y="580" on="1"/>
        <pt x="322" y="715" on="1"/>
        <pt x="426" y="715" on="1"/>
      </contour>
    </TTGlyph>
    <TTGlyph name="ecircumflex" xMin="94" yMin="0" xMax="445" yMax="715">
      <contour>
        <pt x="413" y="0" on="1"/>
        <pt x="264" y="0" on="1"/>
        <pt x="176" y="0" on="0"/>
        <pt x="94" y="75" on="0"/>
        <pt x="94" y="160" on="1"/>
        <pt x="94" y="340" on="1"/>
        <pt x="94" y="426" on="0"/>
        <pt x="168" y="500" on="0"/>
        <pt x="254" y="500" on="1"/>
        <pt x="301" y="500" on="1"/>
        <pt x="445" y="500" on="0"/>
        <pt x="445" y="345" on="1"/>
        <pt x="445" y="215" on="1"/>
        <pt x="179" y="215" on="1"/>
        <pt x="179" y="140" on="1"/>
        <pt x="179" y="75" on="0"/>
        <pt x="254" y="75" on="1"/>
        <pt x="413" y="75" on="1"/>
      </contour>
      <contour>
        <pt x="179" y="360" on="1"/>
        <pt x="179" y="290" on="1"/>
        <pt x="362" y="290" on="1"/>
        <pt x="362" y="365" on="1"/>
        <pt x="362" y="391" on="0"/>
        <pt x="328" y="425" on="0"/>
        <pt x="302" y="425" on="1"/>
        <pt x="244" y="425" on="1"/>
        <pt x="208" y="425" on="0"/>
        <pt x="179" y="392" on="0"/>
      </contour>
      <contour>
        <pt x="428" y="580" on="1"/>
        <pt x="331" y="580" on="1"/>
        <pt x="271" y="655" on="1"/>
        <pt x="211" y="580" on="1"/>
        <pt x="115" y="580" on="1"/>
        <pt x="227" y="715" on="1"/>
        <pt x="315" y="715" on="1"/>
      </contour>
    </TTGlyph>
    <TTGlyph name="edieresis" xMin="94" yMin="0" xMax="445" yMax="675">
      <contour>
        <pt x="413" y="0" on="1"/>
        <pt x="264" y="0" on="1"/>
        <pt x="176" y="0" on="0"/>
        <pt x="94" y="75" on="0"/>
        <pt x="94" y="160" on="1"/>
        <pt x="94" y="340" on="1"/>
        <pt x="94" y="426" on="0"/>
        <pt x="168" y="500" on="0"/>
        <pt x="254" y="500" on="1"/>
        <pt x="301" y="500" on="1"/>
        <pt x="445" y="500" on="0"/>
        <pt x="445" y="345" on="1"/>
        <pt x="445" y="215" on="1"/>
        <pt x="179" y="215" on="1"/>
        <pt x="179" y="140" on="1"/>
        <pt x="179" y="75" on="0"/>
        <pt x="254" y="75" on="1"/>
        <pt x="413" y="75" on="1"/>
      </contour>
      <contour>
        <pt x="179" y="360" on="1"/>
        <pt x="179" y="290" on="1"/>
        <pt x="362" y="290" on="1"/>
        <pt x="362" y="365" on="1"/>
        <pt x="362" y="391" on="0"/>
        <pt x="328" y="425" on="0"/>
        <pt x="302" y="425" on="1"/>
        <pt x="244" y="425" on="1"/>
        <pt x="208" y="425" on="0"/>
        <pt x="179" y="392" on="0"/>
      </contour>
      <contour>
        <pt x="418" y="595" on="1"/>
        <pt x="333" y="595" on="1"/>
        <pt x="333" y="675" on="1"/>
        <pt x="418" y="675" on="1"/>
      </contour>
      <contour>
        <pt x="218" y="595" on="1"/>
        <pt x="133" y="595" on="1"/>
        <pt x="133" y="675" on="1"/>
        <pt x="218" y="675" on="1"/>
      </contour>
    </TTGlyph>
    <TTGlyph name="egrave" xMin="94" yMin="0" xMax="445" yMax="715">
      <contour>
        <pt x="413" y="0" on="1"/>
        <pt x="264" y="0" on="1"/>
        <pt x="176" y="0" on="0"/>
        <pt x="94" y="75" on="0"/>
        <pt x="94" y="160" on="1"/>
        <pt x="94" y="340" on="1"/>
        <pt x="94" y="426" on="0"/>
        <pt x="168" y="500" on="0"/>
        <pt x="254" y="500" on="1"/>
        <pt x="301" y="500" on="1"/>
        <pt x="445" y="500" on="0"/>
        <pt x="445" y="345" on="1"/>
        <pt x="445" y="215" on="1"/>
        <pt x="179" y="215" on="1"/>
        <pt x="179" y="140" on="1"/>
        <pt x="179" y="75" on="0"/>
        <pt x="254" y="75" on="1"/>
        <pt x="413" y="75" on="1"/>
      </contour>
      <contour>
        <pt x="179" y="360" on="1"/>
        <pt x="179" y="290" on="1"/>
        <pt x="362" y="290" on="1"/>
        <pt x="362" y="365" on="1"/>
        <pt x="362" y="391" on="0"/>
        <pt x="328" y="425" on="0"/>
        <pt x="302" y="425" on="1"/>
        <pt x="244" y="425" on="1"/>
        <pt x="208" y="425" on="0"/>
        <pt x="179" y="392" on="0"/>
      </contour>
      <contour>
        <pt x="365" y="580" on="1"/>
        <pt x="279" y="580" on="1"/>
        <pt x="157" y="715" on="1"/>
        <pt x="261" y="715" on="1"/>
      </contour>
    </TTGlyph>
    <TTGlyph name="eight" xMin="86" yMin="0" xMax="454" yMax="700">
      <contour>
        <pt x="454" y="158" on="1"/>
        <pt x="454" y="75" on="0"/>
        <pt x="374" y="0" on="0"/>
        <pt x="284" y="0" on="1"/>
        <pt x="256" y="0" on="1"/>
        <pt x="166" y="0" on="0"/>
        <pt x="86" y="75" on="0"/>
        <pt x="86" y="158" on="1"/>
        <pt x="86" y="242" on="1"/>
        <pt x="86" y="329" on="0"/>
        <pt x="151" y="365" on="1"/>
        <pt x="98" y="402" on="0"/>
        <pt x="98" y="481" on="1"/>
        <pt x="98" y="544" on="1"/>
        <pt x="98" y="700" on="0"/>
        <pt x="260" y="700" on="1"/>
        <pt x="280" y="700" on="1"/>
        <pt x="442" y="700" on="0"/>
        <pt x="442" y="544" on="1"/>
        <pt x="442" y="481" on="1"/>
        <pt x="442" y="402" on="0"/>
        <pt x="389" y="365" on="1"/>
        <pt x="454" y="329" on="0"/>
        <pt x="454" y="242" on="1"/>
      </contour>
      <contour>
        <pt x="367" y="251" on="1"/>
        <pt x="367" y="284" on="0"/>
        <pt x="327" y="323" on="0"/>
        <pt x="294" y="323" on="1"/>
        <pt x="246" y="323" on="1"/>
        <pt x="213" y="323" on="0"/>
        <pt x="173" y="284" on="0"/>
        <pt x="173" y="251" on="1"/>
        <pt x="173" y="148" on="1"/>
        <pt x="173" y="75" on="0"/>
        <pt x="239" y="75" on="1"/>
        <pt x="293" y="75" on="1"/>
        <pt x="331" y="75" on="0"/>
        <pt x="367" y="110" on="0"/>
        <pt x="367" y="148" on="1"/>
      </contour>
      <contour>
        <pt x="284" y="625" on="1"/>
        <pt x="248" y="625" on="1"/>
        <pt x="214" y="624" on="0"/>
        <pt x="185" y="589" on="0"/>
        <pt x="185" y="553" on="1"/>
        <pt x="185" y="471" on="1"/>
        <pt x="185" y="439" on="0"/>
        <pt x="222" y="400" on="0"/>
        <pt x="250" y="398" on="1"/>
        <pt x="284" y="398" on="1"/>
        <pt x="315" y="398" on="0"/>
        <pt x="355" y="438" on="0"/>
        <pt x="355" y="471" on="1"/>
        <pt x="355" y="553" on="1"/>
        <pt x="355" y="591" on="0"/>
        <pt x="322" y="625" on="0"/>
      </contour>
    </TTGlyph>
    <TTGlyph name="ellipsis" xMin="40" yMin="0" xMax="500" yMax="100">
      <contour>
        <pt x="140" y="0" on="1"/>
        <pt x="40" y="0" on="1"/>
        <pt x="40" y="100" on="1"/>
        <pt x="140" y="100" on="1"/>
      </contour>
      <contour>
        <pt x="320" y="0" on="1"/>
        <pt x="220" y="0" on="1"/>
        <pt x="220" y="100" on="1"/>
        <pt x="320" y="100" on="1"/>
      </contour>
      <contour>
        <pt x="500" y="0" on="1"/>
        <pt x="400" y="0" on="1"/>
        <pt x="400" y="100" on="1"/>
        <pt x="500" y="100" on="1"/>
      </contour>
    </TTGlyph>
    <TTGlyph name="emdash" xMin="32" yMin="275" xMax="507" yMax="350">
      <contour>
        <pt x="507" y="275" on="1"/>
        <pt x="32" y="275" on="1"/>
        <pt x="32" y="350" on="1"/>
        <pt x="507" y="350" on="1"/>
      </contour>
    </TTGlyph>
    <TTGlyph name="endash" xMin="80" yMin="275" xMax="460" yMax="350">
      <contour>
        <pt x="460" y="275" on="1"/>
        <pt x="80" y="275" on="1"/>
        <pt x="80" y="350" on="1"/>
        <pt x="460" y="350" on="1"/>
      </contour>
    </TTGlyph>
    <TTGlyph name="equal" xMin="80" yMin="175" xMax="460" yMax="450">
      <contour>
        <pt x="460" y="175" on="1"/>
        <pt x="80" y="175" on="1"/>
        <pt x="80" y="250" on="1"/>
        <pt x="460" y="250" on="1"/>
      </contour>
      <contour>
        <pt x="460" y="375" on="1"/>
        <pt x="80" y="375" on="1"/>
        <pt x="80" y="450" on="1"/>
        <pt x="460" y="450" on="1"/>
      </contour>
    </TTGlyph>
    <TTGlyph name="eth" xMin="94" yMin="0" xMax="445" yMax="750">
      <contour>
        <pt x="147" y="626" on="1"/>
        <pt x="147" y="700" on="1"/>
        <pt x="266" y="700" on="1"/>
        <pt x="296" y="750" on="1"/>
        <pt x="378" y="750" on="1"/>
        <pt x="342" y="690" on="1"/>
        <pt x="445" y="658" on="0"/>
        <pt x="445" y="530" on="1"/>
        <pt x="445" y="170" on="1"/>
        <pt x="445" y="88" on="0"/>
        <pt x="355" y="0" on="0"/>
        <pt x="287" y="0" on="1"/>
        <pt x="252" y="0" on="1"/>
        <pt x="184" y="0" on="0"/>
        <pt x="94" y="88" on="0"/>
        <pt x="94" y="170" on="1"/>
        <pt x="94" y="300" on="1"/>
        <pt x="94" y="384" on="0"/>
        <pt x="176" y="460" on="0"/>
        <pt x="262" y="460" on="1"/>
        <pt x="360" y="460" on="1"/>
        <pt x="360" y="549" on="1"/>
        <pt x="360" y="574" on="0"/>
        <pt x="329" y="615" on="0"/>
        <pt x="303" y="622" on="1"/>
        <pt x="270" y="566" on="1"/>
        <pt x="188" y="566" on="1"/>
        <pt x="223" y="626" on="1"/>
      </contour>
      <contour>
        <pt x="360" y="385" on="1"/>
        <pt x="252" y="385" on="1"/>
        <pt x="179" y="385" on="0"/>
        <pt x="179" y="319" on="1"/>
        <pt x="179" y="151" on="1"/>
        <pt x="179" y="119" on="0"/>
        <pt x="221" y="75" on="0"/>
        <pt x="257" y="75" on="1"/>
        <pt x="282" y="75" on="1"/>
        <pt x="318" y="75" on="0"/>
        <pt x="360" y="119" on="0"/>
        <pt x="360" y="151" on="1"/>
      </contour>
    </TTGlyph>
    <TTGlyph name="exclam" xMin="220" yMin="0" xMax="320" yMax="700">
      <contour>
        <pt x="320" y="0" on="1"/>
        <pt x="220" y="0" on="1"/>
        <pt x="220" y="100" on="1"/>
        <pt x="320" y="100" on="1"/>
      </contour>
      <contour>
        <pt x="312" y="208" on="1"/>
        <pt x="227" y="208" on="1"/>
        <pt x="227" y="700" on="1"/>
        <pt x="312" y="700" on="1"/>
      </contour>
    </TTGlyph>
    <TTGlyph name="exclamdown" xMin="220" yMin="-200" xMax="320" yMax="500">
      <contour>
        <pt x="220" y="500" on="1"/>
        <pt x="320" y="500" on="1"/>
        <pt x="320" y="400" on="1"/>
        <pt x="220" y="400" on="1"/>
      </contour>
      <contour>
        <pt x="228" y="292" on="1"/>
        <pt x="313" y="292" on="1"/>
        <pt x="313" y="-200" on="1"/>
        <pt x="228" y="-200" on="1"/>
      </contour>
    </TTGlyph>
    <TTGlyph name="f" xMin="99" yMin="0" xMax="440" yMax="700">
      <contour>
        <pt x="440" y="625" on="1"/>
        <pt x="304" y="625" on="1"/>
        <pt x="288" y="625" on="0"/>
        <pt x="269" y="608" on="0"/>
        <pt x="269" y="595" on="1"/>
        <pt x="269" y="500" on="1"/>
        <pt x="430" y="500" on="1"/>
        <pt x="430" y="425" on="1"/>
        <pt x="269" y="425" on="1"/>
        <pt x="269" y="75" on="1"/>
        <pt x="390" y="75" on="1"/>
        <pt x="390" y="0" on="1"/>
        <pt x="99" y="0" on="1"/>
        <pt x="99" y="75" on="1"/>
        <pt x="184" y="75" on="1"/>
        <pt x="184" y="425" on="1"/>
        <pt x="99" y="425" on="1"/>
        <pt x="99" y="500" on="1"/>
        <pt x="184" y="500" on="1"/>
        <pt x="184" y="590" on="1"/>
        <pt x="184" y="641" on="0"/>
        <pt x="242" y="700" on="0"/>
        <pt x="288" y="700" on="1"/>
        <pt x="440" y="700" on="1"/>
      </contour>
    </TTGlyph>
    <TTGlyph name="fi" xMin="220" yMin="260" xMax="320" yMax="360">
      <contour>
        <pt x="320" y="260" on="1"/>
        <pt x="220" y="260" on="1"/>
        <pt x="220" y="360" on="1"/>
        <pt x="320" y="360" on="1"/>
      </contour>
    </TTGlyph>
    <TTGlyph name="five" xMin="119" yMin="0" xMax="420" yMax="700">
      <contour>
        <pt x="420" y="158" on="1"/>
        <pt x="420" y="75" on="0"/>
        <pt x="340" y="0" on="0"/>
        <pt x="250" y="0" on="1"/>
        <pt x="119" y="0" on="1"/>
        <pt x="119" y="75" on="1"/>
        <pt x="259" y="75" on="1"/>
        <pt x="297" y="75" on="0"/>
        <pt x="333" y="110" on="0"/>
        <pt x="333" y="148" on="1"/>
        <pt x="333" y="275" on="1"/>
        <pt x="333" y="308" on="0"/>
        <pt x="293" y="347" on="0"/>
        <pt x="260" y="347" on="1"/>
        <pt x="129" y="347" on="1"/>
        <pt x="129" y="700" on="1"/>
        <pt x="405" y="700" on="1"/>
        <pt x="405" y="625" on="1"/>
        <pt x="214" y="625" on="1"/>
        <pt x="214" y="422" on="1"/>
        <pt x="255" y="422" on="1"/>
        <pt x="332" y="422" on="0"/>
        <pt x="420" y="346" on="0"/>
        <pt x="420" y="266" on="1"/>
      </contour>
    </TTGlyph>
    <TTGlyph name="fl" xMin="220" yMin="260" xMax="320" yMax="360">
      <contour>
        <pt x="320" y="260" on="1"/>
        <pt x="220" y="260" on="1"/>
        <pt x="220" y="360" on="1"/>
        <pt x="320" y="360" on="1"/>
      </contour>
    </TTGlyph>
    <TTGlyph name="florin" xMin="79" yMin="-170" xMax="481" yMax="700">
      <contour>
        <pt x="481" y="625" on="1"/>
        <pt x="345" y="625" on="1"/>
        <pt x="329" y="625" on="0"/>
        <pt x="310" y="608" on="0"/>
        <pt x="310" y="595" on="1"/>
        <pt x="310" y="500" on="1"/>
        <pt x="471" y="500" on="1"/>
        <pt x="471" y="425" on="1"/>
        <pt x="310" y="425" on="1"/>
        <pt x="310" y="-60" on="1"/>
        <pt x="310" y="-111" on="0"/>
        <pt x="252" y="-170" on="0"/>
        <pt x="206" y="-170" on="1"/>
        <pt x="79" y="-170" on="1"/>
        <pt x="79" y="-95" on="1"/>
        <pt x="190" y="-95" on="1"/>
        <pt x="206" y="-95" on="0"/>
        <pt x="225" y="-78" on="0"/>
        <pt x="225" y="-65" on="1"/>
        <pt x="225" y="425" on="1"/>
        <pt x="140" y="425" on="1"/>
        <pt x="140" y="500" on="1"/>
        <pt x="225" y="500" on="1"/>
        <pt x="225" y="590" on="1"/>
        <pt x="225" y="641" on="0"/>
        <pt x="283" y="700" on="0"/>
        <pt x="329" y="700" on="1"/>
        <pt x="481" y="700" on="1"/>
      </contour>
    </TTGlyph>
    <TTGlyph name="four" xMin="87" yMin="0" xMax="453" yMax="700">
      <contour>
        <pt x="453" y="156" on="1"/>
        <pt x="378" y="156" on="1"/>
        <pt x="378" y="0" on="1"/>
        <pt x="293" y="0" on="1"/>
        <pt x="293" y="156" on="1"/>
        <pt x="87" y="156" on="1"/>
        <pt x="87" y="242" on="1"/>
        <pt x="194" y="700" on="1"/>
        <pt x="275" y="700" on="1"/>
        <pt x="173" y="229" on="1"/>
        <pt x="293" y="229" on="1"/>
        <pt x="293" y="457" on="1"/>
        <pt x="378" y="457" on="1"/>
        <pt x="378" y="229" on="1"/>
        <pt x="453" y="229" on="1"/>
      </contour>
    </TTGlyph>
    <TTGlyph name="fraction" xMin="105" yMin="-110" xMax="435" yMax="810">
      <contour>
        <pt x="435" y="810" on="1"/>
        <pt x="179" y="-110" on="1"/>
        <pt x="105" y="-110" on="1"/>
        <pt x="361" y="810" on="1"/>
      </contour>
    </TTGlyph>
    <TTGlyph name="g" xMin="72" yMin="-170" xMax="467" yMax="500">
      <contour>
        <pt x="467" y="-35" on="1"/>
        <pt x="467" y="-170" on="0"/>
        <pt x="300" y="-170" on="1"/>
        <pt x="92" y="-170" on="1"/>
        <pt x="92" y="-95" on="1"/>
        <pt x="310" y="-95" on="1"/>
        <pt x="346" y="-95" on="0"/>
        <pt x="382" y="-67" on="0"/>
        <pt x="382" y="-45" on="1"/>
        <pt x="382" y="-13" on="1"/>
        <pt x="382" y="37" on="0"/>
        <pt x="310" y="37" on="1"/>
        <pt x="137" y="37" on="1"/>
        <pt x="137" y="175" on="1"/>
        <pt x="72" y="210" on="0"/>
        <pt x="72" y="315" on="1"/>
        <pt x="72" y="340" on="1"/>
        <pt x="72" y="424" on="0"/>
        <pt x="155" y="500" on="0"/>
        <pt x="242" y="500" on="1"/>
        <pt x="452" y="500" on="1"/>
        <pt x="452" y="315" on="1"/>
        <pt x="452" y="240" on="0"/>
        <pt x="370" y="155" on="0"/>
        <pt x="302" y="155" on="1"/>
        <pt x="222" y="155" on="1"/>
        <pt x="222" y="112" on="1"/>
        <pt x="300" y="112" on="1"/>
        <pt x="467" y="112" on="0"/>
        <pt x="467" y="-23" on="1"/>
      </contour>
      <contour>
        <pt x="302" y="230" on="1"/>
        <pt x="333" y="230" on="0"/>
        <pt x="365" y="270" on="0"/>
        <pt x="367" y="292" on="1"/>
        <pt x="367" y="425" on="1"/>
        <pt x="232" y="425" on="1"/>
        <pt x="157" y="425" on="0"/>
        <pt x="157" y="360" on="1"/>
        <pt x="157" y="295" on="1"/>
        <pt x="157" y="230" on="0"/>
        <pt x="232" y="230" on="1"/>
      </contour>
    </TTGlyph>
    <TTGlyph name="germandbls" xMin="78" yMin="0" xMax="466" yMax="700">
      <contour>
        <pt x="163" y="0" on="1"/>
        <pt x="78" y="0" on="1"/>
        <pt x="78" y="560" on="1"/>
        <pt x="78" y="630" on="0"/>
        <pt x="164" y="700" on="0"/>
        <pt x="228" y="700" on="1"/>
        <pt x="267" y="700" on="1"/>
        <pt x="355" y="700" on="0"/>
        <pt x="437" y="625" on="0"/>
        <pt x="437" y="540" on="1"/>
        <pt x="437" y="415" on="1"/>
        <pt x="359" y="415" on="1"/>
        <pt x="329" y="415" on="0"/>
        <pt x="304" y="393" on="0"/>
        <pt x="304" y="370" on="1"/>
        <pt x="304" y="355" on="1"/>
        <pt x="304" y="310" on="0"/>
        <pt x="347" y="310" on="1"/>
        <pt x="402" y="310" on="0"/>
        <pt x="466" y="246" on="0"/>
        <pt x="466" y="190" on="1"/>
        <pt x="466" y="125" on="1"/>
        <pt x="466" y="69" on="0"/>
        <pt x="396" y="0" on="0"/>
        <pt x="328" y="0" on="1"/>
        <pt x="216" y="0" on="1"/>
        <pt x="216" y="75" on="1"/>
        <pt x="334" y="75" on="1"/>
        <pt x="381" y="75" on="0"/>
        <pt x="381" y="120" on="1"/>
        <pt x="381" y="190" on="1"/>
        <pt x="381" y="235" on="0"/>
        <pt x="284" y="235" on="0"/>
        <pt x="219" y="301" on="0"/>
        <pt x="219" y="356" on="1"/>
        <pt x="219" y="366" on="1"/>
        <pt x="219" y="430" on="0"/>
        <pt x="287" y="483" on="0"/>
        <pt x="352" y="486" on="1"/>
        <pt x="352" y="560" on="1"/>
        <pt x="352" y="625" on="0"/>
        <pt x="277" y="625" on="1"/>
        <pt x="223" y="625" on="1"/>
        <pt x="190" y="625" on="0"/>
        <pt x="163" y="591" on="0"/>
        <pt x="163" y="570" on="1"/>
      </contour>
    </TTGlyph>
    <TTGlyph name="grave" xMin="163" yMin="580" xMax="371" yMax="715">
      <contour>
        <pt x="371" y="580" on="1"/>
        <pt x="285" y="580" on="1"/>
        <pt x="163" y="715" on="1"/>
        <pt x="267" y="715" on="1"/>
      </contour>
    </TTGlyph>
    <TTGlyph name="greater" xMin="80" yMin="105" xMax="460" yMax="564">
      <contour>
        <pt x="460" y="280" on="1"/>
        <pt x="80" y="105" on="1"/>
        <pt x="80" y="199" on="1"/>
        <pt x="396" y="336" on="1"/>
        <pt x="80" y="472" on="1"/>
        <pt x="80" y="564" on="1"/>
        <pt x="460" y="385" on="1"/>
      </contour>
    </TTGlyph>
    <TTGlyph name="greaterequal" xMin="80" yMin="0" xMax="460" yMax="564">
      <contour>
        <pt x="460" y="280" on="1"/>
        <pt x="80" y="125" on="1"/>
        <pt x="80" y="219" on="1"/>
        <pt x="388" y="336" on="1"/>
        <pt x="80" y="472" on="1"/>
        <pt x="80" y="564" on="1"/>
        <pt x="460" y="385" on="1"/>
      </contour>
      <contour>
        <pt x="460" y="0" on="1"/>
        <pt x="80" y="0" on="1"/>
        <pt x="80" y="75" on="1"/>
        <pt x="460" y="75" on="1"/>
      </contour>
    </TTGlyph>
    <TTGlyph name="guillemotleft" xMin="112" yMin="92" xMax="427" yMax="506">
      <contour>
        <pt x="267" y="92" on="1"/>
        <pt x="201" y="92" on="1"/>
        <pt x="112" y="299" on="1"/>
        <pt x="201" y="506" on="1"/>
        <pt x="267" y="506" on="1"/>
        <pt x="204" y="299" on="1"/>
      </contour>
      <contour>
        <pt x="427" y="92" on="1"/>
        <pt x="361" y="92" on="1"/>
        <pt x="272" y="299" on="1"/>
        <pt x="361" y="506" on="1"/>
        <pt x="427" y="506" on="1"/>
        <pt x="364" y="299" on="1"/>
      </contour>
    </TTGlyph>
    <TTGlyph name="guillemotright" xMin="112" yMin="92" xMax="427" yMax="506">
      <contour>
        <pt x="338" y="92" on="1"/>
        <pt x="272" y="92" on="1"/>
        <pt x="335" y="299" on="1"/>
        <pt x="272" y="506" on="1"/>
        <pt x="338" y="506" on="1"/>
        <pt x="427" y="299" on="1"/>
      </contour>
      <contour>
        <pt x="178" y="92" on="1"/>
        <pt x="112" y="92" on="1"/>
        <pt x="175" y="299" on="1"/>
        <pt x="112" y="506" on="1"/>
        <pt x="178" y="506" on="1"/>
        <pt x="267" y="299" on="1"/>
      </contour>
    </TTGlyph>
    <TTGlyph name="guilsinglleft" xMin="192" yMin="92" xMax="347" yMax="506">
      <contour>
        <pt x="347" y="92" on="1"/>
        <pt x="281" y="92" on="1"/>
        <pt x="192" y="299" on="1"/>
        <pt x="281" y="506" on="1"/>
        <pt x="347" y="506" on="1"/>
        <pt x="284" y="299" on="1"/>
      </contour>
    </TTGlyph>
    <TTGlyph name="guilsinglright" xMin="192" yMin="92" xMax="347" yMax="506">
      <contour>
        <pt x="258" y="92" on="1"/>
        <pt x="192" y="92" on="1"/>
        <pt x="255" y="299" on="1"/>
        <pt x="192" y="506" on="1"/>
        <pt x="258" y="506" on="1"/>
        <pt x="347" y="299" on="1"/>
      </contour>
    </TTGlyph>
    <TTGlyph name="h" xMin="87" yMin="0" xMax="453" yMax="700">
      <contour>
        <pt x="172" y="0" on="1"/>
        <pt x="87" y="0" on="1"/>
        <pt x="87" y="700" on="1"/>
        <pt x="172" y="700" on="1"/>
        <pt x="172" y="480" on="1"/>
        <pt x="202" y="500" on="0"/>
        <pt x="247" y="500" on="1"/>
        <pt x="293" y="500" on="1"/>
        <pt x="374" y="500" on="0"/>
        <pt x="453" y="424" on="0"/>
        <pt x="453" y="340" on="1"/>
        <pt x="453" y="0" on="1"/>
        <pt x="368" y="0" on="1"/>
        <pt x="368" y="360" on="1"/>
        <pt x="368" y="390" on="0"/>
        <pt x="333" y="425" on="0"/>
        <pt x="303" y="425" on="1"/>
        <pt x="237" y="425" on="1"/>
        <pt x="205" y="425" on="0"/>
        <pt x="173" y="392" on="0"/>
        <pt x="172" y="373" on="1"/>
      </contour>
    </TTGlyph>
    <TTGlyph name="hungarumlaut" xMin="77" yMin="598" xMax="465" yMax="745">
      <contour>
        <pt x="295" y="745" on="1"/>
        <pt x="168" y="598" on="1"/>
        <pt x="77" y="598" on="1"/>
        <pt x="180" y="745" on="1"/>
      </contour>
      <contour>
        <pt x="465" y="745" on="1"/>
        <pt x="338" y="598" on="1"/>
        <pt x="247" y="598" on="1"/>
        <pt x="350" y="745" on="1"/>
      </contour>
    </TTGlyph>
    <TTGlyph name="hyphen" xMin="107" yMin="275" xMax="432" yMax="350">
      <contour>
        <pt x="432" y="275" on="1"/>
        <pt x="107" y="275" on="1"/>
        <pt x="107" y="350" on="1"/>
        <pt x="432" y="350" on="1"/>
      </contour>
    </TTGlyph>
    <TTGlyph name="i" xMin="80" yMin="0" xMax="460" yMax="700">
      <contour>
        <pt x="317" y="610" on="1"/>
        <pt x="222" y="610" on="1"/>
        <pt x="222" y="700" on="1"/>
        <pt x="317" y="700" on="1"/>
      </contour>
      <contour>
        <pt x="460" y="0" on="1"/>
        <pt x="227" y="0" on="1"/>
        <pt x="227" y="425" on="1"/>
        <pt x="80" y="425" on="1"/>
        <pt x="80" y="500" on="1"/>
        <pt x="312" y="500" on="1"/>
        <pt x="312" y="75" on="1"/>
        <pt x="460" y="75" on="1"/>
      </contour>
    </TTGlyph>
    <TTGlyph name="iacute" xMin="80" yMin="0" xMax="460" yMax="715">
      <contour>
        <pt x="291" y="580" on="1"/>
        <pt x="205" y="580" on="1"/>
        <pt x="309" y="715" on="1"/>
        <pt x="413" y="715" on="1"/>
      </contour>
      <contour>
        <pt x="460" y="0" on="1"/>
        <pt x="227" y="0" on="1"/>
        <pt x="227" y="425" on="1"/>
        <pt x="80" y="425" on="1"/>
        <pt x="80" y="500" on="1"/>
        <pt x="312" y="500" on="1"/>
        <pt x="312" y="75" on="1"/>
        <pt x="460" y="75" on="1"/>
      </contour>
    </TTGlyph>
    <TTGlyph name="icircumflex" xMin="80" yMin="0" xMax="460" yMax="715">
      <contour>
        <pt x="430" y="580" on="1"/>
        <pt x="333" y="580" on="1"/>
        <pt x="273" y="655" on="1"/>
        <pt x="213" y="580" on="1"/>
        <pt x="117" y="580" on="1"/>
        <pt x="229" y="715" on="1"/>
        <pt x="317" y="715" on="1"/>
      </contour>
      <contour>
        <pt x="460" y="0" on="1"/>
        <pt x="227" y="0" on="1"/>
        <pt x="227" y="425" on="1"/>
        <pt x="80" y="425" on="1"/>
        <pt x="80" y="500" on="1"/>
        <pt x="312" y="500" on="1"/>
        <pt x="312" y="75" on="1"/>
        <pt x="460" y="75" on="1"/>
      </contour>
    </TTGlyph>
    <TTGlyph name="idieresis" xMin="80" yMin="0" xMax="460" yMax="675">
      <contour>
        <pt x="413" y="595" on="1"/>
        <pt x="328" y="595" on="1"/>
        <pt x="328" y="675" on="1"/>
        <pt x="413" y="675" on="1"/>
      </contour>
      <contour>
        <pt x="213" y="595" on="1"/>
        <pt x="128" y="595" on="1"/>
        <pt x="128" y="675" on="1"/>
        <pt x="213" y="675" on="1"/>
      </contour>
      <contour>
        <pt x="460" y="0" on="1"/>
        <pt x="227" y="0" on="1"/>
        <pt x="227" y="425" on="1"/>
        <pt x="80" y="425" on="1"/>
        <pt x="80" y="500" on="1"/>
        <pt x="312" y="500" on="1"/>
        <pt x="312" y="75" on="1"/>
        <pt x="460" y="75" on="1"/>
      </contour>
    </TTGlyph>
    <TTGlyph name="igrave" xMin="80" yMin="0" xMax="460" yMax="715">
      <contour>
        <pt x="357" y="580" on="1"/>
        <pt x="271" y="580" on="1"/>
        <pt x="149" y="715" on="1"/>
        <pt x="253" y="715" on="1"/>
      </contour>
      <contour>
        <pt x="460" y="0" on="1"/>
        <pt x="227" y="0" on="1"/>
        <pt x="227" y="425" on="1"/>
        <pt x="80" y="425" on="1"/>
        <pt x="80" y="500" on="1"/>
        <pt x="312" y="500" on="1"/>
        <pt x="312" y="75" on="1"/>
        <pt x="460" y="75" on="1"/>
      </contour>
    </TTGlyph>
    <TTGlyph name="infinity" xMin="13" yMin="141" xMax="527" yMax="475">
      <contour>
        <pt x="164" y="141" on="1"/>
        <pt x="154" y="141" on="1"/>
        <pt x="75" y="141" on="0"/>
        <pt x="13" y="218" on="0"/>
        <pt x="13" y="298" on="1"/>
        <pt x="13" y="318" on="1"/>
        <pt x="13" y="398" on="0"/>
        <pt x="75" y="475" on="0"/>
        <pt x="154" y="475" on="1"/>
        <pt x="164" y="475" on="1"/>
        <pt x="235" y="475" on="0"/>
        <pt x="272" y="422" on="1"/>
        <pt x="309" y="475" on="0"/>
        <pt x="376" y="475" on="1"/>
        <pt x="386" y="475" on="1"/>
        <pt x="465" y="475" on="0"/>
        <pt x="527" y="398" on="0"/>
        <pt x="527" y="318" on="1"/>
        <pt x="527" y="303" on="1"/>
        <pt x="527" y="223" on="0"/>
        <pt x="464" y="141" on="0"/>
        <pt x="386" y="141" on="1"/>
        <pt x="376" y="141" on="1"/>
        <pt x="307" y="141" on="0"/>
        <pt x="270" y="194" on="1"/>
        <pt x="233" y="141" on="0"/>
      </contour>
      <contour>
        <pt x="448" y="282" on="1"/>
        <pt x="448" y="342" on="1"/>
        <pt x="446" y="376" on="0"/>
        <pt x="417" y="405" on="0"/>
        <pt x="381" y="405" on="1"/>
        <pt x="374" y="405" on="1"/>
        <pt x="315" y="405" on="0"/>
        <pt x="311" y="340" on="1"/>
        <pt x="311" y="282" on="1"/>
        <pt x="311" y="211" on="0"/>
        <pt x="374" y="211" on="1"/>
        <pt x="381" y="211" on="1"/>
        <pt x="419" y="211" on="0"/>
        <pt x="448" y="244" on="0"/>
      </contour>
      <contour>
        <pt x="92" y="334" on="1"/>
        <pt x="92" y="274" on="1"/>
        <pt x="94" y="240" on="0"/>
        <pt x="123" y="211" on="0"/>
        <pt x="159" y="211" on="1"/>
        <pt x="166" y="211" on="1"/>
        <pt x="225" y="211" on="0"/>
        <pt x="229" y="276" on="1"/>
        <pt x="229" y="334" on="1"/>
        <pt x="229" y="405" on="0"/>
        <pt x="166" y="405" on="1"/>
        <pt x="159" y="405" on="1"/>
        <pt x="121" y="405" on="0"/>
        <pt x="92" y="372" on="0"/>
      </contour>
    </TTGlyph>
    <TTGlyph name="integral" xMin="69" yMin="-235" xMax="471" yMax="820">
      <contour>
        <pt x="69" y="-160" on="1"/>
        <pt x="190" y="-160" on="1"/>
        <pt x="206" y="-160" on="0"/>
        <pt x="225" y="-143" on="0"/>
        <pt x="225" y="-130" on="1"/>
        <pt x="225" y="710" on="1"/>
        <pt x="225" y="761" on="0"/>
        <pt x="283" y="820" on="0"/>
        <pt x="329" y="820" on="1"/>
        <pt x="471" y="820" on="1"/>
        <pt x="471" y="745" on="1"/>
        <pt x="345" y="745" on="1"/>
        <pt x="329" y="745" on="0"/>
        <pt x="310" y="728" on="0"/>
        <pt x="310" y="715" on="1"/>
        <pt x="310" y="-125" on="1"/>
        <pt x="310" y="-176" on="0"/>
        <pt x="252" y="-235" on="0"/>
        <pt x="206" y="-235" on="1"/>
        <pt x="69" y="-235" on="1"/>
      </contour>
    </TTGlyph>
    <TTGlyph name="j" xMin="137" yMin="-170" xMax="402" yMax="700">
      <contour>
        <pt x="137" y="-95" on="1"/>
        <pt x="278" y="-95" on="1"/>
        <pt x="294" y="-95" on="0"/>
        <pt x="313" y="-78" on="0"/>
        <pt x="313" y="-65" on="1"/>
        <pt x="313" y="425" on="1"/>
        <pt x="166" y="425" on="1"/>
        <pt x="166" y="500" on="1"/>
        <pt x="398" y="500" on="1"/>
        <pt x="398" y="-60" on="1"/>
        <pt x="398" y="-111" on="0"/>
        <pt x="340" y="-170" on="0"/>
        <pt x="294" y="-170" on="1"/>
        <pt x="137" y="-170" on="1"/>
      </contour>
      <contour>
        <pt x="402" y="610" on="1"/>
        <pt x="307" y="610" on="1"/>
        <pt x="307" y="700" on="1"/>
        <pt x="402" y="700" on="1"/>
      </contour>
    </TTGlyph>
    <TTGlyph name="k" xMin="96" yMin="0" xMax="459" yMax="700">
      <contour>
        <pt x="181" y="0" on="1"/>
        <pt x="96" y="0" on="1"/>
        <pt x="96" y="700" on="1"/>
        <pt x="181" y="700" on="1"/>
        <pt x="181" y="322" on="1"/>
        <pt x="338" y="500" on="1"/>
        <pt x="445" y="500" on="1"/>
        <pt x="271" y="303" on="1"/>
        <pt x="459" y="0" on="1"/>
        <pt x="354" y="0" on="1"/>
        <pt x="207" y="244" on="1"/>
        <pt x="181" y="214" on="1"/>
      </contour>
    </TTGlyph>
    <TTGlyph name="l" xMin="70" yMin="0" xMax="470" yMax="700">
      <contour>
        <pt x="470" y="0" on="1"/>
        <pt x="302" y="0" on="1"/>
        <pt x="268" y="0" on="0"/>
        <pt x="217" y="48" on="0"/>
        <pt x="217" y="100" on="1"/>
        <pt x="217" y="625" on="1"/>
        <pt x="70" y="625" on="1"/>
        <pt x="70" y="700" on="1"/>
        <pt x="302" y="700" on="1"/>
        <pt x="302" y="105" on="1"/>
        <pt x="302" y="89" on="0"/>
        <pt x="318" y="75" on="0"/>
        <pt x="337" y="75" on="1"/>
        <pt x="470" y="75" on="1"/>
      </contour>
    </TTGlyph>
    <TTGlyph name="less" xMin="80" yMin="105" xMax="460" yMax="564">
      <contour>
        <pt x="460" y="105" on="1"/>
        <pt x="80" y="280" on="1"/>
        <pt x="80" y="385" on="1"/>
        <pt x="460" y="564" on="1"/>
        <pt x="460" y="472" on="1"/>
        <pt x="150" y="336" on="1"/>
        <pt x="460" y="199" on="1"/>
      </contour>
    </TTGlyph>
    <TTGlyph name="lessequal" xMin="80" yMin="0" xMax="460" yMax="564">
      <contour>
        <pt x="460" y="125" on="1"/>
        <pt x="80" y="280" on="1"/>
        <pt x="80" y="385" on="1"/>
        <pt x="460" y="564" on="1"/>
        <pt x="460" y="472" on="1"/>
        <pt x="152" y="336" on="1"/>
        <pt x="460" y="219" on="1"/>
      </contour>
      <contour>
        <pt x="460" y="0" on="1"/>
        <pt x="80" y="0" on="1"/>
        <pt x="80" y="75" on="1"/>
        <pt x="460" y="75" on="1"/>
      </contour>
    </TTGlyph>
    <TTGlyph name="logicaland" xMin="220" yMin="260" xMax="320" yMax="360">
      <contour>
        <pt x="320" y="260" on="1"/>
        <pt x="220" y="260" on="1"/>
        <pt x="220" y="360" on="1"/>
        <pt x="320" y="360" on="1"/>
      </contour>
    </TTGlyph>
    <TTGlyph name="logicalnot" xMin="62" yMin="106" xMax="477" yMax="350">
      <contour>
        <pt x="477" y="106" on="1"/>
        <pt x="392" y="106" on="1"/>
        <pt x="392" y="275" on="1"/>
        <pt x="62" y="275" on="1"/>
        <pt x="62" y="350" on="1"/>
        <pt x="477" y="350" on="1"/>
      </contour>
    </TTGlyph>
    <TTGlyph name="lozenge" xMin="75" yMin="0" xMax="465" yMax="700">
      <contour>
        <pt x="465" y="350" on="1"/>
        <pt x="325" y="0" on="1"/>
        <pt x="213" y="0" on="1"/>
        <pt x="75" y="350" on="1"/>
        <pt x="215" y="700" on="1"/>
        <pt x="325" y="700" on="1"/>
      </contour>
      <contour>
        <pt x="378" y="350" on="1"/>
        <pt x="270" y="630" on="1"/>
        <pt x="162" y="350" on="1"/>
        <pt x="270" y="70" on="1"/>
      </contour>
    </TTGlyph>
    <TTGlyph name="lslash" xMin="70" yMin="0" xMax="470" yMax="700">
      <contour>
        <pt x="470" y="0" on="1"/>
        <pt x="302" y="0" on="1"/>
        <pt x="268" y="0" on="0"/>
        <pt x="217" y="48" on="0"/>
        <pt x="217" y="100" on="1"/>
        <pt x="217" y="323" on="1"/>
        <pt x="135" y="300" on="1"/>
        <pt x="135" y="378" on="1"/>
        <pt x="217" y="402" on="1"/>
        <pt x="217" y="625" on="1"/>
        <pt x="70" y="625" on="1"/>
        <pt x="70" y="700" on="1"/>
        <pt x="302" y="700" on="1"/>
        <pt x="302" y="426" on="1"/>
        <pt x="406" y="457" on="1"/>
        <pt x="406" y="378" on="1"/>
        <pt x="302" y="348" on="1"/>
        <pt x="302" y="105" on="1"/>
        <pt x="302" y="89" on="0"/>
        <pt x="318" y="75" on="0"/>
        <pt x="337" y="75" on="1"/>
        <pt x="470" y="75" on="1"/>
      </contour>
    </TTGlyph>
    <TTGlyph name="m" xMin="43" yMin="0" xMax="497" yMax="500">
      <contour>
        <pt x="123" y="0" on="1"/>
        <pt x="43" y="0" on="1"/>
        <pt x="43" y="500" on="1"/>
        <pt x="118" y="500" on="1"/>
        <pt x="118" y="477" on="1"/>
        <pt x="144" y="500" on="0"/>
        <pt x="180" y="500" on="1"/>
        <pt x="186" y="500" on="1"/>
        <pt x="256" y="500" on="0"/>
        <pt x="285" y="460" on="1"/>
        <pt x="318" y="500" on="0"/>
        <pt x="372" y="500" on="1"/>
        <pt x="378" y="500" on="1"/>
        <pt x="439" y="500" on="0"/>
        <pt x="497" y="438" on="0"/>
        <pt x="497" y="359" on="1"/>
        <pt x="497" y="0" on="1"/>
        <pt x="417" y="0" on="1"/>
        <pt x="417" y="360" on="1"/>
        <pt x="417" y="401" on="0"/>
        <pt x="400" y="433" on="0"/>
        <pt x="370" y="433" on="1"/>
        <pt x="364" y="433" on="1"/>
        <pt x="313" y="433" on="0"/>
        <pt x="310" y="367" on="1"/>
        <pt x="310" y="0" on="1"/>
        <pt x="230" y="0" on="1"/>
        <pt x="230" y="360" on="1"/>
        <pt x="230" y="402" on="0"/>
        <pt x="210" y="433" on="0"/>
        <pt x="184" y="433" on="1"/>
        <pt x="178" y="433" on="1"/>
        <pt x="126" y="433" on="0"/>
        <pt x="123" y="376" on="1"/>
      </contour>
    </TTGlyph>
    <TTGlyph name="macron" xMin="142" yMin="605" xMax="397" yMax="675">
      <contour>
        <pt x="397" y="605" on="1"/>
        <pt x="142" y="605" on="1"/>
        <pt x="142" y="675" on="1"/>
        <pt x="397" y="675" on="1"/>
      </contour>
    </TTGlyph>
    <TTGlyph name="minus" xMin="80" yMin="275" xMax="460" yMax="350">
      <contour>
        <pt x="460" y="275" on="1"/>
        <pt x="80" y="275" on="1"/>
        <pt x="80" y="350" on="1"/>
        <pt x="460" y="350" on="1"/>
      </contour>
    </TTGlyph>
    <TTGlyph name="mu" xMin="103" yMin="-170" xMax="437" yMax="500">
      <contour>
        <pt x="188" y="-170" on="1"/>
        <pt x="103" y="-170" on="1"/>
        <pt x="103" y="500" on="1"/>
        <pt x="188" y="500" on="1"/>
        <pt x="188" y="140" on="1"/>
        <pt x="188" y="110" on="0"/>
        <pt x="223" y="75" on="0"/>
        <pt x="253" y="75" on="1"/>
        <pt x="287" y="75" on="1"/>
        <pt x="320" y="75" on="0"/>
        <pt x="352" y="110" on="0"/>
        <pt x="352" y="130" on="1"/>
        <pt x="352" y="500" on="1"/>
        <pt x="437" y="500" on="1"/>
        <pt x="437" y="0" on="1"/>
        <pt x="357" y="0" on="1"/>
        <pt x="357" y="23" on="1"/>
        <pt x="324" y="0" on="0"/>
        <pt x="277" y="0" on="1"/>
        <pt x="263" y="0" on="1"/>
        <pt x="218" y="0" on="0"/>
        <pt x="188" y="10" on="1"/>
      </contour>
    </TTGlyph>
    <TTGlyph name="multiply" xMin="97" yMin="137" xMax="443" yMax="483">
      <contour>
        <pt x="387" y="137" on="1"/>
        <pt x="270" y="253" on="1"/>
        <pt x="153" y="137" on="1"/>
        <pt x="97" y="193" on="1"/>
        <pt x="213" y="310" on="1"/>
        <pt x="97" y="427" on="1"/>
        <pt x="153" y="483" on="1"/>
        <pt x="270" y="367" on="1"/>
        <pt x="387" y="483" on="1"/>
        <pt x="443" y="427" on="1"/>
        <pt x="327" y="310" on="1"/>
        <pt x="443" y="193" on="1"/>
      </contour>
    </TTGlyph>
    <TTGlyph name="n" xMin="87" yMin="0" xMax="453" yMax="500">
      <contour>
        <pt x="172" y="0" on="1"/>
        <pt x="87" y="0" on="1"/>
        <pt x="87" y="500" on="1"/>
        <pt x="167" y="500" on="1"/>
        <pt x="167" y="476" on="1"/>
        <pt x="198" y="500" on="0"/>
        <pt x="247" y="500" on="1"/>
        <pt x="293" y="500" on="1"/>
        <pt x="374" y="500" on="0"/>
        <pt x="453" y="424" on="0"/>
        <pt x="453" y="340" on="1"/>
        <pt x="453" y="0" on="1"/>
        <pt x="368" y="0" on="1"/>
        <pt x="368" y="360" on="1"/>
        <pt x="368" y="390" on="0"/>
        <pt x="333" y="425" on="0"/>
        <pt x="303" y="425" on="1"/>
        <pt x="237" y="425" on="1"/>
        <pt x="204" y="425" on="0"/>
        <pt x="172" y="390" on="0"/>
        <pt x="172" y="370" on="1"/>
      </contour>
    </TTGlyph>
    <TTGlyph name="nine" xMin="96" yMin="0" xMax="447" yMax="700">
      <contour>
        <pt x="96" y="530" on="1"/>
        <pt x="96" y="612" on="0"/>
        <pt x="186" y="700" on="0"/>
        <pt x="254" y="700" on="1"/>
        <pt x="289" y="700" on="1"/>
        <pt x="357" y="700" on="0"/>
        <pt x="447" y="612" on="0"/>
        <pt x="447" y="530" on="1"/>
        <pt x="447" y="170" on="1"/>
        <pt x="447" y="0" on="0"/>
        <pt x="269" y="0" on="1"/>
        <pt x="154" y="0" on="1"/>
        <pt x="154" y="76" on="1"/>
        <pt x="279" y="76" on="1"/>
        <pt x="316" y="76" on="0"/>
        <pt x="362" y="120" on="0"/>
        <pt x="362" y="151" on="1"/>
        <pt x="362" y="260" on="1"/>
        <pt x="264" y="260" on="1"/>
        <pt x="178" y="260" on="0"/>
        <pt x="96" y="336" on="0"/>
        <pt x="96" y="420" on="1"/>
      </contour>
      <contour>
        <pt x="254" y="335" on="1"/>
        <pt x="362" y="335" on="1"/>
        <pt x="362" y="549" on="1"/>
        <pt x="362" y="581" on="0"/>
        <pt x="320" y="625" on="0"/>
        <pt x="284" y="625" on="1"/>
        <pt x="259" y="625" on="1"/>
        <pt x="223" y="625" on="0"/>
        <pt x="181" y="581" on="0"/>
        <pt x="181" y="549" on="1"/>
        <pt x="181" y="401" on="1"/>
        <pt x="181" y="335" on="0"/>
      </contour>
    </TTGlyph>
    <TTGlyph name="notequal" xMin="80" yMin="70" xMax="460" yMax="555">
      <contour>
        <pt x="460" y="375" on="1"/>
        <pt x="349" y="375" on="1"/>
        <pt x="271" y="250" on="1"/>
        <pt x="460" y="250" on="1"/>
        <pt x="460" y="175" on="1"/>
        <pt x="225" y="175" on="1"/>
        <pt x="160" y="70" on="1"/>
        <pt x="80" y="70" on="1"/>
        <pt x="145" y="175" on="1"/>
        <pt x="80" y="175" on="1"/>
        <pt x="80" y="250" on="1"/>
        <pt x="191" y="250" on="1"/>
        <pt x="269" y="375" on="1"/>
        <pt x="80" y="375" on="1"/>
        <pt x="80" y="450" on="1"/>
        <pt x="315" y="450" on="1"/>
        <pt x="380" y="555" on="1"/>
        <pt x="460" y="555" on="1"/>
        <pt x="395" y="450" on="1"/>
        <pt x="460" y="450" on="1"/>
      </contour>
    </TTGlyph>
    <TTGlyph name="ntilde" xMin="87" yMin="0" xMax="453" yMax="700">
      <contour>
        <pt x="172" y="0" on="1"/>
        <pt x="87" y="0" on="1"/>
        <pt x="87" y="500" on="1"/>
        <pt x="167" y="500" on="1"/>
        <pt x="167" y="476" on="1"/>
        <pt x="198" y="500" on="0"/>
        <pt x="247" y="500" on="1"/>
        <pt x="293" y="500" on="1"/>
        <pt x="374" y="500" on="0"/>
        <pt x="453" y="424" on="0"/>
        <pt x="453" y="340" on="1"/>
        <pt x="453" y="0" on="1"/>
        <pt x="368" y="0" on="1"/>
        <pt x="368" y="360" on="1"/>
        <pt x="368" y="390" on="0"/>
        <pt x="333" y="425" on="0"/>
        <pt x="303" y="425" on="1"/>
        <pt x="237" y="425" on="1"/>
        <pt x="204" y="425" on="0"/>
        <pt x="172" y="390" on="0"/>
        <pt x="172" y="370" on="1"/>
      </contour>
      <contour>
        <pt x="214" y="700" on="1"/>
        <pt x="229" y="700" on="1"/>
        <pt x="241" y="700" on="0"/>
        <pt x="329" y="660" on="0"/>
        <pt x="340" y="660" on="1"/>
        <pt x="350" y="660" on="1"/>
        <pt x="361" y="660" on="0"/>
        <pt x="403" y="687" on="1"/>
        <pt x="417" y="696" on="1"/>
        <pt x="417" y="624" on="1"/>
        <pt x="366" y="591" on="0"/>
        <pt x="349" y="591" on="1"/>
        <pt x="334" y="591" on="1"/>
        <pt x="328" y="591" on="0"/>
        <pt x="235" y="631" on="0"/>
        <pt x="224" y="631" on="1"/>
        <pt x="214" y="631" on="1"/>
        <pt x="201" y="631" on="0"/>
        <pt x="153" y="604" on="1"/>
        <pt x="137" y="595" on="1"/>
        <pt x="137" y="667" on="1"/>
        <pt x="195" y="700" on="0"/>
      </contour>
    </TTGlyph>
    <TTGlyph name="numbersign" xMin="80" yMin="0" xMax="460" yMax="700">
      <contour>
        <pt x="310" y="255" on="1"/>
        <pt x="310" y="455" on="1"/>
        <pt x="230" y="455" on="1"/>
        <pt x="230" y="255" on="1"/>
      </contour>
      <contour>
        <pt x="460" y="180" on="1"/>
        <pt x="390" y="180" on="1"/>
        <pt x="390" y="0" on="1"/>
        <pt x="310" y="0" on="1"/>
        <pt x="310" y="180" on="1"/>
        <pt x="230" y="180" on="1"/>
        <pt x="230" y="0" on="1"/>
        <pt x="150" y="0" on="1"/>
        <pt x="150" y="180" on="1"/>
        <pt x="80" y="180" on="1"/>
        <pt x="80" y="255" on="1"/>
        <pt x="150" y="255" on="1"/>
        <pt x="150" y="455" on="1"/>
        <pt x="80" y="455" on="1"/>
        <pt x="80" y="530" on="1"/>
        <pt x="150" y="530" on="1"/>
        <pt x="150" y="700" on="1"/>
        <pt x="230" y="700" on="1"/>
        <pt x="230" y="530" on="1"/>
        <pt x="310" y="530" on="1"/>
        <pt x="310" y="700" on="1"/>
        <pt x="390" y="700" on="1"/>
        <pt x="390" y="530" on="1"/>
        <pt x="460" y="530" on="1"/>
        <pt x="460" y="455" on="1"/>
        <pt x="390" y="455" on="1"/>
        <pt x="390" y="255" on="1"/>
        <pt x="460" y="255" on="1"/>
      </contour>
    </TTGlyph>
    <TTGlyph name="o" xMin="83" yMin="0" xMax="456" yMax="500">
      <contour>
        <pt x="456" y="160" on="1"/>
        <pt x="456" y="76" on="0"/>
        <pt x="373" y="0" on="0"/>
        <pt x="286" y="0" on="1"/>
        <pt x="253" y="0" on="1"/>
        <pt x="166" y="0" on="0"/>
        <pt x="83" y="76" on="0"/>
        <pt x="83" y="160" on="1"/>
        <pt x="83" y="340" on="1"/>
        <pt x="83" y="424" on="0"/>
        <pt x="166" y="500" on="0"/>
        <pt x="253" y="500" on="1"/>
        <pt x="286" y="500" on="1"/>
        <pt x="373" y="500" on="0"/>
        <pt x="456" y="424" on="0"/>
        <pt x="456" y="340" on="1"/>
      </contour>
      <contour>
        <pt x="371" y="140" on="1"/>
        <pt x="371" y="360" on="1"/>
        <pt x="371" y="425" on="0"/>
        <pt x="296" y="425" on="1"/>
        <pt x="243" y="425" on="1"/>
        <pt x="168" y="425" on="0"/>
        <pt x="168" y="360" on="1"/>
        <pt x="168" y="140" on="1"/>
        <pt x="168" y="75" on="0"/>
        <pt x="243" y="75" on="1"/>
        <pt x="296" y="75" on="1"/>
        <pt x="371" y="75" on="0"/>
      </contour>
    </TTGlyph>
    <TTGlyph name="oacute" xMin="83" yMin="0" xMax="456" yMax="715">
      <contour>
        <pt x="456" y="160" on="1"/>
        <pt x="456" y="76" on="0"/>
        <pt x="373" y="0" on="0"/>
        <pt x="286" y="0" on="1"/>
        <pt x="253" y="0" on="1"/>
        <pt x="166" y="0" on="0"/>
        <pt x="83" y="76" on="0"/>
        <pt x="83" y="160" on="1"/>
        <pt x="83" y="340" on="1"/>
        <pt x="83" y="424" on="0"/>
        <pt x="166" y="500" on="0"/>
        <pt x="253" y="500" on="1"/>
        <pt x="286" y="500" on="1"/>
        <pt x="373" y="500" on="0"/>
        <pt x="456" y="424" on="0"/>
        <pt x="456" y="340" on="1"/>
      </contour>
      <contour>
        <pt x="371" y="140" on="1"/>
        <pt x="371" y="360" on="1"/>
        <pt x="371" y="425" on="0"/>
        <pt x="296" y="425" on="1"/>
        <pt x="243" y="425" on="1"/>
        <pt x="168" y="425" on="0"/>
        <pt x="168" y="360" on="1"/>
        <pt x="168" y="140" on="1"/>
        <pt x="168" y="75" on="0"/>
        <pt x="243" y="75" on="1"/>
        <pt x="296" y="75" on="1"/>
        <pt x="371" y="75" on="0"/>
      </contour>
      <contour>
        <pt x="255" y="580" on="1"/>
        <pt x="169" y="580" on="1"/>
        <pt x="273" y="715" on="1"/>
        <pt x="377" y="715" on="1"/>
      </contour>
    </TTGlyph>
    <TTGlyph name="ocircumflex" xMin="83" yMin="0" xMax="456" yMax="715">
      <contour>
        <pt x="456" y="160" on="1"/>
        <pt x="456" y="76" on="0"/>
        <pt x="373" y="0" on="0"/>
        <pt x="286" y="0" on="1"/>
        <pt x="253" y="0" on="1"/>
        <pt x="166" y="0" on="0"/>
        <pt x="83" y="76" on="0"/>
        <pt x="83" y="160" on="1"/>
        <pt x="83" y="340" on="1"/>
        <pt x="83" y="424" on="0"/>
        <pt x="166" y="500" on="0"/>
        <pt x="253" y="500" on="1"/>
        <pt x="286" y="500" on="1"/>
        <pt x="373" y="500" on="0"/>
        <pt x="456" y="424" on="0"/>
        <pt x="456" y="340" on="1"/>
      </contour>
      <contour>
        <pt x="371" y="140" on="1"/>
        <pt x="371" y="360" on="1"/>
        <pt x="371" y="425" on="0"/>
        <pt x="296" y="425" on="1"/>
        <pt x="243" y="425" on="1"/>
        <pt x="168" y="425" on="0"/>
        <pt x="168" y="360" on="1"/>
        <pt x="168" y="140" on="1"/>
        <pt x="168" y="75" on="0"/>
        <pt x="243" y="75" on="1"/>
        <pt x="296" y="75" on="1"/>
        <pt x="371" y="75" on="0"/>
      </contour>
      <contour>
        <pt x="427" y="580" on="1"/>
        <pt x="330" y="580" on="1"/>
        <pt x="270" y="655" on="1"/>
        <pt x="210" y="580" on="1"/>
        <pt x="114" y="580" on="1"/>
        <pt x="226" y="715" on="1"/>
        <pt x="314" y="715" on="1"/>
      </contour>
    </TTGlyph>
    <TTGlyph name="odieresis" xMin="83" yMin="0" xMax="456" yMax="675">
      <contour>
        <pt x="456" y="160" on="1"/>
        <pt x="456" y="76" on="0"/>
        <pt x="373" y="0" on="0"/>
        <pt x="286" y="0" on="1"/>
        <pt x="253" y="0" on="1"/>
        <pt x="166" y="0" on="0"/>
        <pt x="83" y="76" on="0"/>
        <pt x="83" y="160" on="1"/>
        <pt x="83" y="340" on="1"/>
        <pt x="83" y="424" on="0"/>
        <pt x="166" y="500" on="0"/>
        <pt x="253" y="500" on="1"/>
        <pt x="286" y="500" on="1"/>
        <pt x="373" y="500" on="0"/>
        <pt x="456" y="424" on="0"/>
        <pt x="456" y="340" on="1"/>
      </contour>
      <contour>
        <pt x="371" y="140" on="1"/>
        <pt x="371" y="360" on="1"/>
        <pt x="371" y="425" on="0"/>
        <pt x="296" y="425" on="1"/>
        <pt x="243" y="425" on="1"/>
        <pt x="168" y="425" on="0"/>
        <pt x="168" y="360" on="1"/>
        <pt x="168" y="140" on="1"/>
        <pt x="168" y="75" on="0"/>
        <pt x="243" y="75" on="1"/>
        <pt x="296" y="75" on="1"/>
        <pt x="371" y="75" on="0"/>
      </contour>
      <contour>
        <pt x="413" y="595" on="1"/>
        <pt x="328" y="595" on="1"/>
        <pt x="328" y="675" on="1"/>
        <pt x="413" y="675" on="1"/>
      </contour>
      <contour>
        <pt x="213" y="595" on="1"/>
        <pt x="128" y="595" on="1"/>
        <pt x="128" y="675" on="1"/>
        <pt x="213" y="675" on="1"/>
      </contour>
    </TTGlyph>
    <TTGlyph name="oe" xMin="26" yMin="0" xMax="516" yMax="500">
      <contour>
        <pt x="489" y="0" on="1"/>
        <pt x="397" y="0" on="1"/>
        <pt x="310" y="0" on="0"/>
        <pt x="280" y="39" on="1"/>
        <pt x="262" y="19" on="0"/>
        <pt x="218" y="0" on="0"/>
        <pt x="176" y="0" on="1"/>
        <pt x="173" y="0" on="1"/>
        <pt x="95" y="0" on="0"/>
        <pt x="26" y="74" on="0"/>
        <pt x="26" y="155" on="1"/>
        <pt x="26" y="345" on="1"/>
        <pt x="26" y="429" on="0"/>
        <pt x="95" y="500" on="0"/>
        <pt x="173" y="500" on="1"/>
        <pt x="176" y="500" on="1"/>
        <pt x="215" y="500" on="0"/>
        <pt x="258" y="480" on="0"/>
        <pt x="278" y="461" on="1"/>
        <pt x="310" y="500" on="0"/>
        <pt x="383" y="500" on="1"/>
        <pt x="384" y="500" on="1"/>
        <pt x="452" y="500" on="0"/>
        <pt x="516" y="430" on="0"/>
        <pt x="516" y="355" on="1"/>
        <pt x="516" y="215" on="1"/>
        <pt x="323" y="215" on="1"/>
        <pt x="323" y="138" on="1"/>
        <pt x="323" y="73" on="0"/>
        <pt x="395" y="73" on="1"/>
        <pt x="489" y="73" on="1"/>
      </contour>
      <contour>
        <pt x="240" y="138" on="1"/>
        <pt x="240" y="362" on="1"/>
        <pt x="240" y="427" on="0"/>
        <pt x="186" y="427" on="1"/>
        <pt x="163" y="427" on="1"/>
        <pt x="109" y="427" on="0"/>
        <pt x="109" y="362" on="1"/>
        <pt x="109" y="138" on="1"/>
        <pt x="109" y="73" on="0"/>
        <pt x="163" y="73" on="1"/>
        <pt x="186" y="73" on="1"/>
        <pt x="240" y="73" on="0"/>
      </contour>
      <contour>
        <pt x="323" y="362" on="1"/>
        <pt x="323" y="288" on="1"/>
        <pt x="435" y="288" on="1"/>
        <pt x="435" y="367" on="1"/>
        <pt x="435" y="427" on="0"/>
        <pt x="383" y="427" on="1"/>
        <pt x="380" y="427" on="1"/>
        <pt x="346" y="427" on="0"/>
        <pt x="323" y="395" on="0"/>
      </contour>
    </TTGlyph>
    <TTGlyph name="ogonek" xMin="181" yMin="-180" xMax="358" yMax="60">
      <contour>
        <pt x="358" y="-180" on="1"/>
        <pt x="269" y="-180" on="1"/>
        <pt x="208" y="-180" on="0"/>
        <pt x="190" y="-136" on="1"/>
        <pt x="181" y="-116" on="0"/>
        <pt x="181" y="-85" on="1"/>
        <pt x="181" y="60" on="1"/>
        <pt x="255" y="60" on="1"/>
        <pt x="255" y="-85" on="1"/>
        <pt x="255" y="-113" on="0"/>
        <pt x="287" y="-113" on="1"/>
        <pt x="358" y="-113" on="1"/>
      </contour>
    </TTGlyph>
    <TTGlyph name="ograve" xMin="79" yMin="0" xMax="452" yMax="715">
      <contour>
        <pt x="452" y="160" on="1"/>
        <pt x="452" y="76" on="0"/>
        <pt x="369" y="0" on="0"/>
        <pt x="282" y="0" on="1"/>
        <pt x="249" y="0" on="1"/>
        <pt x="162" y="0" on="0"/>
        <pt x="79" y="76" on="0"/>
        <pt x="79" y="160" on="1"/>
        <pt x="79" y="340" on="1"/>
        <pt x="79" y="424" on="0"/>
        <pt x="162" y="500" on="0"/>
        <pt x="249" y="500" on="1"/>
        <pt x="282" y="500" on="1"/>
        <pt x="369" y="500" on="0"/>
        <pt x="452" y="424" on="0"/>
        <pt x="452" y="340" on="1"/>
      </contour>
      <contour>
        <pt x="367" y="140" on="1"/>
        <pt x="367" y="360" on="1"/>
        <pt x="367" y="425" on="0"/>
        <pt x="292" y="425" on="1"/>
        <pt x="239" y="425" on="1"/>
        <pt x="164" y="425" on="0"/>
        <pt x="164" y="360" on="1"/>
        <pt x="164" y="140" on="1"/>
        <pt x="164" y="75" on="0"/>
        <pt x="239" y="75" on="1"/>
        <pt x="292" y="75" on="1"/>
        <pt x="367" y="75" on="0"/>
      </contour>
      <contour>
        <pt x="365" y="580" on="1"/>
        <pt x="279" y="580" on="1"/>
        <pt x="157" y="715" on="1"/>
        <pt x="261" y="715" on="1"/>
      </contour>
    </TTGlyph>
    <TTGlyph name="one" xMin="102" yMin="0" xMax="437" yMax="700">
      <contour>
        <pt x="437" y="0" on="1"/>
        <pt x="112" y="0" on="1"/>
        <pt x="112" y="75" on="1"/>
        <pt x="243" y="75" on="1"/>
        <pt x="243" y="621" on="1"/>
        <pt x="102" y="569" on="1"/>
        <pt x="102" y="650" on="1"/>
        <pt x="233" y="700" on="1"/>
        <pt x="328" y="700" on="1"/>
        <pt x="328" y="75" on="1"/>
        <pt x="437" y="75" on="1"/>
      </contour>
    </TTGlyph>
    <TTGlyph name="onehalf" xMin="11" yMin="-110" xMax="535" yMax="810">
      <contour>
        <pt x="185" y="205" on="1"/>
        <pt x="29" y="205" on="1"/>
        <pt x="29" y="269" on="1"/>
        <pt x="77" y="269" on="1"/>
        <pt x="77" y="630" on="1"/>
        <pt x="11" y="591" on="1"/>
        <pt x="11" y="662" on="1"/>
        <pt x="79" y="700" on="1"/>
        <pt x="151" y="700" on="1"/>
        <pt x="151" y="269" on="1"/>
        <pt x="185" y="269" on="1"/>
      </contour>
      <contour>
        <pt x="535" y="0" on="1"/>
        <pt x="365" y="0" on="1"/>
        <pt x="365" y="73" on="1"/>
        <pt x="443" y="246" on="1"/>
        <pt x="452" y="266" on="0"/>
        <pt x="457" y="301" on="0"/>
        <pt x="457" y="346" on="1"/>
        <pt x="457" y="392" on="1"/>
        <pt x="457" y="431" on="0"/>
        <pt x="416" y="431" on="1"/>
        <pt x="380" y="431" on="1"/>
        <pt x="380" y="495" on="1"/>
        <pt x="409" y="495" on="1"/>
        <pt x="480" y="495" on="0"/>
        <pt x="530" y="447" on="0"/>
        <pt x="530" y="386" on="1"/>
        <pt x="530" y="353" on="1"/>
        <pt x="530" y="286" on="0"/>
        <pt x="524" y="238" on="0"/>
        <pt x="512" y="216" on="1"/>
        <pt x="441" y="64" on="1"/>
        <pt x="535" y="64" on="1"/>
      </contour>
      <contour>
        <pt x="453" y="810" on="1"/>
        <pt x="197" y="-110" on="1"/>
        <pt x="123" y="-110" on="1"/>
        <pt x="365" y="810" on="1"/>
      </contour>
    </TTGlyph>
    <TTGlyph name="onequarter" xMin="11" yMin="-110" xMax="528" yMax="810">
      <contour>
        <pt x="185" y="205" on="1"/>
        <pt x="29" y="205" on="1"/>
        <pt x="29" y="269" on="1"/>
        <pt x="77" y="269" on="1"/>
        <pt x="77" y="630" on="1"/>
        <pt x="11" y="591" on="1"/>
        <pt x="11" y="662" on="1"/>
        <pt x="79" y="700" on="1"/>
        <pt x="151" y="700" on="1"/>
        <pt x="151" y="269" on="1"/>
        <pt x="185" y="269" on="1"/>
      </contour>
      <contour>
        <pt x="528" y="117" on="1"/>
        <pt x="498" y="117" on="1"/>
        <pt x="498" y="0" on="1"/>
        <pt x="428" y="0" on="1"/>
        <pt x="428" y="117" on="1"/>
        <pt x="327" y="117" on="1"/>
        <pt x="327" y="191" on="1"/>
        <pt x="381" y="495" on="1"/>
        <pt x="450" y="495" on="1"/>
        <pt x="388" y="181" on="1"/>
        <pt x="424" y="181" on="1"/>
        <pt x="451" y="324" on="1"/>
        <pt x="498" y="324" on="1"/>
        <pt x="498" y="181" on="1"/>
        <pt x="528" y="181" on="1"/>
      </contour>
      <contour>
        <pt x="449" y="810" on="1"/>
        <pt x="193" y="-110" on="1"/>
        <pt x="119" y="-110" on="1"/>
        <pt x="375" y="810" on="1"/>
      </contour>
    </TTGlyph>
    <TTGlyph name="onesuperior" xMin="146" yMin="205" xMax="393" yMax="700">
      <contour>
        <pt x="393" y="205" on="1"/>
        <pt x="154" y="205" on="1"/>
        <pt x="154" y="269" on="1"/>
        <pt x="245" y="269" on="1"/>
        <pt x="245" y="633" on="1"/>
        <pt x="146" y="594" on="1"/>
        <pt x="146" y="662" on="1"/>
        <pt x="237" y="700" on="1"/>
        <pt x="319" y="700" on="1"/>
        <pt x="319" y="269" on="1"/>
        <pt x="393" y="269" on="1"/>
      </contour>
    </TTGlyph>
    <TTGlyph name="ordfeminine" xMin="125" yMin="0" xMax="414" yMax="700">
      <contour>
        <pt x="414" y="324" on="1"/>
        <pt x="369" y="324" on="1"/>
        <pt x="346" y="324" on="0"/>
        <pt x="329" y="344" on="1"/>
        <pt x="312" y="324" on="0"/>
        <pt x="286" y="324" on="1"/>
        <pt x="234" y="324" on="1"/>
        <pt x="177" y="324" on="0"/>
        <pt x="125" y="371" on="0"/>
        <pt x="125" y="426" on="1"/>
        <pt x="125" y="441" on="1"/>
        <pt x="125" y="557" on="0"/>
        <pt x="235" y="557" on="1"/>
        <pt x="309" y="557" on="1"/>
        <pt x="309" y="595" on="1"/>
        <pt x="309" y="639" on="0"/>
        <pt x="256" y="639" on="1"/>
        <pt x="155" y="639" on="1"/>
        <pt x="155" y="700" on="1"/>
        <pt x="249" y="700" on="1"/>
        <pt x="314" y="700" on="0"/>
        <pt x="377" y="643" on="0"/>
        <pt x="377" y="580" on="1"/>
        <pt x="377" y="399" on="1"/>
        <pt x="377" y="377" on="0"/>
        <pt x="414" y="377" on="1"/>
      </contour>
      <contour>
        <pt x="398" y="0" on="1"/>
        <pt x="147" y="0" on="1"/>
        <pt x="147" y="75" on="1"/>
        <pt x="398" y="75" on="1"/>
      </contour>
      <contour>
        <pt x="274" y="383" on="1"/>
        <pt x="290" y="383" on="0"/>
        <pt x="307" y="397" on="0"/>
        <pt x="309" y="409" on="0"/>
        <pt x="309" y="420" on="1"/>
        <pt x="309" y="499" on="1"/>
        <pt x="238" y="499" on="1"/>
        <pt x="218" y="499" on="0"/>
        <pt x="193" y="474" on="0"/>
        <pt x="193" y="454" on="1"/>
        <pt x="193" y="422" on="1"/>
        <pt x="193" y="383" on="0"/>
        <pt x="230" y="383" on="1"/>
      </contour>
    </TTGlyph>
    <TTGlyph name="ordmasculine" xMin="132" yMin="0" xMax="408" yMax="702">
      <contour>
        <pt x="408" y="0" on="1"/>
        <pt x="132" y="0" on="1"/>
        <pt x="132" y="75" on="1"/>
        <pt x="408" y="75" on="1"/>
      </contour>
      <contour>
        <pt x="400" y="446" on="1"/>
        <pt x="400" y="383" on="0"/>
        <pt x="338" y="326" on="0"/>
        <pt x="273" y="326" on="1"/>
        <pt x="263" y="326" on="1"/>
        <pt x="197" y="326" on="0"/>
        <pt x="135" y="383" on="0"/>
        <pt x="135" y="446" on="1"/>
        <pt x="135" y="582" on="1"/>
        <pt x="135" y="645" on="0"/>
        <pt x="197" y="702" on="0"/>
        <pt x="263" y="702" on="1"/>
        <pt x="273" y="702" on="1"/>
        <pt x="338" y="702" on="0"/>
        <pt x="400" y="645" on="0"/>
        <pt x="400" y="582" on="1"/>
      </contour>
      <contour>
        <pt x="332" y="435" on="1"/>
        <pt x="332" y="593" on="1"/>
        <pt x="332" y="641" on="0"/>
        <pt x="276" y="641" on="1"/>
        <pt x="259" y="641" on="1"/>
        <pt x="203" y="641" on="0"/>
        <pt x="203" y="593" on="1"/>
        <pt x="203" y="435" on="1"/>
        <pt x="203" y="387" on="0"/>
        <pt x="259" y="387" on="1"/>
        <pt x="276" y="387" on="1"/>
        <pt x="332" y="387" on="0"/>
      </contour>
    </TTGlyph>
    <TTGlyph name="oslash" xMin="83" yMin="-89" xMax="456" yMax="589">
      <contour>
        <pt x="456" y="160" on="1"/>
        <pt x="456" y="76" on="0"/>
        <pt x="373" y="0" on="0"/>
        <pt x="286" y="0" on="1"/>
        <pt x="233" y="0" on="1"/>
        <pt x="206" y="-89" on="1"/>
        <pt x="128" y="-89" on="1"/>
        <pt x="159" y="15" on="1"/>
        <pt x="83" y="48" on="0"/>
        <pt x="83" y="160" on="1"/>
        <pt x="83" y="340" on="1"/>
        <pt x="83" y="424" on="0"/>
        <pt x="166" y="500" on="0"/>
        <pt x="253" y="500" on="1"/>
        <pt x="286" y="500" on="1"/>
        <pt x="300" y="500" on="0"/>
        <pt x="306" y="499" on="1"/>
        <pt x="334" y="589" on="1"/>
        <pt x="411" y="589" on="1"/>
        <pt x="379" y="484" on="1"/>
        <pt x="456" y="451" on="0"/>
        <pt x="456" y="340" on="1"/>
      </contour>
      <contour>
        <pt x="168" y="140" on="1"/>
        <pt x="168" y="112" on="0"/>
        <pt x="183" y="95" on="1"/>
        <pt x="284" y="425" on="1"/>
        <pt x="243" y="425" on="1"/>
        <pt x="168" y="425" on="0"/>
        <pt x="168" y="360" on="1"/>
      </contour>
      <contour>
        <pt x="371" y="140" on="1"/>
        <pt x="371" y="360" on="1"/>
        <pt x="371" y="388" on="0"/>
        <pt x="355" y="404" on="1"/>
        <pt x="255" y="75" on="1"/>
        <pt x="296" y="75" on="1"/>
        <pt x="371" y="75" on="0"/>
      </contour>
    </TTGlyph>
    <TTGlyph name="otilde" xMin="83" yMin="0" xMax="456" yMax="700">
      <contour>
        <pt x="456" y="160" on="1"/>
        <pt x="456" y="76" on="0"/>
        <pt x="373" y="0" on="0"/>
        <pt x="286" y="0" on="1"/>
        <pt x="253" y="0" on="1"/>
        <pt x="166" y="0" on="0"/>
        <pt x="83" y="76" on="0"/>
        <pt x="83" y="160" on="1"/>
        <pt x="83" y="340" on="1"/>
        <pt x="83" y="424" on="0"/>
        <pt x="166" y="500" on="0"/>
        <pt x="253" y="500" on="1"/>
        <pt x="286" y="500" on="1"/>
        <pt x="373" y="500" on="0"/>
        <pt x="456" y="424" on="0"/>
        <pt x="456" y="340" on="1"/>
      </contour>
      <contour>
        <pt x="371" y="140" on="1"/>
        <pt x="371" y="360" on="1"/>
        <pt x="371" y="425" on="0"/>
        <pt x="296" y="425" on="1"/>
        <pt x="243" y="425" on="1"/>
        <pt x="168" y="425" on="0"/>
        <pt x="168" y="360" on="1"/>
        <pt x="168" y="140" on="1"/>
        <pt x="168" y="75" on="0"/>
        <pt x="243" y="75" on="1"/>
        <pt x="296" y="75" on="1"/>
        <pt x="371" y="75" on="0"/>
      </contour>
      <contour>
        <pt x="207" y="700" on="1"/>
        <pt x="222" y="700" on="1"/>
        <pt x="234" y="700" on="0"/>
        <pt x="322" y="660" on="0"/>
        <pt x="333" y="660" on="1"/>
        <pt x="343" y="660" on="1"/>
        <pt x="354" y="660" on="0"/>
        <pt x="396" y="687" on="1"/>
        <pt x="410" y="696" on="1"/>
        <pt x="410" y="624" on="1"/>
        <pt x="359" y="591" on="0"/>
        <pt x="342" y="591" on="1"/>
        <pt x="327" y="591" on="1"/>
        <pt x="321" y="591" on="0"/>
        <pt x="228" y="631" on="0"/>
        <pt x="217" y="631" on="1"/>
        <pt x="207" y="631" on="1"/>
        <pt x="194" y="631" on="0"/>
        <pt x="146" y="604" on="1"/>
        <pt x="130" y="595" on="1"/>
        <pt x="130" y="667" on="1"/>
        <pt x="188" y="700" on="0"/>
      </contour>
    </TTGlyph>
    <TTGlyph name="p" xMin="87" yMin="-170" xMax="453" yMax="500">
      <contour>
        <pt x="172" y="-170" on="1"/>
        <pt x="87" y="-170" on="1"/>
        <pt x="87" y="500" on="1"/>
        <pt x="167" y="500" on="1"/>
        <pt x="167" y="476" on="1"/>
        <pt x="198" y="500" on="0"/>
        <pt x="247" y="500" on="1"/>
        <pt x="283" y="500" on="1"/>
        <pt x="371" y="500" on="0"/>
        <pt x="453" y="425" on="0"/>
        <pt x="453" y="340" on="1"/>
        <pt x="453" y="160" on="1"/>
        <pt x="453" y="76" on="0"/>
        <pt x="370" y="0" on="0"/>
        <pt x="283" y="0" on="1"/>
        <pt x="172" y="0" on="1"/>
      </contour>
      <contour>
        <pt x="237" y="425" on="1"/>
        <pt x="204" y="425" on="0"/>
        <pt x="172" y="390" on="0"/>
        <pt x="172" y="370" on="1"/>
        <pt x="172" y="75" on="1"/>
        <pt x="293" y="75" on="1"/>
        <pt x="368" y="75" on="0"/>
        <pt x="368" y="140" on="1"/>
        <pt x="368" y="360" on="1"/>
        <pt x="368" y="425" on="0"/>
        <pt x="293" y="425" on="1"/>
      </contour>
    </TTGlyph>
    <TTGlyph name="paragraph" xMin="62" yMin="0" xMax="453" yMax="700">
      <contour>
        <pt x="318" y="0" on="1"/>
        <pt x="235" y="0" on="1"/>
        <pt x="235" y="374" on="1"/>
        <pt x="229" y="374" on="1"/>
        <pt x="141" y="374" on="0"/>
        <pt x="62" y="443" on="0"/>
        <pt x="62" y="527" on="1"/>
        <pt x="62" y="540" on="1"/>
        <pt x="62" y="625" on="0"/>
        <pt x="142" y="700" on="0"/>
        <pt x="229" y="700" on="1"/>
        <pt x="318" y="700" on="1"/>
        <pt x="318" y="630" on="1"/>
        <pt x="218" y="630" on="1"/>
        <pt x="182" y="630" on="0"/>
        <pt x="143" y="591" on="0"/>
        <pt x="143" y="560" on="1"/>
        <pt x="143" y="507" on="1"/>
        <pt x="143" y="442" on="0"/>
        <pt x="218" y="442" on="1"/>
        <pt x="318" y="442" on="1"/>
      </contour>
      <contour>
        <pt x="453" y="0" on="1"/>
        <pt x="373" y="0" on="1"/>
        <pt x="373" y="700" on="1"/>
        <pt x="453" y="700" on="1"/>
      </contour>
    </TTGlyph>
    <TTGlyph name="parenleft" xMin="170" yMin="-120" xMax="370" yMax="820">
      <contour>
        <pt x="170" y="505" on="1"/>
        <pt x="170" y="621" on="0"/>
        <pt x="229" y="765" on="0"/>
        <pt x="282" y="820" on="1"/>
        <pt x="370" y="820" on="1"/>
        <pt x="301" y="736" on="0"/>
        <pt x="255" y="619" on="0"/>
        <pt x="255" y="507" on="1"/>
        <pt x="255" y="193" on="1"/>
        <pt x="255" y="81" on="0"/>
        <pt x="301" y="-36" on="0"/>
        <pt x="370" y="-120" on="1"/>
        <pt x="282" y="-120" on="1"/>
        <pt x="229" y="-65" on="0"/>
        <pt x="170" y="79" on="0"/>
        <pt x="170" y="195" on="1"/>
      </contour>
    </TTGlyph>
    <TTGlyph name="parenright" xMin="170" yMin="-120" xMax="370" yMax="820">
      <contour>
        <pt x="370" y="505" on="1"/>
        <pt x="370" y="195" on="1"/>
        <pt x="370" y="79" on="0"/>
        <pt x="311" y="-65" on="0"/>
        <pt x="258" y="-120" on="1"/>
        <pt x="170" y="-120" on="1"/>
        <pt x="239" y="-36" on="0"/>
        <pt x="285" y="81" on="0"/>
        <pt x="285" y="193" on="1"/>
        <pt x="285" y="507" on="1"/>
        <pt x="285" y="619" on="0"/>
        <pt x="239" y="736" on="0"/>
        <pt x="170" y="820" on="1"/>
        <pt x="258" y="820" on="1"/>
        <pt x="311" y="765" on="0"/>
        <pt x="370" y="621" on="0"/>
      </contour>
    </TTGlyph>
    <TTGlyph name="partialdiff" xMin="96" yMin="0" xMax="447" yMax="700">
      <contour>
        <pt x="96" y="170" on="1"/>
        <pt x="96" y="280" on="1"/>
        <pt x="96" y="364" on="0"/>
        <pt x="178" y="440" on="0"/>
        <pt x="264" y="440" on="1"/>
        <pt x="362" y="440" on="1"/>
        <pt x="362" y="549" on="1"/>
        <pt x="362" y="580" on="0"/>
        <pt x="316" y="624" on="0"/>
        <pt x="279" y="624" on="1"/>
        <pt x="144" y="624" on="1"/>
        <pt x="144" y="700" on="1"/>
        <pt x="269" y="700" on="1"/>
        <pt x="447" y="700" on="0"/>
        <pt x="447" y="530" on="1"/>
        <pt x="447" y="170" on="1"/>
        <pt x="447" y="88" on="0"/>
        <pt x="357" y="0" on="0"/>
        <pt x="289" y="0" on="1"/>
        <pt x="254" y="0" on="1"/>
        <pt x="186" y="0" on="0"/>
        <pt x="96" y="88" on="0"/>
      </contour>
      <contour>
        <pt x="362" y="365" on="1"/>
        <pt x="254" y="365" on="1"/>
        <pt x="181" y="365" on="0"/>
        <pt x="181" y="299" on="1"/>
        <pt x="181" y="151" on="1"/>
        <pt x="181" y="119" on="0"/>
        <pt x="223" y="75" on="0"/>
        <pt x="259" y="75" on="1"/>
        <pt x="284" y="75" on="1"/>
        <pt x="320" y="75" on="0"/>
        <pt x="362" y="119" on="0"/>
        <pt x="362" y="151" on="1"/>
      </contour>
    </TTGlyph>
    <TTGlyph name="percent" xMin="12" yMin="0" xMax="527" yMax="700">
      <contour>
        <pt x="527" y="354" on="1"/>
        <pt x="12" y="281" on="1"/>
        <pt x="12" y="343" on="1"/>
        <pt x="527" y="416" on="1"/>
      </contour>
      <contour>
        <pt x="289" y="532" on="1"/>
        <pt x="289" y="469" on="0"/>
        <pt x="225" y="404" on="0"/>
        <pt x="167" y="404" on="1"/>
        <pt x="159" y="404" on="1"/>
        <pt x="101" y="404" on="0"/>
        <pt x="37" y="469" on="0"/>
        <pt x="37" y="532" on="1"/>
        <pt x="37" y="572" on="1"/>
        <pt x="37" y="635" on="0"/>
        <pt x="101" y="700" on="0"/>
        <pt x="159" y="700" on="1"/>
        <pt x="167" y="700" on="1"/>
        <pt x="225" y="700" on="0"/>
        <pt x="289" y="635" on="0"/>
        <pt x="289" y="572" on="1"/>
      </contour>
      <contour>
        <pt x="219" y="521" on="1"/>
        <pt x="219" y="583" on="1"/>
        <pt x="219" y="608" on="0"/>
        <pt x="193" y="640" on="0"/>
        <pt x="167" y="640" on="1"/>
        <pt x="159" y="640" on="1"/>
        <pt x="133" y="640" on="0"/>
        <pt x="107" y="608" on="0"/>
        <pt x="107" y="583" on="1"/>
        <pt x="107" y="521" on="1"/>
        <pt x="107" y="496" on="0"/>
        <pt x="133" y="464" on="0"/>
        <pt x="159" y="464" on="1"/>
        <pt x="167" y="464" on="1"/>
        <pt x="193" y="464" on="0"/>
        <pt x="219" y="496" on="0"/>
      </contour>
      <contour>
        <pt x="499" y="128" on="1"/>
        <pt x="499" y="65" on="0"/>
        <pt x="435" y="0" on="0"/>
        <pt x="377" y="0" on="1"/>
        <pt x="369" y="0" on="1"/>
        <pt x="311" y="0" on="0"/>
        <pt x="247" y="65" on="0"/>
        <pt x="247" y="128" on="1"/>
        <pt x="247" y="168" on="1"/>
        <pt x="247" y="231" on="0"/>
        <pt x="311" y="296" on="0"/>
        <pt x="369" y="296" on="1"/>
        <pt x="377" y="296" on="1"/>
        <pt x="435" y="296" on="0"/>
        <pt x="499" y="231" on="0"/>
        <pt x="499" y="168" on="1"/>
      </contour>
      <contour>
        <pt x="429" y="117" on="1"/>
        <pt x="429" y="179" on="1"/>
        <pt x="429" y="204" on="0"/>
        <pt x="403" y="236" on="0"/>
        <pt x="377" y="236" on="1"/>
        <pt x="369" y="236" on="1"/>
        <pt x="343" y="236" on="0"/>
        <pt x="317" y="204" on="0"/>
        <pt x="317" y="179" on="1"/>
        <pt x="317" y="117" on="1"/>
        <pt x="317" y="92" on="0"/>
        <pt x="343" y="60" on="0"/>
        <pt x="369" y="60" on="1"/>
        <pt x="377" y="60" on="1"/>
        <pt x="403" y="60" on="0"/>
        <pt x="429" y="92" on="0"/>
      </contour>
    </TTGlyph>
    <TTGlyph name="period" xMin="220" yMin="0" xMax="320" yMax="100">
      <contour>
        <pt x="320" y="0" on="1"/>
        <pt x="220" y="0" on="1"/>
        <pt x="220" y="100" on="1"/>
        <pt x="320" y="100" on="1"/>
      </contour>
    </TTGlyph>
    <TTGlyph name="periodcentered" xMin="220" yMin="260" xMax="320" yMax="360">
      <contour>
        <pt x="320" y="260" on="1"/>
        <pt x="220" y="260" on="1"/>
        <pt x="220" y="360" on="1"/>
        <pt x="320" y="360" on="1"/>
      </contour>
    </TTGlyph>
    <TTGlyph name="perthousand" xMin="9" yMin="0" xMax="531" yMax="700">
      <contour>
        <pt x="529" y="374" on="1"/>
        <pt x="14" y="301" on="1"/>
        <pt x="14" y="363" on="1"/>
        <pt x="529" y="436" on="1"/>
      </contour>
      <contour>
        <pt x="261" y="532" on="1"/>
        <pt x="261" y="469" on="0"/>
        <pt x="197" y="404" on="0"/>
        <pt x="139" y="404" on="1"/>
        <pt x="131" y="404" on="1"/>
        <pt x="73" y="404" on="0"/>
        <pt x="9" y="469" on="0"/>
        <pt x="9" y="532" on="1"/>
        <pt x="9" y="572" on="1"/>
        <pt x="9" y="635" on="0"/>
        <pt x="73" y="700" on="0"/>
        <pt x="131" y="700" on="1"/>
        <pt x="139" y="700" on="1"/>
        <pt x="197" y="700" on="0"/>
        <pt x="261" y="635" on="0"/>
        <pt x="261" y="572" on="1"/>
      </contour>
      <contour>
        <pt x="191" y="521" on="1"/>
        <pt x="191" y="583" on="1"/>
        <pt x="191" y="608" on="0"/>
        <pt x="165" y="640" on="0"/>
        <pt x="139" y="640" on="1"/>
        <pt x="131" y="640" on="1"/>
        <pt x="105" y="640" on="0"/>
        <pt x="79" y="608" on="0"/>
        <pt x="79" y="583" on="1"/>
        <pt x="79" y="521" on="1"/>
        <pt x="79" y="496" on="0"/>
        <pt x="105" y="464" on="0"/>
        <pt x="131" y="464" on="1"/>
        <pt x="139" y="464" on="1"/>
        <pt x="165" y="464" on="0"/>
        <pt x="191" y="496" on="0"/>
      </contour>
      <contour>
        <pt x="261" y="128" on="1"/>
        <pt x="261" y="65" on="0"/>
        <pt x="197" y="0" on="0"/>
        <pt x="139" y="0" on="1"/>
        <pt x="131" y="0" on="1"/>
        <pt x="73" y="0" on="0"/>
        <pt x="9" y="65" on="0"/>
        <pt x="9" y="128" on="1"/>
        <pt x="9" y="168" on="1"/>
        <pt x="9" y="231" on="0"/>
        <pt x="73" y="296" on="0"/>
        <pt x="131" y="296" on="1"/>
        <pt x="139" y="296" on="1"/>
        <pt x="197" y="296" on="0"/>
        <pt x="261" y="231" on="0"/>
        <pt x="261" y="168" on="1"/>
      </contour>
      <contour>
        <pt x="191" y="117" on="1"/>
        <pt x="191" y="179" on="1"/>
        <pt x="191" y="204" on="0"/>
        <pt x="165" y="236" on="0"/>
        <pt x="139" y="236" on="1"/>
        <pt x="131" y="236" on="1"/>
        <pt x="105" y="236" on="0"/>
        <pt x="79" y="204" on="0"/>
        <pt x="79" y="179" on="1"/>
        <pt x="79" y="117" on="1"/>
        <pt x="79" y="92" on="0"/>
        <pt x="105" y="60" on="0"/>
        <pt x="131" y="60" on="1"/>
        <pt x="139" y="60" on="1"/>
        <pt x="165" y="60" on="0"/>
        <pt x="191" y="92" on="0"/>
      </contour>
      <contour>
        <pt x="531" y="128" on="1"/>
        <pt x="531" y="65" on="0"/>
        <pt x="467" y="0" on="0"/>
        <pt x="409" y="0" on="1"/>
        <pt x="401" y="0" on="1"/>
        <pt x="343" y="0" on="0"/>
        <pt x="279" y="65" on="0"/>
        <pt x="279" y="128" on="1"/>
        <pt x="279" y="168" on="1"/>
        <pt x="279" y="231" on="0"/>
        <pt x="343" y="296" on="0"/>
        <pt x="401" y="296" on="1"/>
        <pt x="409" y="296" on="1"/>
        <pt x="467" y="296" on="0"/>
        <pt x="531" y="231" on="0"/>
        <pt x="531" y="168" on="1"/>
      </contour>
      <contour>
        <pt x="461" y="117" on="1"/>
        <pt x="461" y="179" on="1"/>
        <pt x="461" y="204" on="0"/>
        <pt x="435" y="236" on="0"/>
        <pt x="409" y="236" on="1"/>
        <pt x="401" y="236" on="1"/>
        <pt x="375" y="236" on="0"/>
        <pt x="349" y="204" on="0"/>
        <pt x="349" y="179" on="1"/>
        <pt x="349" y="117" on="1"/>
        <pt x="349" y="92" on="0"/>
        <pt x="375" y="60" on="0"/>
        <pt x="401" y="60" on="1"/>
        <pt x="409" y="60" on="1"/>
        <pt x="435" y="60" on="0"/>
        <pt x="461" y="92" on="0"/>
      </contour>
    </TTGlyph>
    <TTGlyph name="pi" xMin="48" yMin="0" xMax="492" yMax="500">
      <contour>
        <pt x="212" y="0" on="1"/>
        <pt x="127" y="0" on="1"/>
        <pt x="127" y="427" on="1"/>
        <pt x="48" y="427" on="1"/>
        <pt x="48" y="500" on="1"/>
        <pt x="492" y="500" on="1"/>
        <pt x="492" y="427" on="1"/>
        <pt x="402" y="427" on="1"/>
        <pt x="402" y="105" on="1"/>
        <pt x="402" y="89" on="0"/>
        <pt x="418" y="75" on="0"/>
        <pt x="437" y="75" on="1"/>
        <pt x="452" y="75" on="1"/>
        <pt x="452" y="0" on="1"/>
        <pt x="402" y="0" on="1"/>
        <pt x="368" y="0" on="0"/>
        <pt x="317" y="48" on="0"/>
        <pt x="317" y="100" on="1"/>
        <pt x="317" y="427" on="1"/>
        <pt x="212" y="427" on="1"/>
      </contour>
    </TTGlyph>
    <TTGlyph name="plus" xMin="79" yMin="118" xMax="460" yMax="508">
      <contour>
        <pt x="460" y="275" on="1"/>
        <pt x="310" y="275" on="1"/>
        <pt x="310" y="118" on="1"/>
        <pt x="230" y="118" on="1"/>
        <pt x="230" y="275" on="1"/>
        <pt x="79" y="275" on="1"/>
        <pt x="79" y="350" on="1"/>
        <pt x="230" y="350" on="1"/>
        <pt x="230" y="508" on="1"/>
        <pt x="310" y="508" on="1"/>
        <pt x="310" y="350" on="1"/>
        <pt x="460" y="350" on="1"/>
      </contour>
    </TTGlyph>
    <TTGlyph name="plusminus" xMin="80" yMin="0" xMax="460" yMax="508">
      <contour>
        <pt x="460" y="275" on="1"/>
        <pt x="310" y="275" on="1"/>
        <pt x="310" y="143" on="1"/>
        <pt x="230" y="143" on="1"/>
        <pt x="230" y="275" on="1"/>
        <pt x="80" y="275" on="1"/>
        <pt x="80" y="350" on="1"/>
        <pt x="230" y="350" on="1"/>
        <pt x="230" y="508" on="1"/>
        <pt x="310" y="508" on="1"/>
        <pt x="310" y="350" on="1"/>
        <pt x="460" y="350" on="1"/>
      </contour>
      <contour>
        <pt x="460" y="0" on="1"/>
        <pt x="80" y="0" on="1"/>
        <pt x="80" y="75" on="1"/>
        <pt x="460" y="75" on="1"/>
      </contour>
    </TTGlyph>
    <TTGlyph name="product" xMin="43" yMin="0" xMax="497" yMax="700">
      <contour>
        <pt x="209" y="0" on="1"/>
        <pt x="122" y="0" on="1"/>
        <pt x="122" y="625" on="1"/>
        <pt x="43" y="625" on="1"/>
        <pt x="43" y="700" on="1"/>
        <pt x="497" y="700" on="1"/>
        <pt x="497" y="625" on="1"/>
        <pt x="406" y="625" on="1"/>
        <pt x="406" y="105" on="1"/>
        <pt x="406" y="89" on="0"/>
        <pt x="420" y="75" on="0"/>
        <pt x="439" y="75" on="1"/>
        <pt x="454" y="75" on="1"/>
        <pt x="454" y="0" on="1"/>
        <pt x="404" y="0" on="1"/>
        <pt x="370" y="0" on="0"/>
        <pt x="319" y="48" on="0"/>
        <pt x="319" y="100" on="1"/>
        <pt x="319" y="625" on="1"/>
        <pt x="209" y="625" on="1"/>
      </contour>
    </TTGlyph>
    <TTGlyph name="q" xMin="84" yMin="-170" xMax="455" yMax="500">
      <contour>
        <pt x="455" y="-170" on="1"/>
        <pt x="370" y="-170" on="1"/>
        <pt x="370" y="20" on="1"/>
        <pt x="339" y="0" on="0"/>
        <pt x="295" y="0" on="1"/>
        <pt x="254" y="0" on="1"/>
        <pt x="166" y="0" on="0"/>
        <pt x="84" y="75" on="0"/>
        <pt x="84" y="160" on="1"/>
        <pt x="84" y="340" on="1"/>
        <pt x="84" y="424" on="0"/>
        <pt x="167" y="500" on="0"/>
        <pt x="254" y="500" on="1"/>
        <pt x="455" y="500" on="1"/>
      </contour>
      <contour>
        <pt x="305" y="75" on="1"/>
        <pt x="338" y="75" on="0"/>
        <pt x="370" y="110" on="0"/>
        <pt x="370" y="130" on="1"/>
        <pt x="370" y="425" on="1"/>
        <pt x="244" y="425" on="1"/>
        <pt x="169" y="425" on="0"/>
        <pt x="169" y="360" on="1"/>
        <pt x="169" y="140" on="1"/>
        <pt x="169" y="75" on="0"/>
        <pt x="244" y="75" on="1"/>
      </contour>
    </TTGlyph>
    <TTGlyph name="question" xMin="126" yMin="0" xMax="409" yMax="700">
      <contour>
        <pt x="409" y="518" on="1"/>
        <pt x="409" y="459" on="0"/>
        <pt x="388" y="409" on="0"/>
        <pt x="338" y="358" on="1"/>
        <pt x="285" y="304" on="1"/>
        <pt x="285" y="208" on="1"/>
        <pt x="200" y="208" on="1"/>
        <pt x="200" y="329" on="1"/>
        <pt x="258" y="390" on="1"/>
        <pt x="304" y="438" on="0"/>
        <pt x="324" y="475" on="0"/>
        <pt x="324" y="509" on="1"/>
        <pt x="324" y="559" on="1"/>
        <pt x="324" y="624" on="0"/>
        <pt x="251" y="624" on="1"/>
        <pt x="126" y="624" on="1"/>
        <pt x="126" y="700" on="1"/>
        <pt x="241" y="700" on="1"/>
        <pt x="409" y="700" on="0"/>
        <pt x="409" y="550" on="1"/>
      </contour>
      <contour>
        <pt x="293" y="0" on="1"/>
        <pt x="193" y="0" on="1"/>
        <pt x="193" y="100" on="1"/>
        <pt x="293" y="100" on="1"/>
      </contour>
    </TTGlyph>
    <TTGlyph name="questiondown" xMin="131" yMin="-200" xMax="414" yMax="500">
      <contour>
        <pt x="247" y="500" on="1"/>
        <pt x="347" y="500" on="1"/>
        <pt x="347" y="400" on="1"/>
        <pt x="247" y="400" on="1"/>
      </contour>
      <contour>
        <pt x="131" y="-18" on="1"/>
        <pt x="131" y="41" on="0"/>
        <pt x="152" y="91" on="0"/>
        <pt x="202" y="142" on="1"/>
        <pt x="255" y="196" on="1"/>
        <pt x="255" y="292" on="1"/>
        <pt x="340" y="292" on="1"/>
        <pt x="340" y="171" on="1"/>
        <pt x="282" y="110" on="1"/>
        <pt x="237" y="63" on="0"/>
        <pt x="216" y="24" on="0"/>
        <pt x="216" y="-9" on="1"/>
        <pt x="216" y="-59" on="1"/>
        <pt x="216" y="-124" on="0"/>
        <pt x="289" y="-124" on="1"/>
        <pt x="414" y="-124" on="1"/>
        <pt x="414" y="-200" on="1"/>
        <pt x="299" y="-200" on="1"/>
        <pt x="131" y="-200" on="0"/>
        <pt x="131" y="-50" on="1"/>
      </contour>
    </TTGlyph>
    <TTGlyph name="quotedbl" xMin="145" yMin="453" xMax="395" yMax="700">
      <contour>
        <pt x="145" y="700" on="1"/>
        <pt x="240" y="700" on="1"/>
        <pt x="240" y="610" on="1"/>
        <pt x="220" y="453" on="1"/>
        <pt x="165" y="453" on="1"/>
        <pt x="145" y="610" on="1"/>
      </contour>
      <contour>
        <pt x="300" y="700" on="1"/>
        <pt x="395" y="700" on="1"/>
        <pt x="395" y="610" on="1"/>
        <pt x="375" y="453" on="1"/>
        <pt x="320" y="453" on="1"/>
        <pt x="300" y="610" on="1"/>
      </contour>
    </TTGlyph>
    <TTGlyph name="quotedblbase" xMin="130" yMin="-157" xMax="410" yMax="90">
      <contour>
        <pt x="315" y="90" on="1"/>
        <pt x="410" y="90" on="1"/>
        <pt x="410" y="0" on="1"/>
        <pt x="355" y="-157" on="1"/>
        <pt x="285" y="-157" on="1"/>
        <pt x="315" y="0" on="1"/>
      </contour>
      <contour>
        <pt x="160" y="90" on="1"/>
        <pt x="255" y="90" on="1"/>
        <pt x="255" y="0" on="1"/>
        <pt x="200" y="-157" on="1"/>
        <pt x="130" y="-157" on="1"/>
        <pt x="160" y="0" on="1"/>
      </contour>
    </TTGlyph>
    <TTGlyph name="quotedblleft" xMin="130" yMin="452" xMax="410" yMax="699">
      <contour>
        <pt x="225" y="452" on="1"/>
        <pt x="130" y="452" on="1"/>
        <pt x="130" y="542" on="1"/>
        <pt x="185" y="699" on="1"/>
        <pt x="255" y="699" on="1"/>
        <pt x="225" y="542" on="1"/>
      </contour>
      <contour>
        <pt x="380" y="452" on="1"/>
        <pt x="285" y="452" on="1"/>
        <pt x="285" y="542" on="1"/>
        <pt x="340" y="699" on="1"/>
        <pt x="410" y="699" on="1"/>
        <pt x="380" y="542" on="1"/>
      </contour>
    </TTGlyph>
    <TTGlyph name="quotedblright" xMin="130" yMin="453" xMax="410" yMax="700">
      <contour>
        <pt x="315" y="700" on="1"/>
        <pt x="410" y="700" on="1"/>
        <pt x="410" y="610" on="1"/>
        <pt x="355" y="453" on="1"/>
        <pt x="285" y="453" on="1"/>
        <pt x="315" y="610" on="1"/>
      </contour>
      <contour>
        <pt x="160" y="700" on="1"/>
        <pt x="255" y="700" on="1"/>
        <pt x="255" y="610" on="1"/>
        <pt x="200" y="453" on="1"/>
        <pt x="130" y="453" on="1"/>
        <pt x="160" y="610" on="1"/>
      </contour>
    </TTGlyph>
    <TTGlyph name="quoteleft" xMin="207" yMin="452" xMax="332" yMax="699">
      <contour>
        <pt x="302" y="452" on="1"/>
        <pt x="207" y="452" on="1"/>
        <pt x="207" y="542" on="1"/>
        <pt x="262" y="699" on="1"/>
        <pt x="332" y="699" on="1"/>
        <pt x="302" y="542" on="1"/>
      </contour>
    </TTGlyph>
    <TTGlyph name="quoteright" xMin="207" yMin="453" xMax="332" yMax="700">
      <contour>
        <pt x="237" y="700" on="1"/>
        <pt x="332" y="700" on="1"/>
        <pt x="332" y="610" on="1"/>
        <pt x="277" y="453" on="1"/>
        <pt x="207" y="453" on="1"/>
        <pt x="237" y="610" on="1"/>
      </contour>
    </TTGlyph>
    <TTGlyph name="quotesinglbase" xMin="207" yMin="-157" xMax="332" yMax="90">
      <contour>
        <pt x="237" y="90" on="1"/>
        <pt x="332" y="90" on="1"/>
        <pt x="332" y="0" on="1"/>
        <pt x="277" y="-157" on="1"/>
        <pt x="207" y="-157" on="1"/>
        <pt x="237" y="0" on="1"/>
      </contour>
    </TTGlyph>
    <TTGlyph name="quotesingle" xMin="222" yMin="453" xMax="317" yMax="700">
      <contour>
        <pt x="222" y="700" on="1"/>
        <pt x="317" y="700" on="1"/>
        <pt x="317" y="610" on="1"/>
        <pt x="297" y="453" on="1"/>
        <pt x="242" y="453" on="1"/>
        <pt x="222" y="610" on="1"/>
      </contour>
    </TTGlyph>
    <TTGlyph name="r" xMin="100" yMin="0" xMax="436" yMax="500">
      <contour>
        <pt x="367" y="0" on="1"/>
        <pt x="100" y="0" on="1"/>
        <pt x="100" y="75" on="1"/>
        <pt x="173" y="75" on="1"/>
        <pt x="173" y="425" on="1"/>
        <pt x="100" y="425" on="1"/>
        <pt x="100" y="500" on="1"/>
        <pt x="253" y="500" on="1"/>
        <pt x="253" y="473" on="1"/>
        <pt x="286" y="500" on="0"/>
        <pt x="333" y="500" on="1"/>
        <pt x="436" y="500" on="1"/>
        <pt x="436" y="420" on="1"/>
        <pt x="323" y="420" on="1"/>
        <pt x="291" y="420" on="0"/>
        <pt x="259" y="379" on="0"/>
        <pt x="258" y="358" on="1"/>
        <pt x="258" y="75" on="1"/>
        <pt x="367" y="75" on="1"/>
      </contour>
    </TTGlyph>
    <TTGlyph name="radical" xMin="22" yMin="0" xMax="517" yMax="820">
      <contour>
        <pt x="517" y="745" on="1"/>
        <pt x="411" y="745" on="1"/>
        <pt x="246" y="0" on="1"/>
        <pt x="121" y="0" on="1"/>
        <pt x="22" y="392" on="1"/>
        <pt x="111" y="392" on="1"/>
        <pt x="183" y="81" on="1"/>
        <pt x="340" y="820" on="1"/>
        <pt x="517" y="820" on="1"/>
      </contour>
    </TTGlyph>
</ttFont>
